<svg width="247" height="194" viewBox="0 0 247 194" fill="none" xmlns="http://www.w3.org/2000/svg">
<path d="M115.749 0.0755709C115.749 0.11756 115.275 0.176345 114.693 0.209937C111.22 0.386292 106.345 1.02453 103.118 1.72155C100.947 2.20023 97.4145 3.09881 96.7534 3.35914C96.5363 3.44312 95.7074 3.72025 95.0759 3.9218C94.8588 3.98898 94.5529 4.09815 94.3851 4.15694C94.2272 4.22412 93.872 4.35009 93.5957 4.45086C90.7735 5.4922 88.1586 6.7015 85.287 8.33068C83.6983 9.22926 83.2148 9.59036 82.9681 10.0606C82.5931 10.7661 82.7806 11.102 84.8726 13.4534C86.8363 15.6536 89.1453 18.4921 90.0926 19.861C90.2209 20.0457 90.5071 20.4404 90.734 20.7427C90.961 21.0451 91.257 21.4566 91.3952 21.6665C91.5333 21.8765 91.8294 22.2964 92.0465 22.6155C92.2734 22.9262 92.4609 23.1949 92.4609 23.2201C92.4609 23.2369 92.5892 23.4385 92.7372 23.6568C93.9016 25.3364 96.2403 29.3758 97.3948 31.702C97.5132 31.9287 97.6415 32.1974 97.6908 32.2898C97.7402 32.3822 97.8783 32.6677 97.9868 32.9197C98.1053 33.1716 98.2434 33.4487 98.2927 33.5243C98.3421 33.6083 98.4408 33.8182 98.5197 33.9862C98.5888 34.1626 98.8651 34.7756 99.1216 35.355C99.7433 36.7407 100.177 37.7736 100.661 39.0501C100.888 39.6296 101.105 40.1754 101.154 40.2678C101.204 40.3602 101.312 40.6457 101.391 40.8976C101.48 41.1496 101.608 41.5443 101.697 41.7794C101.776 42.0062 101.885 42.3085 101.934 42.4513C102.635 44.5087 103.75 45.1722 105.94 44.8363C106.256 44.7943 106.986 44.6851 107.559 44.5927C113.854 43.6354 120.16 43.543 125.814 44.3156C126.899 44.4667 129.06 44.8195 129.564 44.9286C130.708 45.189 132.455 45.5165 132.692 45.5165C133.057 45.5081 133.777 45.231 134.014 44.9958C134.428 44.5843 134.725 43.9125 135.04 42.7032C135.139 42.3337 135.267 41.8214 135.346 41.5695C135.415 41.3175 135.544 40.8221 135.632 40.4778C135.721 40.1334 135.879 39.5288 135.988 39.1341C136.333 37.8828 136.461 37.4293 136.678 36.6567C136.787 36.2368 136.925 35.7833 136.974 35.649C137.024 35.5062 137.221 34.8848 137.418 34.2633C137.882 32.8105 138.711 30.627 139.135 29.7705C139.185 29.6781 139.382 29.2834 139.57 28.8887C140.142 27.6962 141.326 25.3364 141.415 25.202C141.454 25.1264 141.612 24.8409 141.76 24.5638C142.027 24.0347 142.214 23.6904 142.865 22.5063C143.083 22.1116 143.438 21.4734 143.655 21.0787C143.872 20.684 144.543 19.4915 145.155 18.4333C145.767 17.3668 146.635 15.8552 147.079 15.0742C147.533 14.2848 148.441 12.6976 149.102 11.5471C150.967 8.30549 151.154 7.84361 150.829 7.30614C150.691 7.071 150.089 6.62591 149.595 6.39077C149.053 6.13044 146.753 5.14789 146.28 4.97153C146.003 4.87076 145.49 4.686 145.145 4.55164C144.494 4.2997 143.201 3.84622 142.589 3.65307C141.069 3.16599 139.846 2.80488 138.889 2.56134C138.563 2.48576 138.178 2.37659 138.04 2.3346C137.902 2.29261 137.547 2.20863 137.251 2.14145C136.955 2.08266 136.293 1.9399 135.78 1.82233C133.215 1.26807 129.751 0.71381 127.442 0.503863C126.959 0.461873 126.159 0.386292 125.666 0.344303C125.182 0.293916 124.304 0.235131 123.722 0.209937C123.13 0.176345 122.656 0.11756 122.656 0.0755709C122.656 0.0335815 121.196 -9.9726e-06 119.203 -9.9726e-06C117.209 -9.9726e-06 115.749 0.0335815 115.749 0.0755709Z" fill="white" fill-opacity="0.46"/>
<path d="M153.976 12.9241C153.365 13.0584 152.703 13.6043 151.944 14.612C150.325 16.7451 149.141 18.5086 148.223 20.1126C147.464 21.4395 147.158 22.0693 146.289 24.1856C146.092 24.6727 145.865 25.2018 145.796 25.3613C145.609 25.8064 145.53 26.0247 144.267 29.2663C143.615 30.9291 143.033 32.3987 142.974 32.5415C142.915 32.6759 142.836 32.9026 142.786 33.0454C142.737 33.1797 142.658 33.4065 142.599 33.5492C142.54 33.6836 142.362 34.1371 142.204 34.557C141.227 37.1435 140.102 40.066 139.56 41.4684C138.81 43.4167 138.741 43.9122 139.165 44.2229C139.589 44.5337 140.023 44.5085 142.293 44.0466C142.796 43.9374 143.151 43.8702 144.809 43.5427C145.135 43.4839 145.806 43.3496 146.289 43.2488C148.648 42.7785 149.279 42.6525 149.99 42.4846C150.237 42.4342 150.592 42.3586 150.779 42.325C150.967 42.2914 151.835 42.0983 152.703 41.9051C153.572 41.712 154.44 41.5188 154.628 41.4852C154.815 41.4516 155.2 41.3761 155.466 41.3173C158.91 40.6035 162.048 40.1248 165.63 39.7637C170.722 39.2598 176.564 39.2598 181.567 39.7637C182.899 39.898 184.695 39.9232 184.784 39.7973C184.813 39.7553 184.636 39.4781 184.389 39.1758C184.132 38.8735 183.728 38.378 183.471 38.0589C182.909 37.3703 182.889 37.3535 181.744 35.9678C181.241 35.3548 180.619 34.599 180.363 34.2883C179.79 33.5828 178.488 32.0124 177.462 30.7779C172.261 24.5299 165.601 18.8782 158.377 14.5952C155.743 13.0416 154.914 12.7225 153.976 12.9241Z" fill="white" fill-opacity="0.46"/>
<path d="M79.1788 16.0062C77.7677 16.8124 75.883 18.1393 72.972 20.3731C68.6302 23.7071 64.91 27.2678 61.1208 31.7018C59.3841 33.7173 56.7 37.3872 55.4468 39.4279C55.2199 39.7974 55.0028 40.1333 54.9633 40.1837C54.7956 40.3684 53.049 43.4085 52.4569 44.5506C51.9734 45.466 51.9043 45.6675 51.7563 46.3897C51.5392 47.4647 51.5589 47.683 51.8352 47.7418C52.2595 47.8342 54.4107 47.8258 54.9633 47.7334C59.8972 46.8768 61.8806 46.5661 64.535 46.2386C65.1074 46.163 66.0152 46.0538 66.5579 45.9866C67.4855 45.8691 67.8999 45.8271 70.2583 45.6087C75.7744 45.1048 78.3006 45.0377 89.9939 45.0713C93.7436 45.0881 96.921 45.0629 97.1283 45.0209C98.0558 44.8361 98.2828 44.2399 97.8782 43.0558C97.7598 42.7282 97.6118 42.2748 97.5328 42.048C97.4638 41.8297 97.375 41.6113 97.3355 41.5609C97.296 41.5106 97.2368 41.351 97.1875 41.1998C97.148 41.0571 96.8816 40.3936 96.6053 39.7218C96.329 39.05 96.0329 38.353 95.9639 38.1682C95.8455 37.8743 95.7073 37.5552 95.431 36.9925C95.3817 36.9001 95.2731 36.6566 95.1744 36.4466C94.7501 35.4977 93.7732 33.5158 93.3292 32.6844C92.6976 31.4919 92.5003 31.1476 91.6319 29.6444C90.7932 28.2083 90.4774 27.6877 89.5202 26.2096C89.2044 25.7058 88.1387 24.1354 87.9216 23.8498C87.8723 23.7826 87.6453 23.4551 87.4184 23.136C87.1914 22.8085 86.3724 21.7336 85.6027 20.7426C83.491 18.0301 82.0602 16.4009 81.3596 15.9138C80.9945 15.6619 80.8761 15.6199 80.4024 15.6199C79.9287 15.6199 79.7906 15.6619 79.1788 16.0062Z" fill="white" fill-opacity="0.46"/>
<path d="M171.551 43.0896C169.568 43.1484 168.808 43.2323 165.038 43.795C164.604 43.8622 163.825 43.9714 163.312 44.0469C162.088 44.2149 159.621 44.6012 157.884 44.8783C157.48 44.9455 156.789 45.0631 156.355 45.1303C155.516 45.2646 155.052 45.3402 152.21 45.8105C149.191 46.3144 148.865 46.3648 148.48 46.4487C148.263 46.4991 147.869 46.5663 147.592 46.6083C146.951 46.7007 143.991 47.2297 143.329 47.3641C140.004 48.0443 138.129 49.4804 137.606 51.773C137.448 52.4448 137.428 53.0831 137.428 57.3996C137.428 62.3543 137.517 64.1934 137.902 67.393C138.336 70.9705 139.057 74.2205 140.073 77.2605C140.349 78.0919 140.941 79.6707 141.07 79.9311C141.149 80.0822 141.208 80.2586 141.208 80.3258C141.208 80.3929 141.267 80.5693 141.346 80.7205C141.425 80.8716 141.652 81.3923 141.849 81.8794C142.047 82.3664 142.283 82.9123 142.362 83.0971C142.441 83.2818 142.57 83.5673 142.639 83.7269C142.787 84.0544 143.152 84.869 143.537 85.7172C143.981 86.7249 145.767 90.4452 146.142 91.159C146.191 91.2514 146.388 91.6629 146.586 92.0828C146.783 92.4943 147 92.9478 147.079 93.0905C147.148 93.2249 147.365 93.6784 147.563 94.0983C147.77 94.5098 147.967 94.9297 148.017 95.022C148.066 95.1144 148.204 95.3999 148.313 95.6519C148.431 95.9038 148.569 96.1893 148.619 96.2817C148.658 96.3741 148.816 96.6932 148.954 96.9955C149.092 97.2979 149.25 97.617 149.299 97.7094C150.03 99.137 150.109 99.221 150.72 99.221C151.105 99.221 151.214 99.179 151.569 98.8851C151.895 98.6163 153.246 96.8612 153.246 96.7016C153.246 96.6344 153.996 95.5679 155.26 93.8631C155.97 92.8974 156.602 92.0492 156.651 91.9736C156.71 91.898 156.819 91.7385 156.907 91.6209C156.996 91.5033 157.361 91.0246 157.726 90.546C158.082 90.0757 158.437 89.6894 158.516 89.6894C158.92 89.6894 159.138 89.8573 159.345 90.3192C159.532 90.7307 159.562 90.9659 159.562 92.0072C159.562 93.2417 159.473 93.7372 159.059 94.8793C158.96 95.1648 158.832 95.4671 158.782 95.5511C158.723 95.6267 158.585 95.8786 158.457 96.1138C157.963 97.0375 157.263 97.9025 156.108 99.011C154.756 100.313 154.253 101.001 154.026 101.841C153.819 102.589 154.243 103.588 155.299 104.873C160.401 111.087 167.92 117.512 175.281 121.92C176.613 122.718 178.863 124.02 179.317 124.247C181.123 125.162 183.333 126.271 183.837 126.506C184.586 126.858 189.017 128.74 189.659 128.983C190.034 129.117 190.537 129.311 191.681 129.747C192.145 129.924 193.793 130.495 194.247 130.629C194.523 130.713 194.79 130.805 194.839 130.839C194.898 130.873 195.224 130.982 195.579 131.083C195.934 131.192 196.309 131.309 196.418 131.351C196.872 131.528 197.632 131.679 198.056 131.679C199.072 131.679 199.743 131.175 200.247 130.041C200.326 129.856 200.483 129.512 200.592 129.285C200.878 128.664 201.066 128.11 201.243 127.312C201.342 126.917 201.47 126.329 201.549 126.01C201.727 125.254 201.944 124.322 202.2 123.155C202.309 122.643 202.467 121.988 202.536 121.685C202.605 121.383 202.733 120.837 202.822 120.468C202.901 120.098 203.039 119.493 203.118 119.124C203.424 117.805 203.562 117.176 203.769 116.227C203.888 115.698 204.046 114.975 204.125 114.631C204.371 113.565 204.539 112.775 204.707 111.986C204.796 111.566 204.924 110.944 205.003 110.6C205.072 110.256 205.23 109.5 205.348 108.921C206 105.788 206.73 104.705 208.516 104.218C209.641 103.907 212.246 104.025 214.377 104.478C215.344 104.688 217.565 105.335 218.048 105.553C218.147 105.595 218.541 105.755 218.916 105.906C221.699 107.006 224.906 109.08 227.235 111.297C231.31 115.169 233.274 119.191 233.274 123.692C233.274 125.17 232.948 127.337 232.583 128.236C232.534 128.353 232.376 128.773 232.238 129.185C232.09 129.588 231.932 129.94 231.883 129.966C231.833 129.991 231.794 130.066 231.794 130.134C231.794 130.343 230.866 131.872 230.264 132.661C227.728 135.97 224.117 137.944 219.36 138.624C217.979 138.817 215.374 138.817 213.242 138.624C212.345 138.54 211.239 138.439 210.776 138.397C210.312 138.355 209.542 138.296 209.049 138.271C208.565 138.246 207.43 138.162 206.532 138.095C205.634 138.019 204.431 137.977 203.868 137.994C202.97 138.019 202.753 138.053 202.25 138.263C201.46 138.59 200.987 138.968 200.513 139.674C200.296 139.993 200.118 140.278 200.118 140.303C200.118 140.337 200.01 140.547 199.882 140.782C199.753 141.017 199.526 141.437 199.378 141.714C199.23 141.991 198.914 142.571 198.678 142.999C198.441 143.427 198.243 143.797 198.243 143.814C198.243 143.83 198.017 144.242 197.75 144.729C196.98 146.106 196.98 146.971 197.75 147.366C197.918 147.458 198.816 147.685 199.753 147.887C200.691 148.08 201.677 148.29 201.944 148.349C202.22 148.416 203.108 148.609 203.917 148.777C204.736 148.945 205.595 149.13 205.842 149.188C206.088 149.247 206.621 149.356 207.026 149.44C207.43 149.516 208.032 149.633 208.358 149.692C211.101 150.221 214.397 150.574 216.598 150.574C217.821 150.574 220.328 150.381 221.581 150.188C227.117 149.356 232.139 147.324 236.53 144.141C237.596 143.369 239.234 141.949 240.251 140.908C241.04 140.102 242.54 138.254 243.063 137.44C243.882 136.163 244.898 134.232 245.263 133.274C245.362 133.022 245.48 132.72 245.53 132.603C245.707 132.216 246.221 130.545 246.428 129.621C246.882 127.723 247 126.564 247 124.205C247 122.937 246.951 121.601 246.892 121.24C246.842 120.887 246.753 120.316 246.694 119.972C246.556 119.057 246.211 117.688 245.776 116.294C245.155 114.346 243.734 111.44 242.589 109.785C241.701 108.517 241.316 107.997 240.635 107.199C237.715 103.714 234.142 100.959 229.574 98.6583C228.607 98.1796 226.268 97.1635 225.409 96.8612C225.232 96.794 224.936 96.6932 224.768 96.626C221.423 95.3747 215.433 94.0395 210.776 93.5104C207.618 93.1493 206.74 92.6454 206.305 90.9491C206.108 90.1597 205.625 86.5318 205.496 84.7766C205.21 80.9808 204.421 75.5642 203.671 72.3058C203.612 72.0538 203.503 71.5416 203.424 71.1721C203.246 70.3911 203.019 69.4505 202.822 68.7367C202.753 68.4596 202.595 67.8885 202.487 67.477C202.378 67.0571 202.171 66.3433 202.023 65.8814C201.885 65.4195 201.747 64.9492 201.727 64.8317C201.697 64.7141 201.559 64.3026 201.431 63.9079C201.293 63.5132 201.164 63.1185 201.135 63.0261C201.056 62.7322 200.701 61.6909 200.562 61.3466C200.493 61.1618 200.207 60.3892 199.921 59.625C199.645 58.8608 199.368 58.1638 199.319 58.0714C199.27 57.979 199.122 57.6179 198.993 57.2736C198.855 56.9293 198.648 56.4338 198.54 56.1819C198.421 55.9299 198.293 55.6276 198.243 55.51C198.194 55.3925 197.977 54.9054 197.75 54.4183C197.523 53.9312 197.306 53.4358 197.257 53.3182C197.217 53.2006 197.138 53.0327 197.079 52.9403C197.02 52.8563 196.813 52.4364 196.615 52.0249C196.418 51.605 196.201 51.1515 196.122 51.0172C196.043 50.8744 195.865 50.5385 195.727 50.2614C195.017 48.8925 194.296 47.9603 193.241 47.0702C192.125 46.1212 191.543 45.8441 189.708 45.3906C189.382 45.3066 188.958 45.1974 188.77 45.1387C188.583 45.0799 188.139 44.9623 187.784 44.8867C187.428 44.8027 186.945 44.6936 186.698 44.6264C185.978 44.45 183.728 44.0049 182.504 43.8034C178.636 43.1652 175.656 42.972 171.551 43.0896ZM177.126 57.853C177.64 58.0882 178.883 59.0539 178.893 59.2303C178.903 59.3563 178.242 60.1037 177.166 61.1618C176.969 61.3634 176.781 61.4725 176.673 61.4557C176.475 61.4221 174.472 59.2303 174.472 59.0371C174.462 58.7852 176.14 57.7019 176.534 57.7019C176.673 57.7019 176.939 57.7691 177.126 57.853ZM168.877 58.4745C169.637 59.0959 169.726 59.2051 169.726 59.4738C169.726 59.6418 169.627 59.9441 169.509 60.1457C169.213 60.6243 167.653 62.4803 167.545 62.4803C167.298 62.4803 165.68 60.2632 165.68 59.9189C165.68 59.6838 166.045 59.1715 166.44 58.8524C166.923 58.4661 167.88 57.7859 167.959 57.7859C167.999 57.7775 168.413 58.0882 168.877 58.4745ZM159.838 58.8272C160.243 59.0203 162.424 60.6915 162.424 60.8007C162.424 60.9015 160.016 62.2031 159.641 62.3039C159.078 62.4635 158.555 62.2871 157.805 61.6825C157.026 61.0694 156.838 60.7503 157.006 60.3136C157.223 59.7258 158.161 58.8608 158.772 58.676C159.088 58.5837 159.434 58.6256 159.838 58.8272ZM185.692 59.2303C186.205 59.4402 187.784 60.3472 187.902 60.4984C188.001 60.6243 188.001 61.0694 187.902 61.2038C187.754 61.3969 186.027 62.2115 185.534 62.3207C185.1 62.4131 184.981 62.4047 184.586 62.2787C184.34 62.1947 183.925 61.968 183.669 61.7749C183.412 61.5817 183.077 61.3298 182.929 61.2206C182.771 61.1114 182.652 60.9687 182.652 60.9099C182.652 60.7755 183.58 59.7594 184.103 59.3311C184.537 58.97 184.991 58.9448 185.692 59.2303ZM152.664 61.8252C153.395 62.4803 153.987 63.0597 153.987 63.1101C153.987 63.2109 153.237 63.7316 152.161 64.3698C151.707 64.6385 151.529 64.6973 151.125 64.6973C150.701 64.7057 150.562 64.6637 150.197 64.4202C149.645 64.0423 149.102 63.3537 149.102 63.0177C149.102 62.8582 149.25 62.5726 149.487 62.2619C149.931 61.6741 151.046 60.6327 151.214 60.6327C151.283 60.6327 151.934 61.1702 152.664 61.8252ZM174.314 70.4918C176.002 70.7186 177.235 70.9621 178.261 71.2644C178.488 71.3316 178.715 71.382 178.784 71.382C178.853 71.382 179.1 71.4492 179.327 71.5332C179.554 71.6172 179.939 71.7515 180.185 71.8355C183.225 72.86 186.974 75.1023 187.251 76.0596C187.428 76.6559 187.063 77.1094 185.475 78.2179C183.6 79.528 181.508 80.6953 179.653 81.4511C177.689 82.2573 176.603 82.5932 174.423 83.0551C172.469 83.475 171.186 83.5757 168.167 83.5337C165.325 83.5002 164.831 83.4582 162.966 83.0887C162.591 83.0131 162.098 82.9039 161.881 82.8451C161.664 82.7863 161.2 82.6604 160.845 82.568C158.881 82.0473 156.138 80.8464 154.016 79.5951C151.875 78.3187 151.835 77.5797 153.829 75.9169C157.263 73.0448 162.098 71.0965 167.259 70.5002C168.877 70.3155 169.153 70.3071 171.354 70.3323C172.498 70.3491 173.742 70.4163 174.314 70.4918ZM190.833 81.5518C191.297 81.6442 191.731 81.7534 191.78 81.7954C191.839 81.829 191.987 81.8878 192.125 81.9214C192.392 81.9885 194.217 82.7359 194.543 82.9123C196.901 84.1888 198.234 85.1545 199.319 86.3806C200.247 87.422 200.543 88.2533 200.217 88.9672C200.128 89.1687 200.079 89.1855 199.566 89.1855C198.944 89.1855 199.141 89.2863 196.388 87.6403C195.441 87.086 194.602 86.5822 194.513 86.5402C194.425 86.4898 194.079 86.2882 193.734 86.0783C193.398 85.8684 192.777 85.4904 192.362 85.2385C191.948 84.9866 191.228 84.5499 190.783 84.2728C188.435 82.8367 188.484 82.8787 188.336 82.5008C188.149 82.0305 188.228 81.829 188.662 81.5854C189.116 81.3251 189.708 81.3167 190.833 81.5518ZM184.774 86.6997C186.688 86.9937 188.07 87.6571 189.767 89.1015C191.198 90.3192 192.155 91.6293 192.619 93.0233C192.856 93.712 192.905 95.3999 192.698 95.3999C192.629 95.3999 191.908 94.7701 191.089 93.9891C190.28 93.2165 189.343 92.3431 189.007 92.0408C188.682 91.7385 187.991 91.1002 187.488 90.6132C186.984 90.1261 186.007 89.2023 185.327 88.5557C183.718 87.0441 183.442 86.7585 183.442 86.6662C183.442 86.5486 183.856 86.5654 184.774 86.6997ZM179.051 89.8154C180.245 90.3612 181.36 91.3018 182.396 92.6286C183.767 94.4006 184.527 96.4329 184.517 98.3392C184.517 99.2546 184.379 99.7164 184.083 99.75C183.965 99.7668 183.619 99.6073 183.264 99.3805C181.616 98.3392 179.682 95.5763 178.765 92.9646C178.232 91.4277 178.064 89.6054 178.459 89.6054C178.518 89.6054 178.794 89.6978 179.051 89.8154ZM165.167 92.0828C166.42 92.6202 167.012 94.4762 166.627 96.668C166.223 98.9438 165.186 100.8 163.608 102.059C162.887 102.647 162.354 102.933 162.226 102.815C162.187 102.782 162.206 102.446 162.275 102.076C162.542 100.724 163.025 97.6506 163.252 95.8198C163.341 95.148 163.489 94.1571 163.578 93.6112C163.726 92.7042 163.766 92.595 164.081 92.2927C164.446 91.9232 164.683 91.8812 165.167 92.0828ZM171.995 92.7714C172.824 93.1325 173.939 94.1235 174.393 94.9129C174.59 95.2656 174.758 95.6099 174.758 95.6687C174.758 95.7275 174.817 95.8786 174.896 96.0046C174.975 96.1306 175.064 96.3489 175.104 96.5001C175.143 96.6596 175.212 96.836 175.261 96.9116C175.409 97.1383 175.656 98.1125 175.715 98.6751C175.765 99.179 175.696 99.6997 175.449 100.724C175.4 100.951 175.311 101.178 175.271 101.228C175.232 101.278 175.094 101.547 174.965 101.824C174.837 102.101 174.669 102.387 174.6 102.463C174.521 102.53 174.462 102.639 174.462 102.689C174.462 102.824 173.969 103.126 173.762 103.126C173.466 103.126 173.179 102.824 173.179 102.521C173.179 102.37 173.12 101.967 173.041 101.614C172.962 101.27 172.824 100.607 172.735 100.145C172.647 99.6829 172.508 99.0194 172.439 98.6751C172.37 98.3308 172.281 97.8773 172.242 97.6674C172.202 97.4574 172.114 97.0039 172.045 96.6596C171.975 96.3153 171.837 95.6519 171.749 95.19C171.66 94.7281 171.522 94.0731 171.443 93.7372C171.295 93.0737 171.265 92.5447 171.383 92.5447C171.423 92.5447 171.699 92.6454 171.995 92.7714Z" fill="white" fill-opacity="0.46"/>
<path d="M114.663 47.952C114.042 47.9856 113.193 48.0528 112.789 48.1032C112.384 48.1536 111.693 48.246 111.259 48.2964C107.134 48.8002 105.575 49.2705 105.023 50.1691C104.401 51.1852 104.431 52.0502 105.24 56.3499C105.911 59.919 106.019 61.1199 106.019 64.9158C106.029 68.065 105.921 70.3912 105.674 72.6418C105.625 73.1289 105.536 73.9183 105.486 74.4054C105.289 76.1605 104.746 79.4693 104.352 81.2076C104.273 81.5519 104.164 82.0642 104.095 82.3413C103.76 83.853 103.582 84.5836 103.365 85.3226C103.286 85.5745 103.069 86.3471 102.862 87.0442C102.664 87.7328 102.447 88.4718 102.378 88.6817C102.309 88.8917 102.171 89.3032 102.082 89.6055C101.983 89.9078 101.855 90.3025 101.776 90.4873C101.707 90.672 101.49 91.2767 101.283 91.8309C100.839 93.0822 100.039 95.1145 99.7631 95.736C99.6447 95.9879 99.5066 96.3154 99.4572 96.4666C99.4079 96.6177 99.2994 96.8445 99.2204 96.9704C99.1415 97.0964 99.0724 97.2476 99.0724 97.3064C99.0724 97.3651 99.0033 97.5499 98.9145 97.7263C98.6678 98.1965 98.6185 98.3141 98.2534 99.0951C96.9607 101.858 95.0069 105.41 93.5169 107.703C93.2504 108.114 92.9149 108.627 92.7866 108.837C92.5794 109.147 92.1354 109.794 90.9315 111.507C90.8723 111.583 90.596 111.952 90.3197 112.322C89.8559 112.926 89.5994 113.246 88.5632 114.556C88.2672 114.925 86.4121 117.05 85.6325 117.915C83.3136 120.468 78.9816 124.373 75.9325 126.649C72.2222 129.411 68.4034 131.838 64.9003 133.669C64.476 133.888 64.0221 134.131 63.8938 134.198C63.7655 134.265 63.3314 134.484 62.9367 134.685C62.5419 134.887 62.1472 135.08 62.0683 135.13C61.9894 135.172 61.8512 135.231 61.7723 135.265C61.6933 135.298 61.4072 135.424 61.1506 135.559C60.8842 135.685 60.3809 135.928 60.0158 136.096C59.6507 136.264 59.1376 136.508 58.8613 136.634C58.5948 136.76 58.0225 137.02 57.6081 137.213C55.6246 138.103 55.2694 138.271 54.6675 138.548C54.3122 138.708 53.7103 138.977 53.3353 139.153C51.3322 140.052 49.8619 140.732 49.3882 140.984C48.0561 141.681 47.9475 142.277 48.9244 143.562C49.1711 143.881 49.6053 144.46 49.8915 144.838C50.7006 145.896 51.4999 146.955 51.8848 147.467C53.6215 149.785 53.9866 150.247 54.332 150.574C54.7168 150.927 55.1707 151.044 55.8023 150.944C56.0391 150.91 57.6475 150.045 60.6572 148.34C63.134 146.938 65.1668 145.787 65.1766 145.787C65.2457 145.787 74.8372 140.303 76.8206 139.128C82.6426 135.693 87.2508 131.99 92.8754 126.22C93.6846 125.397 95.7174 123.088 97.1482 121.391C98.5593 119.712 99.625 118.536 99.9802 118.284C101.105 117.47 102.131 117.218 103.681 117.402C104.214 117.461 104.756 117.545 104.894 117.587C105.033 117.629 105.319 117.696 105.536 117.738C105.753 117.772 106.286 117.89 106.72 117.99C107.154 118.091 107.934 118.259 108.447 118.368C108.96 118.477 109.582 118.612 109.828 118.671C111.417 119.006 114.89 119.569 116.834 119.787C120.11 120.165 120.791 120.207 124.482 120.207C128.804 120.207 130.274 120.098 134.054 119.452C135.899 119.141 136.55 119.006 138.395 118.528C138.672 118.461 139.027 118.368 139.185 118.326C139.353 118.293 139.925 118.116 140.468 117.948C141.01 117.772 141.632 117.579 141.849 117.512C142.066 117.444 142.303 117.344 142.382 117.293C142.451 117.235 142.826 117.201 143.231 117.201C143.931 117.209 144.178 117.268 145.036 117.638C145.589 117.881 151.391 122.072 155.615 125.296C158.18 127.253 160.243 128.731 162.779 130.461C165.265 132.149 166.153 132.72 169.735 134.929C170.653 135.5 174.778 137.818 176.14 138.54C177.758 139.397 179.771 140.413 179.84 140.413C179.86 140.413 180.136 140.539 180.452 140.698C180.768 140.858 181.36 141.135 181.764 141.328C182.583 141.706 187.606 143.831 188.228 144.057C188.445 144.141 188.76 144.259 188.918 144.318C190.971 145.115 191.563 145.283 192.412 145.283C193.033 145.283 193.132 145.258 193.517 145.015C194.04 144.67 194.208 144.41 194.918 142.89C195.056 142.596 197.049 139.229 197.158 139.111C197.326 138.918 197.839 137.709 197.908 137.347C198.076 136.348 197.247 135.643 194.198 134.223C193.902 134.081 193.26 133.778 192.767 133.552C192.283 133.316 191.573 132.989 191.188 132.813C190.813 132.636 190.458 132.468 190.399 132.435C190.349 132.401 189.994 132.233 189.609 132.057C188.297 131.461 187.636 131.15 187.537 131.091C187.488 131.057 187.132 130.889 186.747 130.713C185.504 130.15 184.784 129.806 184.429 129.621C184.241 129.521 183.777 129.294 183.392 129.118C182.534 128.723 177.975 126.413 177.176 125.96C176.85 125.784 176.515 125.607 176.436 125.574C175.853 125.338 171.748 122.886 169.578 121.484C167.782 120.317 167.772 120.308 165.532 118.696C158.042 113.313 151.243 106.393 146.122 98.9272C145.046 97.3651 143.181 94.3419 142.451 92.9647C142.283 92.6623 142.027 92.1921 141.879 91.9149C141.721 91.6378 141.346 90.9156 141.05 90.3193C140.754 89.7147 140.468 89.152 140.418 89.0596C140.33 88.8917 140.024 88.2451 139.777 87.674C139.698 87.5144 139.51 87.0861 139.343 86.7166C139.175 86.3555 139.037 86.0196 139.037 85.9776C139.037 85.9272 138.968 85.7761 138.889 85.6333C138.415 84.7599 136.974 80.6954 136.225 78.1004C135.593 75.917 135.297 74.7161 134.754 72.0539C133.846 67.6703 133.412 62.2872 133.412 55.5101C133.422 51.8739 133.363 51.5799 132.534 50.6478C131.804 49.808 130.916 49.4133 128.725 48.9346C127.215 48.5987 126.416 48.4643 123.89 48.12C122.212 47.8849 117.545 47.8009 114.663 47.952ZM121.176 74.4725C121.581 74.7329 122.025 75.1024 122.173 75.2871C122.469 75.6482 122.716 76.488 123.002 78.0164C123.15 78.831 123.248 79.2257 123.604 80.3259C123.979 81.5351 124.176 82.123 124.285 82.4253C124.354 82.6101 124.482 82.988 124.581 83.2651C124.669 83.5422 124.808 83.9202 124.877 84.1049C124.946 84.2897 125.173 84.8943 125.37 85.4486C125.567 86.0028 125.775 86.5403 125.814 86.6327C125.863 86.7334 126.08 87.2793 126.307 87.8504C126.534 88.4214 126.781 89.0093 126.86 89.1604C126.939 89.3032 126.998 89.4627 126.998 89.5131C126.998 89.5635 127.067 89.7231 127.136 89.8742C127.215 90.0254 127.422 90.4705 127.6 90.8652C127.936 91.6294 128.508 92.8471 128.715 93.2586C128.794 93.393 129.1 94.0228 129.416 94.6442C130.718 97.2392 133.225 101.522 134.646 103.563C135.346 104.571 135.78 105.486 135.78 105.956C135.78 106.561 135.188 107.182 134.3 107.518C133.925 107.661 132.583 108.039 131.389 108.333C131.231 108.375 130.787 108.484 130.403 108.585C130.028 108.677 129.495 108.811 129.218 108.87C128.952 108.937 128.33 109.08 127.837 109.206C127.353 109.324 126.682 109.483 126.357 109.559C126.031 109.634 125.567 109.744 125.321 109.811C125.074 109.87 124.541 110.004 124.137 110.096C123.732 110.197 123.179 110.323 122.903 110.39C121.897 110.634 121.906 110.634 120.555 110.264C119.834 110.071 119.094 109.861 118.907 109.802C118.719 109.744 117.16 109.307 115.453 108.828C113.746 108.35 112.275 107.938 112.197 107.896C112.118 107.862 111.693 107.737 111.259 107.619C110.124 107.3 109.651 107.04 109.424 106.628C109.118 106.04 109.157 105.771 109.976 103.336C110.114 102.916 110.292 102.37 110.381 102.118C110.46 101.866 110.598 101.463 110.677 101.237C110.943 100.464 111.328 99.3135 111.456 98.8852C111.604 98.3981 112.019 97.13 112.532 95.61C112.611 95.3749 112.838 94.6778 113.035 94.0564C113.233 93.4349 113.45 92.7547 113.529 92.5448C113.598 92.3348 113.726 91.9233 113.825 91.621C113.923 91.3187 114.052 90.9072 114.121 90.6972C114.19 90.4873 114.338 90.017 114.456 89.6475C114.772 88.6482 114.95 88.1023 115.117 87.59C115.206 87.3381 115.334 86.935 115.404 86.7082C115.482 86.4731 115.611 86.0784 115.69 85.8265C116.065 84.6676 116.469 83.4079 116.538 83.1811C116.578 83.0384 116.716 82.6269 116.834 82.2574C117.525 80.1327 117.782 79.2257 117.969 78.3104C118.315 76.6056 118.522 75.8162 118.709 75.4719C118.966 75.0268 120.051 73.9855 120.268 73.9855C120.367 73.9855 120.772 74.2038 121.176 74.4725Z" fill="white" fill-opacity="0.46"/>
<path d="M74.9456 49.0184C72.3603 49.0772 67.3771 49.6231 63.4004 50.2697C62.6208 50.4041 62.2458 50.4628 60.3414 50.8072C58.95 51.0591 56.4239 51.5714 55.3581 51.8233C55.1114 51.8737 54.7562 51.9493 54.5687 51.9913C54.3812 52.0248 53.6017 52.1928 52.8419 52.3608C52.082 52.5287 51.2433 52.7219 50.967 52.7807C50.7006 52.8394 50.1184 52.9738 49.6842 53.0746C49.25 53.1754 48.6579 53.3097 48.3816 53.3769C47.681 53.5365 46.9311 53.7128 46.3291 53.864C44.5135 54.3259 43.4379 55.0229 42.8261 56.1398C42.5695 56.6101 42.4511 56.9796 41.9281 58.8691C41.8196 59.2638 41.6913 59.7173 41.642 59.8769C41.5926 60.0364 41.4545 60.5067 41.3459 60.9266C41.2275 61.3381 41.0795 61.8924 41.0005 62.1443C40.8032 62.7825 40.0434 65.4866 39.4217 67.7289C38.8592 69.7864 38.1586 72.8852 37.8527 74.6571C37.2113 78.4194 36.8364 82.2152 36.5601 87.7578C36.0469 98.3307 36.0765 97.8688 35.8298 98.5491C35.6128 99.1957 35.2082 99.666 34.6457 99.9683C33.955 100.338 32.6623 100.581 28.4685 101.11C26.1002 101.413 25.5871 101.497 24.2254 101.782C23.6333 101.908 21.7387 102.429 21.4624 102.538C21.3538 102.58 21.0183 102.698 20.7223 102.798C19.5776 103.185 16.7259 104.419 16.3706 104.688C16.2917 104.755 16.1831 104.805 16.1535 104.805C16.1141 104.805 15.7884 104.982 15.4134 105.2C15.0483 105.419 14.624 105.67 14.4563 105.763C12.8774 106.695 10.1441 108.828 8.57508 110.348C7.835 111.07 6.55219 112.481 5.88119 113.313C4.81547 114.656 3.35504 116.924 2.70377 118.284C2.56562 118.561 2.4176 118.864 2.35839 118.956C2.00316 119.586 1.24334 121.643 0.937437 122.819C0.522991 124.415 0.315768 125.439 0.236826 126.279C0.207223 126.665 0.138149 126.976 0.0888099 126.976C0.039471 126.976 0 128 0 129.327C0 130.629 0.039471 131.679 0.0888099 131.679C0.138149 131.679 0.207223 132.006 0.236826 132.409C0.374975 133.845 0.819024 135.794 1.50977 137.977C1.85514 139.044 2.82218 141.361 3.35504 142.386C3.44385 142.571 3.60173 142.873 3.70041 143.058C5.04243 145.67 7.10479 148.256 9.31517 150.104C12.8972 153.085 18.2258 155.411 23.7813 156.402C25.9226 156.78 26.5936 156.83 29.8993 156.83C32.7018 156.822 33.2741 156.797 34.4878 156.637C36.7574 156.335 39.2441 155.881 40.1618 155.613C40.2999 155.571 40.744 155.461 41.1486 155.361C41.5531 155.26 42.2044 155.084 42.5794 154.966C42.9642 154.857 43.4083 154.731 43.5662 154.689C43.9411 154.596 44.4641 154.429 45.3917 154.109C45.7963 153.967 46.1614 153.849 46.2009 153.849C46.2502 153.849 46.5758 153.732 46.9409 153.589C47.3159 153.454 47.7501 153.286 47.908 153.228C49.773 152.539 50.2269 152.203 50.2269 151.531C50.2269 151.103 50.0098 150.675 49.3487 149.776C48.9441 149.222 48.4803 148.575 47.5527 147.299C47.5034 147.232 47.0396 146.551 46.5166 145.787C45.4016 144.166 44.9477 143.629 44.3753 143.301C43.9806 143.066 43.9115 143.058 42.8754 143.066C42.2834 143.075 41.6123 143.117 41.3953 143.175C41.1782 143.234 40.7835 143.31 40.5072 143.352C40.2407 143.394 39.6191 143.503 39.1257 143.595C34.547 144.427 31.2117 144.863 26.8403 145.208C25.2911 145.325 24.0477 145.208 22.5676 144.771C22.0544 144.628 21.867 144.553 21.413 144.351C21.3341 144.309 21.0677 144.2 20.821 144.091C20.5545 143.973 19.7355 143.352 18.7389 142.512C16.5581 140.664 15.5417 139.497 14.3083 137.431C13.9431 136.827 13.6274 136.264 13.5879 136.172C13.5583 136.079 13.43 135.777 13.3215 135.5C13.0156 134.761 12.7491 133.955 12.5123 132.989C12.3248 132.241 12.2952 131.863 12.2952 129.873C12.2952 127.228 12.3544 126.867 13.3215 123.827C13.4004 123.583 13.5188 123.281 13.7754 122.693C15.7588 118.049 19.1435 114.723 23.8306 112.783C24.4326 112.54 24.995 112.305 25.0838 112.271C25.4095 112.128 27.0673 111.641 27.5903 111.532C27.7975 111.482 28.2415 111.389 28.5672 111.314C29.8796 111.028 31.9617 110.768 32.9189 110.768C33.9254 110.768 34.9417 110.944 35.6226 111.238C36.9942 111.826 38.1981 113.212 38.8296 114.967C38.9185 115.219 39.0566 115.58 39.1257 115.765C39.1947 115.949 39.3329 116.327 39.4217 116.605C39.5204 116.882 39.6585 117.26 39.7177 117.444C39.7868 117.629 39.9151 117.99 40.0039 118.242C40.6256 120.031 41.859 123.524 41.9281 123.701C41.9775 123.818 42.1156 124.196 42.2439 124.54C42.3623 124.885 42.5893 125.489 42.7274 125.884C42.8754 126.279 43.1419 126.993 43.3195 127.48C43.4971 127.967 43.7142 128.571 43.8129 128.823C43.9115 129.075 44.2174 129.907 44.5036 130.671C46.1713 135.239 46.3094 135.592 46.5758 136.062C46.9705 136.776 47.8488 137.305 48.6481 137.305C49.1217 137.305 50.0098 137.037 50.6216 136.717C50.7006 136.675 51.3913 136.331 52.1511 135.962C52.9109 135.592 53.6017 135.248 53.6806 135.206C53.7596 135.155 53.8977 135.097 53.9767 135.063C54.0556 135.029 54.9733 134.584 55.9995 134.072C57.0357 133.56 57.9435 133.115 58.0224 133.081C58.1014 133.048 58.3086 132.947 58.4665 132.863C58.6342 132.77 58.9895 132.594 59.2559 132.476C59.5322 132.351 59.8184 132.199 59.9072 132.132C59.9861 132.065 60.0947 132.015 60.1341 132.015C60.1835 132.015 60.4104 131.897 60.6571 131.763C60.894 131.62 61.111 131.511 61.1308 131.511C61.1703 131.511 63.3116 130.402 64.8312 129.596C69.5875 127.068 71.3834 125.876 74.5608 123.163C77.3534 120.778 79.6624 118.385 83.3332 114.085C85.6028 111.431 86.2541 110.676 86.935 109.886C88.6125 107.955 89.0565 107.325 89.4611 106.317C89.7473 105.595 89.7177 104.1 89.4019 103.378C89.0861 102.647 88.7605 102.135 88.05 101.27C87.7244 100.875 87.2606 100.279 87.0238 99.9431C86.787 99.6072 86.5107 99.2377 86.4219 99.1117C86.3232 98.9858 86.1456 98.717 86.0074 98.5071C85.8791 98.2971 85.4351 97.6421 85.0206 97.0543C84.6062 96.458 84.2707 95.9121 84.2707 95.8282C84.2707 95.677 84.8529 95.1479 85.0305 95.1479C85.2476 95.1479 87.0534 95.9793 87.5566 96.3152C87.8428 96.5 88.7309 97.1802 89.5401 97.8269C93.0925 100.682 93.4674 100.649 94.9673 97.4154C95.1746 96.9787 95.4311 96.4244 95.5397 96.1977C95.7666 95.7526 95.8357 95.593 96.556 93.9722C97.6119 91.5872 98.6283 88.9167 99.2302 86.918C99.5953 85.6919 99.694 85.3392 99.7631 85.0285C99.8025 84.8437 99.9407 84.3315 100.049 83.8948C100.168 83.4581 100.316 82.8702 100.365 82.6015C100.424 82.3244 100.483 82.0808 100.503 82.0473C100.572 81.9549 101.312 77.9071 101.48 76.7566C102.398 70.1643 102.408 64.3361 101.48 57.7354C101.401 57.1308 101.273 56.2994 101.194 55.8879C101.115 55.468 101.026 54.9641 100.997 54.7542C100.908 54.2167 100.681 53.1418 100.493 52.4028C100.089 50.8072 99.4276 49.9506 98.2533 49.5139C97.9671 49.4047 97.3257 49.2787 96.8027 49.22C95.4805 49.0772 78.6461 48.926 74.9456 49.0184ZM74.3042 59.2302C74.7779 59.373 75.1331 59.5745 75.8831 60.1288C76.2383 60.3891 76.6725 60.6915 76.8501 60.8006C77.0277 60.9182 77.1659 61.061 77.1462 61.1365C77.1067 61.3381 75.0641 62.9505 74.6101 63.152C73.9983 63.4124 73.7911 63.3704 73.1497 62.8665C72.4984 62.3542 72.0347 61.6656 72.0347 61.2121C72.0347 60.6663 72.7057 59.7761 73.4457 59.3478C73.8997 59.0875 73.8602 59.0959 74.3042 59.2302ZM66.7949 60.4563C67.6139 61.0694 68.2553 61.6068 68.2257 61.6488C68.1961 61.6908 67.683 62.0519 67.0712 62.4466C65.9956 63.152 65.1568 63.5719 64.8016 63.5719C64.2983 63.5719 62.8576 62.4046 62.8576 62.0015C62.8576 61.6908 63.2523 61.1365 64.1997 60.1288C64.7029 59.5913 65.0384 59.2974 65.147 59.3142C65.2358 59.3226 65.9857 59.8349 66.7949 60.4563ZM83.9352 60.28C84.4088 60.5487 85.8495 61.5732 85.8495 61.6404C85.8495 61.7244 85.6916 61.8588 84.8627 62.4886C83.5602 63.4879 83.1951 63.6307 82.6129 63.3704C81.9518 63.0681 81.113 62.1023 81.113 61.632C81.113 61.0946 82.5438 60.0448 83.2839 60.0448C83.4221 60.0448 83.7082 60.1456 83.9352 60.28ZM92.3918 61.9511C93.4872 63.3956 93.497 63.404 93.497 63.9162C93.497 64.4621 93.3885 64.6217 92.3129 65.6378L91.6419 66.276L91.0597 65.7806C90.0335 64.9324 89.4019 64.143 89.4019 63.7063C89.4019 63.4628 89.8065 62.9421 90.6354 62.1023C91.0005 61.7328 91.3459 61.3633 91.4149 61.2793C91.4741 61.2037 91.5827 61.1365 91.6419 61.1365C91.711 61.1365 92.0563 61.506 92.3918 61.9511ZM57.0949 61.8756C57.5093 62.0687 59.5026 63.6475 59.5026 63.7903C59.5026 63.9246 57.529 65.1339 56.9469 65.3523C56.3745 65.5706 55.9897 65.5034 55.4075 65.0667C54.7759 64.5965 54.4503 64.1262 54.4503 63.7315C54.4602 63.1604 55.3483 62.2115 56.187 61.8588C56.5719 61.6908 56.7199 61.6992 57.0949 61.8756ZM49.9111 65.4111C50.6808 65.9821 51.3124 66.5028 51.3124 66.57C51.3124 66.6959 49.9999 67.7793 49.3881 68.1572C49.1513 68.2915 48.7862 68.4595 48.579 68.5183C48.2237 68.619 48.1448 68.6107 47.76 68.4427C47.2074 68.1992 46.3883 67.5441 46.2206 67.2166C45.9838 66.7295 46.2107 66.3432 47.5922 64.9324C48.0363 64.4873 48.3126 64.269 48.3915 64.3109C48.4606 64.3445 49.1415 64.84 49.9111 65.4111ZM75.9818 74.3128C78.0343 74.5731 79.3664 74.8419 81.3794 75.4045C82.9188 75.8412 83.4221 76.0008 84.468 76.3703C86.1653 76.9749 88.6618 78.0331 89.2342 78.4026C90.0828 78.9316 90.2308 79.5111 89.7078 80.2249C89.2934 80.796 86.856 82.6771 85.3068 83.6093C84.5568 84.0711 82.7313 84.9949 81.9814 85.3056C81.261 85.6079 79.4059 86.2462 79.2677 86.2462C79.1987 86.2462 79.0013 86.2966 78.8237 86.3638C78.1921 86.5905 76.2383 86.9516 74.6496 87.128C73.0806 87.3127 70.0118 87.3127 68.4428 87.1364C66.8047 86.9432 64.92 86.5989 64.2589 86.3638C64.0812 86.2966 63.8839 86.2462 63.8148 86.2462C63.6767 86.2462 61.8215 85.5996 61.1012 85.3056C59.1572 84.4994 56.2561 82.8031 55.6542 82.1144C55.5358 81.9717 55.4075 81.6861 55.3779 81.4846C55.3384 81.1655 55.3779 81.0563 55.6936 80.6616C56.335 79.8722 58.9895 77.9995 60.963 76.9413C61.4071 76.6978 61.8018 76.5047 61.8215 76.5047C61.8413 76.5047 62.0781 76.3955 62.3346 76.2695C63.2622 75.816 65.1864 75.1526 66.6074 74.7999C67.8606 74.4892 69.7059 74.212 71.0972 74.1197C72.1037 74.0525 74.6891 74.1616 75.9818 74.3128ZM53.9471 91.0078C54.2332 91.2765 54.4602 91.5536 54.4404 91.6208C54.401 91.7468 51.7465 94.9968 50.8683 95.9877C50.0394 96.9199 48.954 97.9864 48.5198 98.2887C48.1251 98.5659 46.7929 99.1789 46.5857 99.1789C46.5364 99.1789 46.3587 99.2377 46.191 99.3049C46.0232 99.3721 45.7469 99.4896 45.5792 99.5568C45.4114 99.624 45.2141 99.6828 45.1351 99.6828C44.9871 99.6828 44.9477 99.4309 45.0858 99.2965C45.1253 99.2545 45.4904 98.6918 45.8752 98.0452C46.2699 97.3986 46.8719 96.5252 47.2172 96.1137C48.3323 94.7784 48.5198 94.5685 51.3124 91.604C51.7268 91.1673 52.0722 90.9658 52.9899 90.6299C53.3649 90.4955 53.3747 90.4955 53.9471 91.0078ZM59.1572 93.5355C59.6605 93.905 59.7986 94.115 59.8874 94.6944C60.1835 96.4664 58.8809 98.8934 56.6311 100.733C55.7035 101.488 54.9733 101.933 54.0852 102.261C53.7793 102.37 53.4537 102.496 53.3649 102.546C53.128 102.656 52.8912 102.639 52.8912 102.521C52.8912 102.471 53.0688 102.118 53.276 101.749C53.6708 101.043 54.1148 100.237 54.6674 99.2209C54.8351 98.8934 55.0621 98.4819 55.1608 98.2971C55.2595 98.1124 55.4371 97.7681 55.5555 97.5413C55.6739 97.3062 55.8219 97.0039 55.9009 96.8695C55.9798 96.7267 56.1377 96.4244 56.2561 96.1977C56.8482 95.0472 57.4402 94.0814 57.6475 93.9218C57.9928 93.6447 58.5454 93.3844 58.7625 93.3844C58.8711 93.3844 59.0487 93.4516 59.1572 93.5355ZM66.341 96.9787C66.785 97.7597 66.9034 98.0452 66.9034 98.3643C66.9034 98.7086 66.933 98.7758 67.1501 98.843C67.4363 98.9354 67.456 99.0697 67.2488 99.4057C67.0712 99.6912 66.2127 101.278 66.2127 101.32C66.2127 101.371 65.3443 102.941 64.6141 104.201C64.2293 104.864 63.8247 105.452 63.7063 105.519C63.3708 105.704 62.2458 105.998 62.157 105.922C62.1176 105.889 62.0287 105.586 61.9695 105.267C61.8511 104.638 61.8807 104.47 62.3643 103C62.4827 102.63 62.6405 102.135 62.7096 101.908C63.2326 100.153 64.2786 97.4574 64.6042 97.0375C65.0088 96.5084 65.5318 95.9877 65.6601 95.9877C65.7193 95.9877 66.0252 96.4328 66.341 96.9787ZM79.919 97.155C80.817 97.7765 81.6656 98.8262 82.1294 99.8927C82.3366 100.371 82.5438 101.018 82.7905 101.992C82.9089 102.454 83.0767 103.076 83.1556 103.378C83.2642 103.756 83.3135 104.318 83.3234 105.183C83.3234 106.367 83.3036 106.477 83.0569 106.997C82.6721 107.778 82.2774 108.165 81.8531 108.165C81.3597 108.165 81.4485 108.433 80.5801 104.512C80.5012 104.142 80.3828 103.613 80.3137 103.336C80.2545 103.059 80.1657 102.63 80.1262 102.387C80.0769 102.143 79.9979 101.765 79.9387 101.547C79.8401 101.186 79.7019 100.556 79.2776 98.5911C79.1987 98.1964 79.0605 97.6253 78.9816 97.3146C78.8928 97.0039 78.8631 96.7015 78.8928 96.6596C78.9717 96.5504 79.2381 96.6847 79.919 97.155ZM73.3372 97.6841C73.6628 98.104 73.9293 98.5491 74.1957 99.1285C74.4029 99.5652 74.62 100.8 74.62 101.614C74.6397 103.311 74.1168 104.94 73.1201 106.326C72.6859 106.913 71.7386 107.787 71.6399 107.686C71.3834 107.442 70.9887 105.973 70.8407 104.738C70.6236 102.882 71.0084 100.85 71.9656 98.759C72.4294 97.7429 72.7254 97.2474 72.8635 97.2474C72.9425 97.2474 73.1596 97.449 73.3372 97.6841Z" fill="white" fill-opacity="0.46"/>
<path d="M140.665 121.475C139.945 121.576 139.155 121.727 138.247 121.937C136.826 122.265 133.807 122.769 131.932 122.978C128.972 123.323 127.472 123.398 123.84 123.398C121.156 123.398 119.785 123.365 118.462 123.256C114.89 122.962 111.456 122.508 108.831 121.971C107.026 121.61 104.934 121.601 103.759 121.962C102.22 122.433 101.539 122.895 99.7038 124.759C97.3158 127.169 90.8623 132.829 88.0401 134.996C82.9977 138.85 79.2183 141.454 74.6199 144.208C72.5773 145.434 68.4329 147.744 66.6073 148.676C65.8475 149.062 65.7784 149.096 65.3442 149.331C65.1074 149.465 64.9002 149.566 64.8903 149.566C64.8706 149.566 64.2489 149.868 63.5088 150.238C62.7589 150.608 62.1372 150.91 62.1175 150.91C62.0978 150.91 61.8609 151.019 61.6044 151.145C61.3478 151.279 60.6472 151.607 60.0453 151.876C58.5848 152.531 57.9632 152.875 57.7658 153.144C57.529 153.446 57.5487 154.067 57.8053 154.496C58.2395 155.218 62.1668 159.912 64.2983 162.247C64.5746 162.549 65.0679 163.095 65.4035 163.465C68.1862 166.563 72.3208 170.544 75.8041 173.458C79.0604 176.196 81.0833 177.707 84.912 180.26C86.2047 181.125 89.7867 183.233 91.2076 183.964C91.4741 184.098 91.8096 184.275 91.9477 184.35C92.0957 184.434 92.2832 184.527 92.3622 184.552C92.4411 184.585 92.5793 184.661 92.6582 184.711C92.7371 184.77 93.0036 184.913 93.2503 185.022C93.9015 185.333 94.4048 185.568 95.1251 185.929C97.7894 187.231 101.855 188.893 104.796 189.876C105.092 189.968 105.427 190.086 105.536 190.128C105.644 190.162 106.019 190.279 106.374 190.38C106.73 190.481 107.105 190.598 107.213 190.64C107.628 190.791 109.739 191.354 111.456 191.765C113.39 192.227 116.588 192.79 118.364 192.975C118.798 193.025 119.508 193.101 119.943 193.151C120.377 193.193 121.166 193.26 121.699 193.286C122.222 193.311 122.656 193.369 122.656 193.411C122.656 193.453 123.317 193.487 124.136 193.487C124.975 193.487 125.617 193.453 125.617 193.411C125.617 193.369 125.913 193.311 126.288 193.277C126.653 193.252 127.482 193.176 128.133 193.109C128.784 193.042 129.741 192.95 130.254 192.891C133.175 192.605 135.277 192.328 136.668 192.043C136.915 191.992 137.31 191.925 137.537 191.883C138.188 191.774 140.921 191.11 141.405 190.943C141.543 190.901 141.79 190.833 141.948 190.791C142.313 190.716 143.023 190.497 143.428 190.346C143.596 190.287 143.882 190.187 144.069 190.128C144.503 189.994 146.171 189.406 146.635 189.229C148.372 188.566 151.332 187.247 152.98 186.399C153.345 186.215 153.73 186.013 153.819 185.971C154.223 185.761 154.953 185.358 156.009 184.762C159.325 182.872 161.377 181.554 165.364 178.724C171.275 174.533 176.623 169.385 181.488 163.196C182.208 162.281 182.938 161.34 183.106 161.113C184.083 159.786 184.478 159.224 184.705 158.888C184.833 158.678 185.011 158.451 185.08 158.376C185.159 158.308 185.218 158.224 185.218 158.199C185.218 158.174 185.494 157.746 185.839 157.242C186.185 156.738 186.491 156.268 186.53 156.2C186.57 156.133 186.688 155.957 186.787 155.814C187.181 155.26 188.346 153.387 189.727 151.078C190.754 149.381 190.763 149.348 190.714 148.878C190.625 148.063 190.191 147.5 189.264 147.055C188.849 146.854 186.402 145.829 185.613 145.527C184.774 145.199 181.251 143.688 180.284 143.234C179.929 143.066 179.573 142.907 179.495 142.873C179.416 142.848 178.952 142.63 178.458 142.403C177.975 142.176 177.324 141.874 177.028 141.731C176.485 141.479 171.975 139.203 171.058 138.716C169.686 137.986 168.097 137.087 165.926 135.827C160.312 132.552 154.49 128.504 149.497 124.406C147.809 123.02 147.276 122.651 146.319 122.197C144.711 121.425 142.796 121.181 140.665 121.475ZM156.404 149.524C160.371 149.994 163.203 151.75 164.979 154.806C165.413 155.571 165.463 156.242 165.097 156.562C164.565 157.049 163.272 157.225 159.315 157.334C158.447 157.359 156.276 157.435 154.48 157.502C148.401 157.737 146.586 157.796 144.069 157.88C142.688 157.922 140.754 157.998 139.777 158.048C138.8 158.09 136.688 158.174 135.09 158.216C133.491 158.266 132.05 158.325 131.883 158.342C131.725 158.367 130.126 158.426 128.33 158.476C126.544 158.527 124.788 158.577 124.432 158.594C121.403 158.695 120.179 158.745 117.821 158.846C114.9 158.98 112.364 159.081 107.707 159.266C106.078 159.333 103.878 159.417 102.822 159.467C101.766 159.518 99.4374 159.61 97.6414 159.686C95.8554 159.761 93.122 159.87 91.5728 159.938C85.3659 160.206 84.7837 160.189 84.2607 159.761C83.9746 159.534 83.9548 159.484 83.9943 159.014C84.0437 158.46 84.3397 157.754 85.0304 156.536C86.1554 154.563 87.7737 153.127 89.8064 152.312C91.2965 151.716 92.5201 151.514 95.1745 151.414C96.3191 151.372 98.3322 151.305 99.6643 151.254C101.973 151.162 104.707 151.069 112.838 150.784C114.851 150.717 117.555 150.616 118.857 150.566C120.16 150.524 122.873 150.431 124.876 150.364C131.646 150.146 133.748 150.07 135.879 149.986C137.043 149.944 138.731 149.885 139.629 149.86C140.527 149.835 142.856 149.759 144.809 149.692C151.292 149.457 152.299 149.423 153.838 149.415C154.746 149.407 155.792 149.449 156.404 149.524ZM164.012 163.599C164.574 163.742 165.068 163.885 165.107 163.91C165.147 163.943 165.137 164.103 165.088 164.262C165.038 164.422 164.9 164.892 164.792 165.304C164.673 165.715 164.446 166.261 164.288 166.513C163.302 168.05 160.973 169.738 158.97 170.376C156.374 171.191 156.641 171.166 146.438 171.527C144.405 171.602 141.296 171.711 139.53 171.779C137.764 171.846 135.613 171.921 134.744 171.947C133.876 171.972 132.346 172.03 131.34 172.072C130.333 172.123 128.38 172.198 126.998 172.24C125.617 172.282 123.574 172.358 122.459 172.408C121.344 172.45 118.946 172.551 117.13 172.618C113.558 172.761 110.43 172.929 107.855 173.122C106.957 173.189 105.694 173.29 105.042 173.332C104.391 173.383 103.108 173.483 102.181 173.551C97.7204 173.895 95.5001 173.769 92.5102 172.996C91.3162 172.694 89.4018 171.846 88.3065 171.149C87.3 170.494 86.0961 169.536 85.81 169.133C85.5732 168.823 85.2771 168.184 85.1587 167.756C85.1192 167.613 85.0502 167.428 85.0107 167.344C84.9515 167.227 85.0896 167.143 85.8001 166.857L86.6685 166.521L88.9973 166.404C90.2801 166.337 92.7075 166.228 94.3851 166.152C96.0725 166.076 98.3124 165.984 99.3683 165.934C100.424 165.892 102.605 165.799 104.203 165.732C105.802 165.665 107.983 165.573 109.039 165.531C113.43 165.329 116.864 165.186 119.795 165.06C121.502 164.985 123.722 164.892 124.728 164.842C125.735 164.8 127.551 164.724 128.774 164.682C129.998 164.64 131.754 164.565 132.672 164.514C133.6 164.464 135.346 164.388 136.57 164.346C137.793 164.304 139.658 164.229 140.714 164.178C141.77 164.136 144.04 164.036 145.747 163.969C147.454 163.901 150.168 163.784 151.766 163.717C153.365 163.649 155.743 163.549 157.045 163.498C158.348 163.448 159.433 163.389 159.453 163.372C159.473 163.355 160.282 163.339 161.239 163.339C162.907 163.339 163.035 163.347 164.012 163.599Z" fill="white" fill-opacity="0.46"/>
</svg>
