<svg width="504" height="529" viewBox="0 0 504 529" fill="none" xmlns="http://www.w3.org/2000/svg">
<path d="M236.184 0.465935C236.184 0.580673 235.217 0.741318 234.029 0.833115C226.942 1.31504 216.995 3.05914 210.411 4.9639C205.981 6.27198 198.773 8.7275 197.424 9.43891C196.981 9.6684 195.29 10.4257 194.001 10.9765C193.558 11.1601 192.934 11.4584 192.592 11.619C192.269 11.8026 191.544 12.1469 190.981 12.4223C185.222 15.2679 179.886 18.5725 174.027 23.0246C170.785 25.4801 169.799 26.4669 169.295 27.7521C168.53 29.6798 168.913 30.5977 173.181 37.0234C177.188 43.036 181.9 50.7927 183.833 54.5333C184.095 55.0382 184.678 56.1168 185.142 56.9429C185.605 57.7691 186.209 58.8936 186.491 59.4673C186.772 60.041 187.377 61.1885 187.82 62.0605C188.283 62.9096 188.665 63.644 188.665 63.7128C188.665 63.7587 188.927 64.3095 189.229 64.9062C191.605 69.4959 196.377 80.5343 198.733 86.8911C198.974 87.5107 199.236 88.2451 199.337 88.4975C199.437 88.75 199.719 89.5302 199.941 90.2187C200.182 90.9072 200.464 91.6645 200.565 91.871C200.666 92.1005 200.867 92.6742 201.028 93.1332C201.169 93.6151 201.733 95.2904 202.256 96.8739C203.525 100.66 204.411 103.483 205.397 106.971C205.86 108.555 206.303 110.046 206.404 110.299C206.505 110.551 206.726 111.332 206.887 112.02C207.069 112.709 207.33 113.787 207.512 114.43C207.673 115.049 207.894 115.875 207.995 116.266C209.424 121.888 211.7 123.701 216.17 122.783C216.814 122.668 218.304 122.37 219.472 122.118C232.318 119.501 245.184 119.249 256.722 121.36C258.936 121.773 263.346 122.737 264.373 123.035C266.709 123.747 270.272 124.642 270.756 124.642C271.501 124.619 272.971 123.862 273.454 123.219C274.299 122.095 274.904 120.259 275.548 116.954C275.749 115.944 276.011 114.544 276.172 113.856C276.313 113.168 276.575 111.814 276.756 110.873C276.937 109.932 277.259 108.279 277.481 107.201C278.186 103.781 278.447 102.542 278.89 100.431C279.112 99.2835 279.394 98.0442 279.494 97.6771C279.595 97.2869 279.998 95.5887 280.4 93.8905C281.347 89.9204 283.038 83.9537 283.904 81.6129C284.005 81.3605 284.407 80.2819 284.79 79.2033C285.958 75.9445 288.374 69.4959 288.555 69.1287C288.636 68.9222 288.958 68.142 289.26 67.3846C289.803 65.9389 290.186 64.998 291.515 61.7622C291.958 60.6836 292.683 58.9395 293.126 57.8609C293.569 56.7823 294.938 53.5236 296.186 50.632C297.435 47.7175 299.206 43.5867 300.113 41.4525C301.039 39.2953 302.891 34.958 304.24 31.814C308.046 22.9558 308.428 21.6936 307.764 20.2249C307.482 19.5823 306.254 18.366 305.247 17.7234C304.14 17.012 299.448 14.327 298.482 13.8451C297.918 13.5697 296.871 13.0648 296.166 12.6976C294.837 12.0092 292.199 10.7699 290.951 10.2421C287.85 8.91109 285.354 7.92429 283.4 7.25877C282.736 7.05224 281.951 6.75391 281.669 6.63916C281.387 6.52441 280.662 6.29493 280.058 6.11134C279.454 5.9507 278.105 5.56057 277.058 5.23928C271.823 3.72466 264.755 2.21004 260.044 1.63632C259.057 1.52158 257.426 1.31504 256.42 1.20029C255.433 1.0626 253.641 0.901962 252.453 0.833115C251.245 0.741318 250.278 0.580673 250.278 0.465935C250.278 0.351189 247.298 0.259392 243.231 0.259392C239.164 0.259392 236.184 0.351189 236.184 0.465935Z" fill="#6D6D6D" fill-opacity="0.03"/>
<path d="M314.187 35.5771C312.939 35.9443 311.589 37.4359 310.039 40.1898C306.737 46.0188 304.321 50.838 302.448 55.2212C300.898 58.8472 300.274 60.5683 298.502 66.3514C298.099 67.6824 297.636 69.1282 297.495 69.5642C297.112 70.7805 296.951 71.3772 294.374 80.2354C293.045 84.7793 291.857 88.7953 291.736 89.1855C291.616 89.5527 291.454 90.1723 291.354 90.5624C291.253 90.9296 291.092 91.5492 290.971 91.9393C290.85 92.3065 290.488 93.5457 290.166 94.6932C288.172 101.761 285.877 109.748 284.77 113.58C283.239 118.904 283.098 120.258 283.964 121.107C284.83 121.956 285.716 121.888 290.347 120.625C291.374 120.327 292.099 120.143 295.481 119.248C296.146 119.088 297.515 118.721 298.502 118.445C303.314 117.16 304.603 116.816 306.052 116.357C306.556 116.219 307.281 116.013 307.663 115.921C308.046 115.829 309.818 115.301 311.589 114.773C313.361 114.246 315.133 113.718 315.516 113.626C315.898 113.534 316.684 113.328 317.227 113.167C324.254 111.216 330.657 109.908 337.966 108.921C348.356 107.545 360.276 107.545 370.484 108.921C373.203 109.289 376.867 109.357 377.048 109.013C377.109 108.898 376.746 108.141 376.243 107.315C375.72 106.489 374.894 105.135 374.37 104.263C373.223 102.381 373.183 102.335 370.847 98.5486C369.82 96.8733 368.551 94.8079 368.028 93.9588C366.86 92.0311 364.202 87.7397 362.108 84.3662C351.497 67.2923 337.906 51.8478 323.167 40.1439C317.791 35.8984 316.1 35.0263 314.187 35.5771Z" fill="#6D6D6D" fill-opacity="0.03"/>
<path d="M161.563 43.9996C158.684 46.2027 154.838 49.8286 148.898 55.933C140.039 65.0436 132.448 74.7739 124.716 86.8909C121.172 92.3986 115.696 102.427 113.139 108.004C112.675 109.014 112.232 109.932 112.152 110.069C111.81 110.574 108.246 118.882 107.038 122.003C106.051 124.504 105.91 125.055 105.608 127.028C105.165 129.966 105.205 130.562 105.769 130.723C106.635 130.976 111.024 130.953 112.152 130.7C122.219 128.359 126.267 127.51 131.683 126.615C132.851 126.409 134.703 126.11 135.811 125.927C137.703 125.606 138.549 125.491 143.361 124.894C154.617 123.517 159.771 123.334 183.631 123.425C191.283 123.471 197.766 123.402 198.189 123.288C200.082 122.783 200.545 121.153 199.719 117.918C199.478 117.023 199.176 115.783 199.014 115.164C198.873 114.567 198.692 113.97 198.612 113.833C198.531 113.695 198.41 113.259 198.31 112.846C198.229 112.456 197.686 110.643 197.122 108.807C196.558 106.971 195.954 105.066 195.813 104.561C195.571 103.758 195.289 102.886 194.726 101.349C194.625 101.096 194.404 100.431 194.202 99.857C193.336 97.2638 191.343 91.8479 190.437 89.5759C189.148 86.3172 188.746 85.3763 186.974 81.2685C185.262 77.3442 184.618 75.9214 182.665 71.8824C182.02 70.5055 179.846 66.214 179.403 65.4338C179.302 65.2502 178.839 64.3552 178.376 63.4831C177.913 62.5881 176.242 59.6507 174.671 56.9427C170.362 49.5303 167.443 45.0782 166.013 43.7472C165.268 43.0587 165.026 42.9439 164.06 42.9439C163.094 42.9439 162.812 43.0587 161.563 43.9996Z" fill="#6D6D6D" fill-opacity="0.03"/>
<path d="M350.048 118.01C346 118.171 344.45 118.4 336.758 119.938C335.873 120.121 334.282 120.42 333.235 120.626C330.738 121.085 325.704 122.141 322.161 122.898C321.335 123.082 319.926 123.403 319.04 123.587C317.328 123.954 316.382 124.16 310.583 125.445C304.422 126.822 303.757 126.96 302.972 127.19C302.529 127.327 301.724 127.511 301.16 127.626C299.851 127.878 293.81 129.324 292.461 129.691C285.676 131.55 281.85 135.474 280.783 141.739C280.461 143.575 280.421 145.319 280.421 157.115C280.421 170.655 280.602 175.68 281.387 184.424C282.273 194.2 283.743 203.081 285.817 211.389C286.381 213.661 287.589 217.975 287.85 218.686C288.012 219.1 288.132 219.581 288.132 219.765C288.132 219.949 288.253 220.431 288.414 220.844C288.575 221.257 289.038 222.68 289.441 224.011C289.844 225.342 290.327 226.833 290.488 227.338C290.649 227.843 290.911 228.623 291.052 229.059C291.354 229.954 292.099 232.18 292.884 234.498C293.79 237.252 297.435 247.418 298.2 249.369C298.301 249.621 298.703 250.746 299.106 251.893C299.509 253.018 299.952 254.257 300.113 254.647C300.254 255.014 300.697 256.254 301.099 257.401C301.522 258.526 301.925 259.673 302.026 259.925C302.126 260.178 302.408 260.958 302.63 261.647C302.871 262.335 303.153 263.115 303.254 263.368C303.334 263.62 303.656 264.492 303.938 265.318C304.22 266.145 304.542 267.017 304.643 267.269C306.133 271.17 306.294 271.4 307.543 271.4C308.328 271.4 308.549 271.285 309.274 270.482C309.939 269.748 312.697 264.951 312.697 264.515C312.697 264.332 314.227 261.417 316.805 256.759C318.254 254.119 319.543 251.802 319.644 251.595C319.764 251.389 319.986 250.952 320.167 250.631C320.348 250.31 321.093 249.002 321.838 247.694C322.563 246.409 323.288 245.353 323.449 245.353C324.275 245.353 324.718 245.812 325.141 247.074C325.523 248.199 325.584 248.841 325.584 251.687C325.584 255.06 325.402 256.414 324.557 259.535C324.355 260.316 324.094 261.142 323.993 261.371C323.872 261.578 323.59 262.266 323.328 262.909C322.322 265.433 320.892 267.797 318.536 270.826C315.778 274.383 314.751 276.265 314.288 278.56C313.865 280.602 314.731 283.333 316.885 286.844C327.295 303.827 342.638 321.382 357.659 333.43C360.377 335.611 364.968 339.168 365.894 339.787C369.579 342.289 374.089 345.318 375.116 345.961C376.646 346.924 385.687 352.065 386.995 352.73C387.76 353.098 388.787 353.625 391.123 354.819C392.069 355.301 395.432 356.861 396.358 357.228C396.922 357.458 397.466 357.71 397.566 357.802C397.687 357.894 398.352 358.192 399.076 358.468C399.801 358.766 400.566 359.087 400.788 359.202C401.714 359.684 403.264 360.097 404.13 360.097C406.204 360.097 407.573 358.72 408.6 355.622C408.761 355.117 409.083 354.176 409.305 353.557C409.889 351.858 410.271 350.344 410.634 348.164C410.835 347.085 411.097 345.479 411.258 344.607C411.62 342.541 412.063 339.994 412.587 336.804C412.808 335.404 413.131 333.614 413.272 332.788C413.413 331.962 413.674 330.47 413.855 329.46C414.017 328.451 414.298 326.798 414.46 325.789C415.084 322.186 415.366 320.464 415.788 317.871C416.03 316.425 416.352 314.452 416.513 313.511C417.017 310.596 417.359 308.439 417.701 306.282C417.882 305.135 418.144 303.436 418.305 302.496C418.446 301.555 418.768 299.489 419.01 297.906C420.339 289.346 421.829 286.385 425.473 285.054C427.769 284.205 433.084 284.527 437.434 285.766C439.407 286.34 443.937 288.107 444.924 288.703C445.125 288.818 445.931 289.254 446.696 289.667C452.374 292.673 458.918 298.342 463.67 304.4C471.985 314.98 475.992 325.972 475.992 338.273C475.992 342.312 475.328 348.232 474.583 350.688C474.482 351.009 474.16 352.157 473.878 353.281C473.576 354.383 473.254 355.347 473.153 355.415C473.052 355.484 472.972 355.691 472.972 355.874C472.972 356.448 471.079 360.625 469.851 362.782C464.676 371.824 457.307 377.217 447.602 379.076C444.783 379.603 439.467 379.603 435.118 379.076C433.286 378.846 431.031 378.571 430.084 378.456C429.138 378.341 427.567 378.181 426.561 378.112C425.574 378.043 423.259 377.813 421.426 377.63C419.594 377.423 417.137 377.309 415.99 377.355C414.158 377.423 413.715 377.515 412.688 378.089C411.077 378.984 410.11 380.017 409.144 381.944C408.701 382.816 408.338 383.597 408.338 383.665C408.338 383.757 408.117 384.331 407.855 384.974C407.593 385.616 407.13 386.764 406.828 387.521C406.526 388.278 405.882 389.862 405.399 391.032C404.916 392.202 404.513 393.212 404.513 393.258C404.513 393.304 404.05 394.428 403.506 395.759C401.936 399.523 401.936 401.887 403.506 402.965C403.848 403.218 405.681 403.837 407.593 404.388C409.506 404.916 411.52 405.49 412.063 405.65C412.627 405.834 414.439 406.362 416.09 406.821C417.762 407.28 419.513 407.785 420.017 407.945C420.52 408.106 421.607 408.404 422.433 408.634C423.259 408.84 424.487 409.162 425.151 409.322C430.749 410.768 437.474 411.732 441.964 411.732C444.461 411.732 449.575 411.204 452.132 410.676C463.428 408.404 473.677 402.851 482.637 394.153C484.811 392.042 488.154 388.163 490.228 385.318C491.838 383.115 494.899 378.066 495.966 375.84C497.637 372.352 499.711 367.073 500.456 364.457C500.658 363.769 500.899 362.943 501 362.621C501.362 361.566 502.409 356.999 502.832 354.475C503.758 349.288 504 346.121 504 339.673C504 336.207 503.899 332.558 503.779 331.572C503.678 330.608 503.497 329.047 503.376 328.106C503.094 325.605 502.389 321.864 501.503 318.055C500.235 312.731 497.335 304.79 495 300.269C493.188 296.804 492.402 295.381 491.013 293.201C485.053 283.677 477.764 276.15 468.442 269.862C466.468 268.554 461.696 265.777 459.945 264.951C459.582 264.768 458.978 264.492 458.636 264.309C451.81 260.889 439.588 257.24 430.084 255.795C423.641 254.808 421.849 253.431 420.963 248.795C420.56 246.638 419.574 236.724 419.312 231.928C418.728 221.555 417.117 206.753 415.587 197.849C415.466 197.161 415.245 195.761 415.084 194.751C414.721 192.617 414.258 190.046 413.855 188.096C413.715 187.338 413.392 185.778 413.171 184.653C412.949 183.506 412.527 181.555 412.225 180.293C411.943 179.031 411.661 177.746 411.62 177.425C411.56 177.103 411.278 175.979 411.016 174.9C410.735 173.822 410.473 172.743 410.412 172.491C410.251 171.687 409.526 168.842 409.245 167.901C409.104 167.396 408.52 165.285 407.936 163.196C407.372 161.108 406.808 159.203 406.708 158.951C406.607 158.698 406.305 157.712 406.043 156.771C405.761 155.83 405.338 154.476 405.117 153.787C404.875 153.099 404.614 152.273 404.513 151.951C404.412 151.63 403.969 150.299 403.506 148.968C403.043 147.637 402.6 146.283 402.499 145.962C402.419 145.64 402.258 145.181 402.137 144.929C402.016 144.7 401.593 143.552 401.191 142.428C400.788 141.28 400.345 140.041 400.184 139.674C400.023 139.284 399.66 138.366 399.378 137.608C397.929 133.868 396.459 131.32 394.304 128.888C392.029 126.295 390.841 125.537 387.096 124.298C386.432 124.069 385.566 123.77 385.183 123.61C384.801 123.449 383.895 123.128 383.17 122.921C382.445 122.692 381.458 122.393 380.955 122.21C379.485 121.728 374.894 120.512 372.397 119.961C364.505 118.217 358.424 117.689 350.048 118.01ZM361.424 158.354C362.471 158.997 365.008 161.636 365.028 162.118C365.048 162.462 363.699 164.504 361.504 167.396C361.102 167.947 360.719 168.245 360.498 168.199C360.095 168.107 356.008 162.118 356.008 161.59C355.987 160.901 359.41 157.941 360.216 157.941C360.498 157.941 361.041 158.125 361.424 158.354ZM344.591 160.052C346.141 161.751 346.323 162.049 346.323 162.783C346.323 163.242 346.121 164.068 345.88 164.619C345.276 165.927 342.094 170.999 341.873 170.999C341.369 170.999 338.067 164.94 338.067 163.999C338.067 163.357 338.812 161.957 339.618 161.085C340.604 160.029 342.557 158.17 342.718 158.17C342.799 158.148 343.645 158.997 344.591 160.052ZM326.147 161.016C326.973 161.544 331.423 166.111 331.423 166.409C331.423 166.684 326.51 170.242 325.745 170.517C324.597 170.953 323.53 170.471 321.999 168.819C320.409 167.143 320.026 166.271 320.369 165.078C320.812 163.472 322.724 161.108 323.973 160.603C324.617 160.351 325.322 160.465 326.147 161.016ZM378.901 162.118C379.948 162.691 383.17 165.17 383.411 165.583C383.613 165.927 383.613 167.143 383.411 167.511C383.109 168.038 379.586 170.264 378.579 170.563C377.693 170.815 377.451 170.792 376.646 170.448C376.143 170.219 375.297 169.599 374.773 169.071C374.25 168.543 373.565 167.855 373.263 167.557C372.941 167.258 372.699 166.868 372.699 166.707C372.699 166.34 374.592 163.563 375.659 162.393C376.545 161.406 377.471 161.337 378.901 162.118ZM311.509 169.209C312.999 170.999 314.207 172.582 314.207 172.72C314.207 172.995 312.677 174.418 310.482 176.162C309.556 176.897 309.194 177.057 308.368 177.057C307.502 177.08 307.22 176.966 306.475 176.3C305.348 175.267 304.24 173.386 304.24 172.468C304.24 172.032 304.542 171.251 305.026 170.402C305.932 168.796 308.207 165.95 308.549 165.95C308.69 165.95 310.019 167.419 311.509 169.209ZM355.685 192.892C359.128 193.512 361.645 194.177 363.739 195.003C364.203 195.187 364.666 195.325 364.807 195.325C364.948 195.325 365.451 195.508 365.914 195.738C366.377 195.967 367.162 196.334 367.666 196.564C373.867 199.364 381.519 205.491 382.082 208.107C382.445 209.736 381.7 210.976 378.458 214.005C374.632 217.585 370.364 220.775 366.578 222.84C362.572 225.043 360.357 225.961 355.907 227.223C351.92 228.371 349.303 228.646 343.141 228.532C337.342 228.44 336.336 228.325 332.53 227.315C331.765 227.109 330.758 226.81 330.315 226.65C329.872 226.489 328.926 226.145 328.201 225.892C324.194 224.47 318.597 221.188 314.268 217.769C309.898 214.28 309.818 212.261 313.885 207.717C320.892 199.868 330.758 194.544 341.289 192.915C344.591 192.41 345.155 192.387 349.645 192.456C351.981 192.502 354.518 192.685 355.685 192.892ZM389.391 223.116C390.338 223.368 391.224 223.666 391.324 223.781C391.445 223.873 391.747 224.034 392.029 224.125C392.573 224.309 396.298 226.351 396.962 226.833C401.774 230.322 404.493 232.961 406.708 236.311C408.6 239.157 409.204 241.429 408.54 243.379C408.359 243.93 408.258 243.976 407.211 243.976C405.942 243.976 406.345 244.251 400.727 239.753C398.794 238.239 397.083 236.862 396.902 236.747C396.721 236.609 396.016 236.059 395.311 235.485C394.627 234.911 393.358 233.879 392.512 233.19C391.667 232.502 390.197 231.308 389.291 230.551C384.499 226.627 384.599 226.742 384.297 225.709C383.915 224.424 384.076 223.873 384.962 223.207C385.888 222.496 387.096 222.473 389.391 223.116ZM377.029 237.183C380.935 237.986 383.754 239.799 387.217 243.747C390.136 247.074 392.09 250.654 393.036 254.464C393.519 256.345 393.62 260.958 393.197 260.958C393.056 260.958 391.586 259.237 389.915 257.103C388.264 254.991 386.351 252.605 385.666 251.779C385.002 250.952 383.593 249.208 382.566 247.877C381.539 246.546 379.545 244.022 378.156 242.255C374.874 238.124 374.31 237.344 374.31 237.091C374.31 236.77 375.156 236.816 377.029 237.183ZM365.35 245.697C367.787 247.189 370.062 249.759 372.176 253.385C374.975 258.227 376.525 263.781 376.505 268.99C376.505 271.492 376.223 272.754 375.619 272.846C375.377 272.892 374.673 272.456 373.948 271.836C370.585 268.99 366.639 261.44 364.766 254.303C363.679 250.103 363.337 245.124 364.142 245.124C364.263 245.124 364.827 245.376 365.35 245.697ZM337.02 251.893C339.577 253.362 340.785 258.434 340 264.423C339.175 270.643 337.06 275.714 333.839 279.157C332.369 280.763 331.282 281.543 331.02 281.222C330.939 281.13 330.98 280.212 331.121 279.202C331.664 275.508 332.651 267.108 333.114 262.106C333.295 260.27 333.597 257.562 333.778 256.07C334.081 253.592 334.161 253.293 334.805 252.467C335.55 251.457 336.034 251.343 337.02 251.893ZM350.954 253.775C352.645 254.762 354.92 257.47 355.846 259.627C356.249 260.591 356.591 261.532 356.591 261.693C356.591 261.853 356.712 262.266 356.873 262.61C357.034 262.955 357.216 263.551 357.296 263.964C357.377 264.4 357.518 264.882 357.618 265.089C357.92 265.709 358.424 268.371 358.545 269.908C358.645 271.285 358.504 272.708 358.001 275.508C357.9 276.127 357.719 276.747 357.638 276.885C357.558 277.022 357.276 277.757 357.014 278.514C356.753 279.271 356.41 280.052 356.269 280.258C356.108 280.442 355.987 280.74 355.987 280.878C355.987 281.245 354.981 282.071 354.558 282.071C353.954 282.071 353.37 281.245 353.37 280.419C353.37 280.006 353.249 278.904 353.088 277.94C352.927 276.999 352.645 275.186 352.464 273.924C352.283 272.662 352.001 270.849 351.86 269.908C351.719 268.967 351.538 267.728 351.457 267.154C351.376 266.581 351.195 265.341 351.054 264.4C350.913 263.46 350.632 261.647 350.45 260.384C350.269 259.122 349.987 257.332 349.826 256.414C349.524 254.601 349.464 253.156 349.705 253.156C349.786 253.156 350.35 253.431 350.954 253.775Z" fill="#6D6D6D" fill-opacity="0.03"/>
<path d="M233.969 131.298C232.7 131.389 230.969 131.573 230.143 131.711C229.318 131.848 227.908 132.101 227.022 132.238C218.606 133.615 215.425 134.9 214.297 137.356C213.029 140.133 213.089 142.497 214.74 154.246C216.109 164 216.331 167.281 216.331 177.654C216.351 186.26 216.129 192.617 215.626 198.767C215.525 200.098 215.344 202.255 215.243 203.586C214.841 208.383 213.733 217.424 212.928 222.175C212.767 223.116 212.545 224.516 212.404 225.273C211.72 229.404 211.357 231.4 210.914 233.42C210.753 234.108 210.31 236.219 209.887 238.124C209.485 240.006 209.042 242.025 208.901 242.599C208.76 243.173 208.478 244.297 208.297 245.124C208.095 245.95 207.834 247.028 207.673 247.533C207.532 248.038 207.089 249.69 206.666 251.205C205.76 254.624 204.129 260.178 203.565 261.876C203.323 262.565 203.042 263.46 202.941 263.873C202.84 264.286 202.619 264.905 202.458 265.25C202.297 265.594 202.156 266.007 202.156 266.168C202.156 266.328 202.015 266.833 201.833 267.315C201.33 268.6 201.229 268.921 200.484 271.056C197.847 278.606 193.86 288.313 190.82 294.578C190.276 295.703 189.591 297.103 189.33 297.676C188.907 298.525 188.001 300.293 185.544 304.974C185.423 305.181 184.86 306.19 184.296 307.2C183.35 308.852 182.826 309.724 180.712 313.304C180.108 314.314 176.322 320.12 174.732 322.484C170 329.46 161.161 340.132 154.939 346.351C147.368 353.901 139.576 360.533 132.428 365.536C131.562 366.133 130.636 366.798 130.374 366.982C130.113 367.165 129.227 367.762 128.421 368.313C127.616 368.864 126.81 369.391 126.649 369.529C126.488 369.644 126.206 369.804 126.045 369.896C125.884 369.988 125.3 370.332 124.777 370.699C124.233 371.044 123.206 371.709 122.461 372.168C121.716 372.627 120.669 373.293 120.105 373.637C119.562 373.981 118.394 374.693 117.548 375.22C113.501 377.653 112.776 378.112 111.548 378.869C110.823 379.305 109.595 380.04 108.83 380.522C104.742 382.977 101.742 384.836 100.776 385.524C98.0575 387.429 97.8361 389.058 99.8294 392.57C100.333 393.442 101.219 395.025 101.803 396.058C103.454 398.949 105.085 401.841 105.87 403.241C109.414 409.575 110.159 410.837 110.863 411.732C111.649 412.696 112.575 413.017 113.864 412.742C114.347 412.65 117.629 410.286 123.77 405.628C128.824 401.795 132.972 398.651 132.992 398.651C133.133 398.651 152.704 383.666 156.751 380.453C168.631 371.067 178.034 360.946 189.511 345.18C191.162 342.931 195.31 336.62 198.229 331.985C201.109 327.395 203.283 324.182 204.008 323.494C206.303 321.268 208.397 320.579 211.559 321.084C212.646 321.245 213.753 321.474 214.035 321.589C214.317 321.704 214.901 321.887 215.344 322.002C215.787 322.094 216.874 322.415 217.76 322.691C218.646 322.966 220.237 323.425 221.284 323.723C222.331 324.022 223.599 324.389 224.103 324.549C227.345 325.467 234.432 327.005 238.399 327.602C245.084 328.634 246.473 328.749 254.003 328.749C262.822 328.749 265.823 328.451 273.534 326.684C277.3 325.835 278.628 325.467 282.394 324.159C282.958 323.976 283.682 323.723 284.005 323.608C284.347 323.517 285.515 323.035 286.622 322.576C287.73 322.094 288.998 321.566 289.441 321.382C289.884 321.199 290.367 320.923 290.528 320.786C290.669 320.625 291.434 320.533 292.26 320.533C293.689 320.556 294.193 320.717 295.945 321.727C297.072 322.392 308.912 333.844 317.529 342.656C322.764 348.003 326.973 352.042 332.147 356.77C337.221 361.382 339.034 362.943 346.343 368.978C348.215 370.539 356.632 376.873 359.41 378.846C362.712 381.187 366.82 383.964 366.961 383.964C367.001 383.964 367.565 384.308 368.209 384.744C368.854 385.18 370.062 385.937 370.887 386.465C372.558 387.498 382.807 393.304 384.076 393.924C384.519 394.153 385.163 394.474 385.485 394.635C389.673 396.815 390.881 397.274 392.613 397.274C393.881 397.274 394.083 397.205 394.868 396.54C395.935 395.599 396.277 394.887 397.727 390.734C398.009 389.931 402.076 380.728 402.298 380.407C402.64 379.879 403.687 376.574 403.828 375.588C404.17 372.857 402.479 370.929 396.257 367.051C395.653 366.66 394.344 365.834 393.338 365.215C392.351 364.572 390.901 363.677 390.116 363.195C389.351 362.713 388.626 362.254 388.505 362.162C388.405 362.071 387.68 361.612 386.895 361.13C384.217 359.5 382.867 358.651 382.666 358.491C382.565 358.399 381.841 357.94 381.055 357.458C378.518 355.92 377.048 354.98 376.324 354.475C375.941 354.199 374.995 353.58 374.209 353.098C372.458 352.019 363.155 345.708 361.524 344.469C360.86 343.987 360.175 343.505 360.014 343.413C358.826 342.771 350.45 336.07 346.02 332.237C342.356 329.047 342.336 329.024 337.765 324.618C322.483 309.908 308.61 290.998 298.159 270.597C295.965 266.328 292.159 258.067 290.669 254.303C290.327 253.477 289.803 252.192 289.501 251.435C289.179 250.677 288.414 248.704 287.81 247.074C287.206 245.422 286.622 243.884 286.521 243.632C286.34 243.173 285.716 241.406 285.213 239.845C285.052 239.409 284.669 238.239 284.327 237.229C283.984 236.242 283.702 235.324 283.702 235.21C283.702 235.072 283.562 234.659 283.4 234.269C282.434 231.882 279.494 220.775 277.964 213.684C276.675 207.717 276.071 204.435 274.964 197.161C273.111 185.181 272.226 170.471 272.226 151.951C272.246 142.015 272.125 141.211 270.434 138.664C268.944 136.369 267.131 135.291 262.661 133.983C259.581 133.065 257.95 132.697 252.795 131.756C249.372 131.114 239.848 130.884 233.969 131.298ZM247.258 203.77C248.084 204.481 248.99 205.491 249.292 205.996C249.896 206.983 250.399 209.278 250.983 213.454C251.285 215.68 251.486 216.759 252.211 219.765C252.976 223.07 253.379 224.676 253.601 225.502C253.742 226.007 254.003 227.04 254.205 227.797C254.386 228.555 254.668 229.587 254.809 230.092C254.95 230.597 255.413 232.249 255.815 233.764C256.218 235.279 256.641 236.747 256.722 237C256.822 237.275 257.265 238.767 257.728 240.327C258.191 241.888 258.695 243.494 258.856 243.907C259.017 244.297 259.138 244.733 259.138 244.871C259.138 245.009 259.279 245.445 259.42 245.858C259.581 246.271 260.004 247.487 260.366 248.566C261.051 250.654 262.218 253.982 262.641 255.106C262.802 255.473 263.427 257.195 264.071 258.893C266.729 265.984 271.843 277.688 274.742 283.264C276.172 286.018 277.058 288.52 277.058 289.805C277.058 291.457 275.85 293.155 274.038 294.073C273.273 294.464 270.534 295.496 268.098 296.299C267.776 296.414 266.87 296.713 266.084 296.988C265.319 297.24 264.232 297.608 263.668 297.768C263.124 297.952 261.856 298.342 260.849 298.686C259.863 299.007 258.493 299.443 257.829 299.65C257.165 299.856 256.218 300.155 255.715 300.338C255.211 300.499 254.124 300.866 253.299 301.119C252.473 301.394 251.346 301.738 250.782 301.922C248.728 302.587 248.748 302.587 245.99 301.578C244.52 301.05 243.01 300.476 242.627 300.315C242.244 300.155 239.063 298.961 235.58 297.653C232.096 296.345 229.096 295.221 228.935 295.106C228.774 295.014 227.908 294.67 227.022 294.349C224.707 293.477 223.74 292.765 223.277 291.641C222.653 290.034 222.734 289.3 224.405 282.645C224.687 281.497 225.049 280.006 225.23 279.317C225.391 278.629 225.673 277.527 225.834 276.908C226.378 274.796 227.163 271.652 227.425 270.482C227.727 269.151 228.573 265.686 229.62 261.532C229.781 260.889 230.244 258.985 230.647 257.286C231.049 255.588 231.492 253.729 231.653 253.156C231.794 252.582 232.056 251.457 232.257 250.631C232.459 249.805 232.721 248.681 232.862 248.107C233.002 247.533 233.305 246.248 233.546 245.238C234.19 242.507 234.553 241.016 234.895 239.616C235.076 238.927 235.338 237.826 235.479 237.206C235.64 236.564 235.902 235.485 236.063 234.797C236.828 231.63 237.654 228.187 237.795 227.568C237.875 227.178 238.157 226.053 238.399 225.043C239.808 219.237 240.332 216.759 240.714 214.257C241.419 209.599 241.842 207.442 242.224 206.501C242.748 205.284 244.963 202.439 245.406 202.439C245.607 202.439 246.433 203.035 247.258 203.77Z" fill="#6D6D6D" fill-opacity="0.03"/>
<path d="M152.926 134.212C147.65 134.372 137.482 135.864 129.368 137.631C127.777 137.998 127.012 138.159 123.126 139.1C120.287 139.788 115.132 141.188 112.958 141.877C112.454 142.014 111.729 142.221 111.347 142.336C110.964 142.427 109.373 142.886 107.823 143.345C106.273 143.804 104.561 144.332 103.997 144.493C103.454 144.653 102.266 145.021 101.38 145.296C100.494 145.571 99.2858 145.939 98.722 146.122C97.2925 146.558 95.7622 147.04 94.534 147.453C90.8291 148.715 88.6344 150.62 87.386 153.672C86.8625 154.957 86.6209 155.967 85.5537 161.131C85.3323 162.209 85.0705 163.449 84.9698 163.885C84.8691 164.321 84.5873 165.606 84.3658 166.753C84.1241 167.878 83.8221 169.392 83.661 170.081C83.2583 171.825 81.7079 179.214 80.4394 185.342C79.2917 190.964 77.8622 199.432 77.238 204.274C75.9292 214.556 75.1641 224.928 74.6003 240.075C73.5533 268.967 73.6137 267.705 73.1103 269.564C72.6673 271.331 71.8418 272.616 70.6941 273.442C69.2846 274.452 66.6469 275.117 58.0896 276.563C53.2571 277.389 52.2101 277.619 49.4315 278.399C48.2234 278.743 44.3575 280.166 43.7937 280.464C43.5722 280.579 42.8876 280.9 42.2836 281.176C39.9479 282.232 34.1289 285.605 33.404 286.339C33.2429 286.523 33.0214 286.661 32.961 286.661C32.8805 286.661 32.216 287.143 31.4509 287.739C30.7059 288.336 29.8401 289.024 29.4978 289.277C26.2762 291.824 20.6988 297.653 17.4973 301.807C15.9872 303.78 13.3697 307.636 12.0005 309.908C9.82589 313.58 6.84591 319.776 5.517 323.493C5.23511 324.251 4.93308 325.077 4.81227 325.329C4.08741 327.051 2.53701 332.673 1.91283 335.886C1.06716 340.246 0.644321 343.046 0.483241 345.341C0.422836 346.396 0.28189 347.245 0.181215 347.245C0.0805401 347.245 0 350.045 0 353.671C0 357.228 0.0805401 360.097 0.181215 360.097C0.28189 360.097 0.422836 360.992 0.483241 362.093C0.765131 366.018 1.67121 371.342 3.08066 377.308C3.78539 380.223 5.75862 386.557 6.84591 389.357C7.02712 389.861 7.34929 390.688 7.55064 391.192C10.289 398.33 14.4972 405.398 19.0075 410.446C26.3165 418.593 37.1894 424.95 48.5254 427.658C52.8947 428.691 54.2639 428.828 61.0091 428.828C66.7275 428.806 67.8953 428.737 70.3719 428.301C75.003 427.475 80.077 426.235 81.9496 425.501C82.2315 425.386 83.1375 425.088 83.9631 424.812C84.7886 424.537 86.1175 424.055 86.8826 423.734C87.6679 423.436 88.574 423.091 88.8961 422.977C89.6613 422.724 90.7284 422.265 92.6211 421.393C93.4467 421.003 94.1917 420.682 94.2722 420.682C94.3729 420.682 95.0373 420.36 95.7823 419.97C96.5475 419.603 97.4334 419.144 97.7556 418.983C101.561 417.102 102.487 416.184 102.487 414.348C102.487 413.177 102.044 412.007 100.695 409.551C99.8697 408.037 98.9234 406.27 97.0307 402.782C96.93 402.598 95.9837 400.739 94.9165 398.651C92.6413 394.222 91.7151 392.753 90.5472 391.858C89.7418 391.215 89.6009 391.192 87.4867 391.215C86.2786 391.238 84.9094 391.353 84.4664 391.514C84.0235 391.674 83.2181 391.881 82.6543 391.996C82.1106 392.11 80.8421 392.409 79.8354 392.661C70.4927 394.933 63.6871 396.126 54.7673 397.067C51.6061 397.389 49.0691 397.067 46.0488 395.874C45.0018 395.484 44.6192 395.277 43.693 394.727C43.5319 394.612 42.9883 394.313 42.4849 394.015C41.9413 393.694 40.2701 391.996 38.2364 389.701C33.7866 384.652 31.7127 381.462 29.1958 375.817C28.4508 374.164 27.8065 372.627 27.7259 372.374C27.6655 372.122 27.4038 371.296 27.1823 370.539C26.5581 368.519 26.0145 366.316 25.5312 363.677C25.1487 361.634 25.0882 360.602 25.0882 355.163C25.0882 347.934 25.2091 346.947 27.1823 338.64C27.3434 337.974 27.585 337.148 28.1085 335.542C32.1556 322.851 39.062 313.763 48.6261 308.462C49.8543 307.797 51.002 307.154 51.1832 307.062C51.8477 306.672 55.2304 305.341 56.2975 305.043C56.7204 304.905 57.6264 304.653 58.2909 304.446C60.9689 303.666 65.2174 302.954 67.1705 302.954C69.2242 302.954 71.2981 303.436 72.6875 304.239C75.4862 305.846 77.9427 309.632 79.2313 314.429C79.4126 315.117 79.6944 316.104 79.8354 316.609C79.9763 317.114 80.2582 318.146 80.4394 318.904C80.6408 319.661 80.9227 320.694 81.0435 321.199C81.1844 321.703 81.4462 322.69 81.6274 323.379C82.8959 328.267 85.4128 337.814 85.5537 338.295C85.6544 338.617 85.9363 339.649 86.1981 340.59C86.4397 341.531 86.9028 343.184 87.1847 344.262C87.4867 345.341 88.0303 347.291 88.3928 348.622C88.7552 349.953 89.1982 351.606 89.3995 352.294C89.6009 352.983 90.2251 355.255 90.809 357.343C94.2118 369.827 94.4937 370.791 95.0373 372.076C95.8427 374.027 97.6348 375.473 99.2657 375.473C100.232 375.473 102.044 374.738 103.293 373.866C103.454 373.751 104.863 372.81 106.414 371.801C107.964 370.791 109.373 369.85 109.535 369.735C109.696 369.598 109.978 369.437 110.139 369.345C110.3 369.253 112.172 368.037 114.266 366.637C116.38 365.237 118.233 364.021 118.394 363.929C118.555 363.837 118.978 363.562 119.3 363.333C119.642 363.08 120.367 362.598 120.911 362.277C121.475 361.933 122.059 361.52 122.24 361.336C122.401 361.152 122.622 361.015 122.703 361.015C122.804 361.015 123.267 360.693 123.77 360.326C124.253 359.936 124.696 359.638 124.737 359.638C124.817 359.638 129.186 356.609 132.287 354.406C141.992 347.498 145.657 344.239 152.14 336.827C157.838 330.309 162.55 323.769 170.04 312.019C174.671 304.767 176 302.702 177.39 300.545C180.813 295.266 181.719 293.545 182.544 290.791C183.128 288.818 183.068 284.733 182.423 282.759C181.779 280.763 181.115 279.363 179.665 276.999C179 275.921 178.054 274.291 177.571 273.373C177.088 272.455 176.524 271.446 176.343 271.101C176.141 270.757 175.779 270.023 175.497 269.449C175.235 268.875 174.329 267.085 173.483 265.479C172.638 263.85 171.953 262.358 171.953 262.128C171.953 261.715 173.141 260.27 173.504 260.27C173.947 260.27 177.631 262.541 178.658 263.459C179.242 263.964 181.054 265.823 182.705 267.59C189.954 275.393 190.719 275.301 193.78 266.466C194.202 265.272 194.726 263.758 194.947 263.138C195.41 261.922 195.551 261.486 197.021 257.057C199.176 250.539 201.25 243.242 202.478 237.78C203.223 234.429 203.424 233.465 203.565 232.616C203.646 232.111 203.928 230.711 204.149 229.518C204.391 228.325 204.693 226.718 204.793 225.984C204.914 225.227 205.035 224.561 205.075 224.469C205.216 224.217 206.726 213.156 207.069 210.012C208.941 191.997 208.961 176.07 207.069 158.033C206.908 156.38 206.646 154.108 206.485 152.984C206.324 151.836 206.142 150.46 206.082 149.886C205.901 148.417 205.438 145.48 205.055 143.46C204.23 139.1 202.881 136.759 200.484 135.566C199.901 135.267 198.592 134.923 197.525 134.763C194.827 134.372 160.476 133.959 152.926 134.212ZM151.617 162.117C152.583 162.508 153.308 163.058 154.838 164.573C155.563 165.284 156.449 166.111 156.812 166.409C157.174 166.73 157.456 167.12 157.416 167.327C157.335 167.878 153.167 172.284 152.241 172.835C150.993 173.546 150.57 173.431 149.261 172.054C147.932 170.654 146.986 168.773 146.986 167.533C146.986 166.042 148.355 163.609 149.865 162.439C150.791 161.727 150.711 161.75 151.617 162.117ZM136.294 165.468C137.965 167.143 139.274 168.612 139.214 168.727C139.153 168.841 138.106 169.828 136.858 170.907C134.663 172.835 132.952 173.982 132.227 173.982C131.2 173.982 128.26 170.792 128.26 169.691C128.26 168.841 129.066 167.327 130.998 164.573C132.025 163.104 132.71 162.301 132.931 162.347C133.113 162.37 134.643 163.77 136.294 165.468ZM171.269 164.986C172.235 165.72 175.175 168.52 175.175 168.704C175.175 168.933 174.853 169.3 173.161 171.022C170.503 173.753 169.758 174.143 168.57 173.431C167.221 172.605 165.51 169.966 165.51 168.681C165.51 167.212 168.43 164.344 169.94 164.344C170.222 164.344 170.805 164.619 171.269 164.986ZM188.524 169.553C190.759 173.5 190.779 173.523 190.779 174.923C190.779 176.415 190.558 176.851 188.363 179.627L186.994 181.372L185.806 180.018C183.712 177.7 182.423 175.543 182.423 174.349C182.423 173.684 183.249 172.261 184.94 169.966C185.685 168.956 186.39 167.947 186.531 167.717C186.652 167.51 186.873 167.327 186.994 167.327C187.135 167.327 187.84 168.337 188.524 169.553ZM116.501 169.346C117.347 169.874 121.414 174.189 121.414 174.579C121.414 174.946 117.387 178.251 116.199 178.847C115.031 179.444 114.246 179.26 113.058 178.067C111.77 176.782 111.105 175.497 111.105 174.418C111.125 172.858 112.937 170.264 114.649 169.3C115.434 168.841 115.736 168.864 116.501 169.346ZM101.843 179.008C103.414 180.568 104.702 181.991 104.702 182.175C104.702 182.519 102.024 185.479 100.776 186.512C100.293 186.879 99.5476 187.338 99.1247 187.499C98.3999 187.774 98.2388 187.751 97.4535 187.292C96.326 186.627 94.6548 184.837 94.3125 183.942C93.8292 182.611 94.2923 181.555 97.1112 177.7C98.0173 176.483 98.5811 175.887 98.7422 176.002C98.8831 176.093 100.272 177.447 101.843 179.008ZM155.04 203.334C159.228 204.045 161.946 204.779 166.054 206.317C169.195 207.51 170.222 207.946 172.356 208.956C175.819 210.608 180.913 213.5 182.081 214.51C183.813 215.955 184.115 217.539 183.048 219.49C182.202 221.05 177.229 226.191 174.067 228.738C172.537 230 168.812 232.524 167.282 233.374C165.812 234.2 162.027 235.944 161.745 235.944C161.604 235.944 161.201 236.081 160.839 236.265C159.55 236.885 155.563 237.872 152.321 238.353C149.12 238.858 142.858 238.858 139.657 238.376C136.314 237.849 132.468 236.908 131.119 236.265C130.757 236.081 130.354 235.944 130.213 235.944C129.931 235.944 126.146 234.177 124.676 233.374C120.709 231.17 114.79 226.535 113.562 224.653C113.32 224.263 113.058 223.483 112.998 222.932C112.917 222.06 112.998 221.761 113.642 220.683C114.951 218.526 120.367 213.408 124.394 210.517C125.3 209.851 126.106 209.323 126.146 209.323C126.186 209.323 126.669 209.025 127.193 208.681C129.086 207.441 133.012 205.628 135.911 204.665C138.469 203.815 142.234 203.058 145.073 202.806C147.127 202.622 152.402 202.92 155.04 203.334ZM110.078 248.956C110.662 249.69 111.125 250.447 111.085 250.631C111.004 250.975 105.588 259.856 103.796 262.564C102.105 265.112 99.8899 268.026 99.0039 268.852C98.1985 269.61 95.4803 271.285 95.0575 271.285C94.9568 271.285 94.5944 271.446 94.2521 271.629C93.9098 271.813 93.346 272.134 93.0037 272.318C92.6614 272.501 92.2587 272.662 92.0976 272.662C91.7956 272.662 91.7151 271.973 91.9969 271.606C92.0775 271.492 92.8225 269.954 93.6077 268.187C94.4131 266.42 95.6414 264.033 96.3461 262.909C98.6214 259.26 99.0039 258.686 104.702 250.585C105.548 249.392 106.253 248.841 108.125 247.923C108.89 247.556 108.91 247.556 110.078 248.956ZM120.709 255.863C121.736 256.873 122.018 257.447 122.199 259.03C122.804 263.872 120.146 270.505 115.555 275.53C113.662 277.596 112.172 278.812 110.36 279.707C109.736 280.006 109.071 280.35 108.89 280.487C108.407 280.786 107.924 280.74 107.924 280.419C107.924 280.281 108.286 279.317 108.709 278.307C109.514 276.38 110.42 274.176 111.548 271.4C111.89 270.505 112.353 269.38 112.555 268.875C112.756 268.37 113.119 267.43 113.36 266.81C113.602 266.167 113.904 265.341 114.065 264.974C114.226 264.584 114.548 263.758 114.79 263.138C115.998 259.994 117.206 257.355 117.629 256.919C118.334 256.162 119.461 255.45 119.904 255.45C120.126 255.45 120.488 255.634 120.709 255.863ZM135.368 265.272C136.274 267.407 136.515 268.187 136.515 269.059C136.515 270 136.576 270.183 137.019 270.367C137.603 270.619 137.643 270.987 137.22 271.905C136.858 272.685 135.106 277.022 135.106 277.137C135.106 277.275 133.334 281.566 131.844 285.008C131.059 286.821 130.233 288.428 129.992 288.611C129.307 289.116 127.012 289.919 126.831 289.713C126.75 289.621 126.569 288.795 126.448 287.923C126.206 286.202 126.267 285.743 127.253 281.727C127.495 280.717 127.817 279.363 127.958 278.743C129.025 273.947 131.16 266.58 131.824 265.433C132.65 263.987 133.717 262.564 133.978 262.564C134.099 262.564 134.723 263.781 135.368 265.272ZM163.074 265.754C164.906 267.452 166.637 270.321 167.584 273.236C168.007 274.544 168.43 276.311 168.933 278.973C169.175 280.235 169.517 281.933 169.678 282.759C169.899 283.792 170 285.33 170.02 287.693C170.02 290.929 169.98 291.227 169.477 292.65C168.691 294.785 167.886 295.84 167.02 295.84C166.013 295.84 166.195 296.575 164.423 285.857C164.262 284.848 164.02 283.402 163.879 282.645C163.758 281.887 163.577 280.717 163.496 280.051C163.396 279.386 163.235 278.353 163.114 277.757C162.913 276.77 162.631 275.049 161.765 269.679C161.604 268.6 161.322 267.039 161.161 266.19C160.98 265.341 160.919 264.515 160.98 264.4C161.141 264.102 161.684 264.469 163.074 265.754ZM149.644 267.2C150.308 268.348 150.852 269.564 151.395 271.147C151.818 272.341 152.261 275.714 152.261 277.94C152.301 282.576 151.234 287.028 149.201 290.814C148.315 292.421 146.382 294.807 146.18 294.532C145.657 293.867 144.851 289.851 144.549 286.477C144.106 281.405 144.892 275.852 146.845 270.138C147.791 267.361 148.395 266.007 148.677 266.007C148.838 266.007 149.281 266.557 149.644 267.2Z" fill="#6D6D6D" fill-opacity="0.03"/>
<path d="M287.025 332.214C285.555 332.489 283.944 332.902 282.092 333.476C279.192 334.371 273.031 335.748 269.205 336.322C263.165 337.263 260.104 337.469 252.695 337.469C247.218 337.469 244.419 337.377 241.721 337.079C234.432 336.276 227.425 335.037 222.069 333.568C218.385 332.581 214.116 332.558 211.72 333.545C208.579 334.83 207.189 336.092 203.444 341.187C198.572 347.773 185.403 363.241 179.645 369.162C169.356 379.695 161.644 386.809 152.261 394.336C148.093 397.687 139.636 403.998 135.911 406.545C134.361 407.601 134.22 407.693 133.334 408.335C132.851 408.702 132.428 408.978 132.408 408.978C132.368 408.978 131.099 409.804 129.589 410.814C128.059 411.823 126.79 412.65 126.75 412.65C126.71 412.65 126.227 412.948 125.703 413.292C125.179 413.659 123.75 414.554 122.522 415.289C119.542 417.079 118.273 418.02 117.87 418.754C117.387 419.58 117.428 421.278 117.951 422.449C118.837 424.422 126.851 437.251 131.2 443.63C131.764 444.457 132.77 445.948 133.455 446.958C139.133 455.426 147.57 466.304 154.677 474.267C161.322 481.748 165.45 485.879 173.262 492.856C175.9 495.219 183.209 500.98 186.108 502.976C186.652 503.343 187.336 503.825 187.618 504.032C187.92 504.261 188.303 504.514 188.464 504.582C188.625 504.674 188.907 504.881 189.068 505.019C189.229 505.179 189.773 505.569 190.276 505.868C191.605 506.717 192.632 507.359 194.102 508.346C199.538 511.903 207.834 516.447 213.834 519.132C214.438 519.384 215.123 519.706 215.344 519.82C215.566 519.912 216.331 520.234 217.056 520.509C217.78 520.784 218.546 521.106 218.767 521.22C219.613 521.633 223.922 523.171 227.425 524.295C231.372 525.558 237.895 527.095 241.52 527.6C242.406 527.738 243.855 527.944 244.741 528.082C245.627 528.197 247.238 528.38 248.325 528.449C249.392 528.518 250.278 528.679 250.278 528.793C250.278 528.908 251.627 529 253.299 529C255.01 529 256.319 528.908 256.319 528.793C256.319 528.679 256.923 528.518 257.688 528.426C258.433 528.357 260.124 528.151 261.453 527.967C262.782 527.784 264.735 527.531 265.782 527.371C271.742 526.59 276.031 525.833 278.87 525.053C279.374 524.915 280.179 524.732 280.642 524.617C281.971 524.318 287.548 522.505 288.535 522.047C288.817 521.932 289.32 521.748 289.642 521.633C290.387 521.427 291.837 520.83 292.663 520.417C293.005 520.257 293.589 519.981 293.971 519.82C294.857 519.453 298.26 517.847 299.207 517.365C302.75 515.552 308.791 511.949 312.153 509.631C312.898 509.126 313.684 508.576 313.865 508.461C314.69 507.887 316.18 506.786 318.335 505.156C325.1 499.993 329.288 496.39 337.423 488.656C349.484 477.205 360.397 463.137 370.323 446.224C371.793 443.722 373.283 441.152 373.626 440.532C375.619 436.906 376.424 435.369 376.887 434.451C377.149 433.877 377.512 433.258 377.653 433.051C377.814 432.867 377.934 432.638 377.934 432.569C377.934 432.5 378.498 431.33 379.203 429.953C379.908 428.576 380.532 427.291 380.612 427.107C380.693 426.924 380.935 426.442 381.136 426.052C381.941 424.537 384.317 419.419 387.136 413.109C389.23 408.473 389.25 408.381 389.15 407.096C388.968 404.87 388.083 403.332 386.19 402.116C385.344 401.565 380.351 398.766 378.74 397.939C377.028 397.044 369.84 392.914 367.867 391.674C367.142 391.215 366.417 390.779 366.256 390.688C366.095 390.619 365.149 390.022 364.142 389.402C363.155 388.783 361.826 387.957 361.222 387.567C360.115 386.878 350.913 380.659 349.041 379.328C346.242 377.331 343 374.876 338.571 371.434C327.114 362.483 315.234 351.422 305.046 340.223C301.603 336.437 300.515 335.427 298.562 334.188C295.28 332.076 291.374 331.411 287.025 332.214ZM319.14 408.863C327.234 410.148 333.013 414.944 336.638 423.298C337.523 425.386 337.624 427.222 336.879 428.094C335.792 429.425 333.154 429.907 325.08 430.205C323.308 430.274 318.878 430.481 315.214 430.664C302.811 431.307 299.106 431.468 293.971 431.697C291.153 431.812 287.206 432.018 285.213 432.156C283.219 432.271 278.91 432.5 275.649 432.615C272.387 432.753 269.447 432.913 269.105 432.959C268.783 433.028 265.521 433.189 261.856 433.326C258.212 433.464 254.628 433.602 253.903 433.648C247.721 433.923 245.225 434.061 240.412 434.336C234.452 434.703 229.278 434.979 219.774 435.484C216.452 435.667 211.961 435.897 209.807 436.034C207.653 436.172 202.901 436.425 199.236 436.631C195.592 436.838 190.014 437.136 186.853 437.32C174.188 438.054 173 438.008 171.933 436.838C171.349 436.218 171.309 436.08 171.389 434.795C171.49 433.281 172.094 431.353 173.504 428.025C175.799 422.632 179.101 418.708 183.249 416.482C186.289 414.853 188.786 414.302 194.202 414.026C196.538 413.912 200.646 413.728 203.364 413.59C208.075 413.338 213.653 413.086 230.244 412.305C234.352 412.122 239.869 411.846 242.526 411.709C245.184 411.594 250.721 411.341 254.809 411.158C268.621 410.561 272.91 410.355 277.259 410.125C279.635 410.01 283.078 409.85 284.911 409.781C286.743 409.712 291.495 409.506 295.482 409.322C308.71 408.679 310.764 408.588 313.905 408.565C315.758 408.542 317.892 408.656 319.14 408.863ZM334.664 447.325C335.812 447.715 336.819 448.105 336.899 448.174C336.98 448.266 336.96 448.702 336.859 449.138C336.758 449.574 336.476 450.859 336.255 451.984C336.013 453.108 335.55 454.6 335.228 455.288C333.215 459.488 328.463 464.101 324.375 465.845C319.08 468.071 319.623 468.002 298.804 468.989C294.656 469.195 288.313 469.494 284.709 469.677C281.105 469.861 276.716 470.067 274.944 470.136C273.172 470.205 270.051 470.366 267.997 470.481C265.943 470.618 261.957 470.825 259.138 470.94C256.319 471.054 252.151 471.261 249.876 471.399C247.6 471.513 242.708 471.789 239.003 471.972C231.714 472.362 225.331 472.821 220.076 473.349C218.244 473.533 215.666 473.808 214.337 473.923C213.008 474.061 210.391 474.336 208.498 474.52C199.397 475.46 194.867 475.116 188.766 473.005C186.33 472.179 182.423 469.861 180.188 467.956C178.135 466.166 175.678 463.55 175.094 462.448C174.611 461.599 174.007 459.855 173.765 458.685C173.685 458.295 173.544 457.79 173.463 457.56C173.342 457.239 173.624 457.01 175.074 456.229L176.846 455.311L181.598 454.99C184.215 454.807 189.169 454.508 192.592 454.302C196.035 454.095 200.605 453.843 202.76 453.705C204.914 453.59 209.364 453.338 212.626 453.154C215.888 452.971 220.338 452.718 222.492 452.603C231.452 452.053 238.459 451.663 244.439 451.318C247.923 451.112 252.453 450.859 254.507 450.722C256.561 450.607 260.265 450.4 262.762 450.286C265.259 450.171 268.843 449.964 270.715 449.827C272.608 449.689 276.172 449.482 278.669 449.368C281.166 449.253 284.971 449.046 287.126 448.909C289.28 448.794 293.911 448.519 297.394 448.335C300.878 448.151 306.415 447.83 309.677 447.646C312.939 447.463 317.791 447.188 320.449 447.05C323.107 446.912 325.322 446.751 325.362 446.706C325.402 446.66 327.053 446.614 329.006 446.614C332.409 446.614 332.671 446.637 334.664 447.325Z" fill="#6D6D6D" fill-opacity="0.03"/>
</svg>
