<svg width="140" height="100" viewBox="0 0 140 100" fill="none" xmlns="http://www.w3.org/2000/svg">
<path d="M65.3891 0.0390472C65.3891 0.0607491 65.1216 0.0911312 64.7927 0.108492C62.8304 0.199638 60.0766 0.529499 58.2538 0.889742C57.0274 1.13714 55.0317 1.60155 54.6582 1.7361C54.5356 1.7795 54.0674 1.92273 53.7106 2.0269C53.5879 2.06162 53.4151 2.11804 53.3204 2.14842C53.2312 2.18315 53.0305 2.24825 52.8744 2.30033C51.2801 2.83853 49.8029 3.46353 48.1807 4.30554C47.2832 4.76995 47.0101 4.95658 46.8707 5.19964C46.6589 5.56422 46.7648 5.73783 47.9466 6.95311C49.0559 8.09026 50.3603 9.55728 50.8955 10.2647C50.9679 10.3602 51.1296 10.5642 51.2578 10.7205C51.386 10.8767 51.5533 11.0894 51.6313 11.1979C51.7093 11.3064 51.8766 11.5234 51.9992 11.6884C52.1274 11.8489 52.2333 11.9878 52.2333 12.0009C52.2333 12.0095 52.3058 12.1137 52.3894 12.2265C53.0472 13.0946 54.3684 15.1823 55.0206 16.3845C55.0875 16.5017 55.16 16.6406 55.1878 16.6884C55.2157 16.7361 55.2937 16.8837 55.3551 17.0139C55.422 17.1441 55.5 17.2873 55.5279 17.3264C55.5557 17.3698 55.6115 17.4783 55.6561 17.5651C55.6951 17.6562 55.8512 17.9731 55.9961 18.2726C56.3473 18.9887 56.5926 19.5226 56.8657 20.1823C56.994 20.4818 57.1166 20.7639 57.1445 20.8116C57.1723 20.8594 57.2337 21.0069 57.2783 21.1371C57.3284 21.2673 57.4009 21.4713 57.4511 21.5929C57.4957 21.7101 57.557 21.8663 57.5849 21.9401C57.9806 23.0035 58.6106 23.3463 59.8481 23.1727C60.0265 23.151 60.439 23.0946 60.7623 23.0469C64.3188 22.5521 67.8809 22.5043 71.0751 22.9036C71.6883 22.9818 72.9091 23.164 73.1934 23.2205C73.84 23.355 74.8267 23.5243 74.9605 23.5243C75.1668 23.52 75.5737 23.3767 75.7075 23.2552C75.9416 23.0425 76.1089 22.6953 76.2872 22.0703C76.343 21.8793 76.4155 21.6146 76.46 21.4844C76.4991 21.3542 76.5715 21.0981 76.6217 20.9201C76.6719 20.7422 76.7611 20.4297 76.8224 20.2257C77.0175 19.579 77.09 19.3446 77.2126 18.9453C77.2739 18.7283 77.352 18.4939 77.3798 18.4245C77.4077 18.3507 77.5192 18.0295 77.6307 17.7083C77.8927 16.9575 78.3609 15.829 78.6006 15.3863C78.6285 15.3385 78.74 15.1345 78.8459 14.9305C79.1692 14.3142 79.8382 13.0946 79.8884 13.0252C79.9107 12.9861 79.9998 12.8385 80.0835 12.6953C80.234 12.4219 80.3399 12.2439 80.7078 11.6319C80.8304 11.4279 81.0311 11.0981 81.1538 10.8941C81.2764 10.6901 81.6555 10.0738 82.0011 9.5269C82.3467 8.97568 82.8373 8.19443 83.0881 7.79078C83.3445 7.3828 83.8574 6.56248 84.2309 5.96787C85.2845 4.29252 85.3904 4.0538 85.2064 3.77603C85.1284 3.6545 84.7883 3.42447 84.5096 3.30294C84.203 3.16839 82.9041 2.66058 82.6366 2.56943C82.4805 2.51735 82.1906 2.42186 81.9955 2.35242C81.6276 2.22221 80.8973 1.98783 80.5517 1.88801C79.6932 1.63627 79.002 1.44964 78.4613 1.32377C78.2773 1.28471 78.0599 1.22828 77.9819 1.20658C77.9038 1.18488 77.7032 1.14148 77.5359 1.10676C77.3687 1.07637 76.9952 1.00259 76.7053 0.941826C75.256 0.655367 73.2993 0.36891 71.9949 0.260403C71.7217 0.238701 71.2702 0.199638 70.9915 0.177937C70.7183 0.151896 70.2222 0.121513 69.8933 0.108492C69.5588 0.0911312 69.2913 0.0607491 69.2913 0.0390472C69.2913 0.0173473 68.4662 -1.52588e-05 67.3402 -1.52588e-05C66.2141 -1.52588e-05 65.3891 0.0173473 65.3891 0.0390472Z" fill="white" fill-opacity="0.46"/>
<path d="M86.9841 6.67955C86.6385 6.749 86.265 7.03112 85.8358 7.55195C84.9215 8.65438 84.2526 9.56584 83.7342 10.3948C83.3049 11.0806 83.1321 11.4061 82.6416 12.4999C82.5301 12.7516 82.4019 13.025 82.3629 13.1075C82.2569 13.3375 82.2123 13.4504 81.4988 15.1257C81.1309 15.9851 80.802 16.7447 80.7686 16.8184C80.7351 16.8879 80.6905 17.0051 80.6626 17.0789C80.6348 17.1483 80.5902 17.2655 80.5567 17.3393C80.5233 17.4087 80.4229 17.6431 80.3337 17.8601C79.7819 19.1969 79.1464 20.7073 78.8398 21.4322C78.4161 22.4391 78.3771 22.6952 78.6168 22.8558C78.8565 23.0164 79.1018 23.0033 80.3839 22.7646C80.6682 22.7082 80.8689 22.6735 81.8054 22.5042C81.9894 22.4738 82.3684 22.4044 82.6416 22.3523C83.9739 22.1092 84.3306 22.0441 84.732 21.9573C84.8714 21.9313 85.0721 21.8922 85.178 21.8749C85.2839 21.8575 85.7744 21.7577 86.265 21.6578C86.7555 21.558 87.2461 21.4582 87.352 21.4408C87.4579 21.4235 87.6753 21.3844 87.8258 21.354C89.7713 20.9851 91.544 20.7377 93.5676 20.5511C96.444 20.2907 99.7441 20.2907 102.57 20.5511C103.323 20.6205 104.337 20.6335 104.388 20.5684C104.404 20.5467 104.304 20.4035 104.165 20.2473C104.02 20.091 103.791 19.8349 103.646 19.67C103.328 19.3141 103.317 19.3054 102.671 18.5893C102.386 18.2724 102.035 17.8818 101.89 17.7212C101.567 17.3566 100.831 16.545 100.251 15.907C97.3136 12.6778 93.5508 9.75681 89.4703 7.54327C87.9819 6.74032 87.5137 6.57539 86.9841 6.67955Z" fill="white" fill-opacity="0.46"/>
<path d="M44.73 8.27248C43.9329 8.68915 42.8682 9.37491 41.2237 10.5294C38.7709 12.2525 36.6693 14.0928 34.5287 16.3845C33.5476 17.4261 32.0314 19.3228 31.3234 20.3775C31.1952 20.5685 31.0725 20.7421 31.0503 20.7681C30.9555 20.8636 29.9688 22.4348 29.6343 23.0251C29.3612 23.4982 29.3222 23.6023 29.2385 23.9756C29.1159 24.5312 29.1271 24.644 29.2831 24.6744C29.5228 24.7221 30.7381 24.7178 31.0503 24.67C33.8375 24.2273 34.958 24.0667 36.4575 23.8975C36.7808 23.8584 37.2937 23.802 37.6003 23.7673C38.1243 23.7065 38.3584 23.6848 39.6907 23.572C42.8068 23.3115 44.2339 23.2768 50.8397 23.2942C52.958 23.3029 54.7529 23.2898 54.87 23.2681C55.394 23.1727 55.5222 22.8645 55.2937 22.2525C55.2268 22.0832 55.1432 21.8489 55.0986 21.7317C55.0595 21.6188 55.0094 21.506 54.9871 21.4799C54.9648 21.4539 54.9313 21.3714 54.9035 21.2933C54.8812 21.2195 54.7306 20.8766 54.5746 20.5294C54.4185 20.1822 54.2512 19.822 54.2122 19.7265C54.1453 19.5746 54.0673 19.4096 53.9112 19.1188C53.8833 19.0711 53.822 18.9452 53.7663 18.8367C53.5266 18.3463 52.9747 17.322 52.7238 16.8923C52.3671 16.276 52.2556 16.098 51.765 15.3211C51.2912 14.5789 51.1128 14.3098 50.5721 13.5459C50.3937 13.2855 49.7917 12.4739 49.669 12.3263C49.6411 12.2916 49.5129 12.1223 49.3847 11.9574C49.2565 11.7881 48.7938 11.2325 48.359 10.7204C47.1661 9.31849 46.3578 8.47647 45.962 8.22474C45.7557 8.09453 45.6888 8.07283 45.4213 8.07283C45.1537 8.07283 45.0756 8.09453 44.73 8.27248Z" fill="white" fill-opacity="0.46"/>
<path d="M96.9123 22.27C95.7918 22.3004 95.3626 22.3438 93.2331 22.6346C92.9879 22.6693 92.5475 22.7257 92.2576 22.7648C91.5664 22.8516 90.1728 23.0512 89.1916 23.1945C88.9631 23.2292 88.5729 23.29 88.3276 23.3247C87.8538 23.3941 87.5918 23.4332 85.9863 23.6762C84.2805 23.9367 84.0966 23.9627 83.8792 24.0061C83.7565 24.0322 83.5335 24.0669 83.3775 24.0886C83.0151 24.1363 81.3428 24.4098 80.9693 24.4792C79.0907 24.8308 78.0315 25.5729 77.7361 26.7578C77.6469 27.1051 77.6357 27.4349 77.6357 29.6658C77.6357 32.2266 77.6859 33.1771 77.9033 34.8308C78.1486 36.6797 78.5555 38.3594 79.1297 39.9306C79.2858 40.3603 79.6203 41.1762 79.6927 41.3108C79.7373 41.3889 79.7708 41.4801 79.7708 41.5148C79.7708 41.5495 79.8042 41.6407 79.8488 41.7188C79.8934 41.7969 80.0216 42.066 80.1331 42.3177C80.2446 42.5695 80.3784 42.8516 80.423 42.9471C80.4676 43.0426 80.54 43.1901 80.5791 43.2726C80.6627 43.4419 80.8689 43.8629 81.0863 44.3012C81.3372 44.8221 82.3462 46.7448 82.558 47.1137C82.5859 47.1615 82.6974 47.3742 82.8089 47.5912C82.9204 47.8038 83.043 48.0382 83.0876 48.112C83.1266 48.1814 83.2492 48.4158 83.3607 48.6328C83.4778 48.8455 83.5893 49.0625 83.6172 49.1103C83.645 49.158 83.7231 49.3056 83.7844 49.4358C83.8513 49.566 83.9293 49.7136 83.9572 49.7613C83.9795 49.8091 84.0687 49.974 84.1467 50.1302C84.2248 50.2865 84.314 50.4514 84.3418 50.4992C84.7544 51.237 84.799 51.2804 85.1446 51.2804C85.362 51.2804 85.4233 51.2587 85.624 51.1068C85.8079 50.9679 86.5716 50.0608 86.5716 49.9783C86.5716 49.9436 86.9953 49.3924 87.7088 48.5113C88.1102 48.0122 88.467 47.5738 88.4948 47.5347C88.5283 47.4957 88.5896 47.4132 88.6398 47.3525C88.6899 47.2917 88.8962 47.0443 89.1025 46.7969C89.3031 46.5538 89.5038 46.3542 89.5484 46.3542C89.777 46.3542 89.8996 46.441 90.0167 46.6797C90.1226 46.8924 90.1393 47.0139 90.1393 47.5521C90.1393 48.1901 90.0891 48.4462 89.855 49.0365C89.7993 49.1841 89.7268 49.3403 89.6989 49.3837C89.6655 49.4228 89.5874 49.553 89.515 49.6745C89.2362 50.1519 88.8405 50.599 88.1882 51.1719C87.4245 51.8446 87.1402 52.2005 87.012 52.6346C86.895 53.0209 87.1347 53.5373 87.7311 54.2014C90.6131 57.4132 94.8609 60.7335 99.0195 63.0122C99.772 63.4245 101.043 64.0972 101.299 64.2144C102.32 64.6875 103.568 65.2604 103.853 65.382C104.276 65.5643 106.779 66.5365 107.141 66.6623C107.353 66.7318 107.638 66.8316 108.284 67.0573C108.546 67.1485 109.477 67.4436 109.734 67.513C109.89 67.5564 110.04 67.6042 110.068 67.6215C110.102 67.6389 110.285 67.6953 110.486 67.7474C110.687 67.8038 110.899 67.8646 110.96 67.8863C111.216 67.9775 111.646 68.0556 111.885 68.0556C112.46 68.0556 112.839 67.7952 113.123 67.2092C113.167 67.1137 113.257 66.9358 113.318 66.8186C113.48 66.4974 113.586 66.211 113.686 65.7986C113.742 65.5946 113.814 65.2908 113.859 65.1259C113.959 64.7353 114.082 64.2535 114.227 63.6502C114.288 63.3854 114.377 63.0469 114.416 62.8906C114.455 62.7344 114.528 62.4523 114.578 62.2613C114.622 62.0703 114.7 61.7578 114.745 61.5669C114.918 60.8854 114.996 60.5599 115.113 60.0695C115.18 59.796 115.269 59.4228 115.314 59.2448C115.453 58.6936 115.548 58.2856 115.643 57.8776C115.693 57.6606 115.765 57.3394 115.81 57.1615C115.849 56.9835 115.938 56.5929 116.005 56.2934C116.373 54.6745 116.785 54.1146 117.794 53.8629C118.43 53.7023 119.901 53.763 121.106 53.9974C121.652 54.1059 122.906 54.4401 123.179 54.553C123.235 54.5747 123.458 54.6571 123.67 54.7353C125.242 55.3038 127.054 56.3759 128.369 57.5217C130.671 59.5226 131.781 61.6016 131.781 63.928C131.781 64.6919 131.597 65.8117 131.39 66.2761C131.363 66.3368 131.273 66.5538 131.195 66.7665C131.112 66.9748 131.023 67.1571 130.995 67.1702C130.967 67.1832 130.945 67.2222 130.945 67.257C130.945 67.3655 130.421 68.1554 130.08 68.5634C128.648 70.2735 126.608 71.2934 123.921 71.645C123.14 71.7448 121.669 71.7448 120.464 71.645C119.957 71.6016 119.333 71.5495 119.071 71.5278C118.809 71.5061 118.374 71.4757 118.095 71.4627C117.822 71.4497 117.181 71.4063 116.674 71.3715C116.167 71.3325 115.486 71.3108 115.169 71.3195C114.661 71.3325 114.539 71.3498 114.255 71.4584C113.809 71.6276 113.541 71.8229 113.273 72.1875C113.151 72.3524 113.05 72.5 113.05 72.513C113.05 72.5304 112.989 72.6389 112.917 72.7604C112.844 72.882 112.716 73.099 112.632 73.2422C112.549 73.3854 112.37 73.6849 112.237 73.9063C112.103 74.1276 111.991 74.3186 111.991 74.3273C111.991 74.336 111.863 74.5486 111.713 74.8004C111.278 75.5122 111.278 75.9592 111.713 76.1632C111.807 76.211 112.315 76.3281 112.844 76.4323C113.374 76.5321 113.931 76.6406 114.082 76.671C114.238 76.7057 114.739 76.8056 115.197 76.8924C115.659 76.9792 116.144 77.0747 116.284 77.1051C116.423 77.1354 116.724 77.1919 116.953 77.2353C117.181 77.2743 117.521 77.3351 117.705 77.3655C119.255 77.6389 121.117 77.8212 122.36 77.8212C123.051 77.8212 124.467 77.7214 125.175 77.6215C128.302 77.1919 131.14 76.1415 133.62 74.4965C134.222 74.0972 135.148 73.3637 135.722 72.8255C136.168 72.4089 137.015 71.454 137.311 71.033C137.773 70.3733 138.347 69.375 138.554 68.8802C138.609 68.75 138.676 68.5938 138.704 68.533C138.805 68.3334 139.094 67.4696 139.211 66.9922C139.468 66.0113 139.535 65.4123 139.535 64.1927C139.535 63.5373 139.507 62.8472 139.473 62.6606C139.446 62.4783 139.395 62.1832 139.362 62.0052C139.284 61.5321 139.089 60.8247 138.844 60.1042C138.492 59.0972 137.69 57.5955 137.043 56.7405C136.541 56.0851 136.324 55.816 135.939 55.4037C134.289 53.6025 132.271 52.1788 129.69 50.9896C129.144 50.7422 127.823 50.217 127.338 50.0608C127.237 50.0261 127.07 49.974 126.975 49.9393C125.086 49.2926 121.702 48.6025 119.071 48.329C117.287 48.1424 116.791 47.882 116.546 47.0052C116.434 46.5972 116.161 44.7222 116.089 43.8151C115.927 41.8533 115.481 39.0538 115.057 37.3698C115.024 37.2396 114.962 36.9749 114.918 36.7839C114.818 36.3802 114.689 35.8941 114.578 35.5252C114.539 35.382 114.45 35.0868 114.388 34.8742C114.327 34.6571 114.21 34.2882 114.126 34.0495C114.048 33.8108 113.97 33.5677 113.959 33.507C113.942 33.4462 113.864 33.2335 113.792 33.0295C113.714 32.8256 113.641 32.6216 113.625 32.5738C113.58 32.4219 113.379 31.8837 113.301 31.7058C113.262 31.6103 113.101 31.211 112.939 30.816C112.783 30.421 112.627 30.0608 112.599 30.0131C112.571 29.9653 112.487 29.7787 112.415 29.6007C112.337 29.4228 112.22 29.1667 112.159 29.0365C112.092 28.9063 112.019 28.75 111.991 28.6893C111.963 28.6285 111.841 28.3768 111.713 28.125C111.584 27.8733 111.462 27.6172 111.434 27.5565C111.412 27.4957 111.367 27.4089 111.333 27.3611C111.3 27.3177 111.183 27.1007 111.071 26.8881C110.96 26.671 110.837 26.4367 110.793 26.3672C110.748 26.2934 110.648 26.1198 110.57 25.9766C110.168 25.2691 109.761 24.7874 109.165 24.3273C108.535 23.8368 108.206 23.6936 107.169 23.4592C106.985 23.4158 106.746 23.3594 106.64 23.329C106.534 23.2986 106.283 23.2379 106.082 23.1988C105.882 23.1554 105.608 23.099 105.469 23.0643C105.062 22.9731 103.791 22.7431 103.1 22.6389C100.915 22.3091 99.2313 22.2092 96.9123 22.27ZM100.062 29.9002C100.352 30.0217 101.054 30.5209 101.06 30.612C101.065 30.6771 100.692 31.0634 100.084 31.6103C99.9727 31.7144 99.8668 31.7709 99.8055 31.7622C99.694 31.7448 98.5623 30.612 98.5623 30.5122C98.5568 30.382 99.5044 29.8221 99.7274 29.8221C99.8055 29.8221 99.956 29.8568 100.062 29.9002ZM95.4016 30.2214C95.8309 30.5426 95.881 30.599 95.881 30.7379C95.881 30.8247 95.8253 30.9809 95.7584 31.0851C95.5911 31.3325 94.7104 32.2917 94.6491 32.2917C94.5097 32.2917 93.5955 31.1459 93.5955 30.9679C93.5955 30.8464 93.8017 30.5816 94.0247 30.4167C94.2979 30.217 94.8386 29.8655 94.8832 29.8655C94.9055 29.8611 95.1396 30.0217 95.4016 30.2214ZM90.2954 30.4037C90.5239 30.5035 91.7559 31.3672 91.7559 31.4236C91.7559 31.4757 90.3957 32.1485 90.1839 32.2006C89.8662 32.283 89.5707 32.1919 89.147 31.8794C88.7067 31.5625 88.6007 31.3976 88.6955 31.1719C88.8182 30.8681 89.3477 30.421 89.6933 30.3256C89.8717 30.2778 90.0668 30.2995 90.2954 30.4037ZM104.901 30.612C105.19 30.7205 106.082 31.1893 106.149 31.2674C106.205 31.3325 106.205 31.5625 106.149 31.632C106.066 31.7318 105.09 32.1528 104.811 32.2092C104.566 32.257 104.499 32.2526 104.276 32.1875C104.137 32.1441 103.903 32.0269 103.758 31.9271C103.613 31.8273 103.423 31.6971 103.34 31.6407C103.25 31.5842 103.184 31.5104 103.184 31.4801C103.184 31.4106 103.708 30.8854 104.003 30.6641C104.248 30.4775 104.505 30.4644 104.901 30.612ZM86.2427 31.9532C86.6553 32.2917 86.9897 32.5912 86.9897 32.6172C86.9897 32.6693 86.5661 32.9384 85.9584 33.2683C85.702 33.4071 85.6017 33.4375 85.3731 33.4375C85.1334 33.4419 85.0554 33.4202 84.8491 33.2943C84.537 33.099 84.2304 32.7431 84.2304 32.5695C84.2304 32.487 84.314 32.3394 84.4478 32.1788C84.6986 31.875 85.3285 31.3368 85.4233 31.3368C85.4623 31.3368 85.8302 31.6146 86.2427 31.9532ZM98.4732 36.4323C99.4264 36.5495 100.123 36.6754 100.703 36.8316C100.831 36.8663 100.959 36.8924 100.998 36.8924C101.037 36.8924 101.177 36.9271 101.305 36.9705C101.433 37.0139 101.651 37.0834 101.79 37.1268C103.507 37.6563 105.625 38.8151 105.781 39.3099C105.882 39.6181 105.675 39.8525 104.778 40.4254C103.719 41.1025 102.537 41.7058 101.489 42.0964C100.38 42.513 99.7664 42.6867 98.5345 42.9254C97.4307 43.1424 96.706 43.1945 95.0003 43.1728C93.3948 43.1554 93.1161 43.1337 92.0625 42.9427C91.8507 42.9037 91.5719 42.8472 91.4493 42.8169C91.3267 42.7865 91.0647 42.7214 90.864 42.6736C89.7547 42.4045 88.205 41.7839 87.0064 41.1372C85.7968 40.4775 85.7745 40.0955 86.9005 39.2361C88.8405 37.7518 91.5719 36.7448 94.4874 36.4367C95.4016 36.3412 95.5577 36.3368 96.8008 36.3499C97.4474 36.3585 98.1498 36.3933 98.4732 36.4323ZM107.805 42.1485C108.067 42.1962 108.312 42.2526 108.34 42.2743C108.373 42.2917 108.457 42.3221 108.535 42.3394C108.686 42.3742 109.717 42.7604 109.901 42.8516C111.233 43.5113 111.986 44.0104 112.599 44.6441C113.123 45.1823 113.29 45.612 113.106 45.9809C113.056 46.0851 113.028 46.0938 112.738 46.0938C112.387 46.0938 112.499 46.1459 110.943 45.2952C110.408 45.0087 109.934 44.7483 109.884 44.7266C109.834 44.7005 109.639 44.5964 109.444 44.4879C109.254 44.3794 108.903 44.1841 108.669 44.0538C108.435 43.9236 108.028 43.6979 107.777 43.5547C106.45 42.8125 106.478 42.8342 106.394 42.6389C106.289 42.3959 106.333 42.2917 106.578 42.1658C106.835 42.0313 107.169 42.0269 107.805 42.1485ZM104.382 44.8091C105.464 44.961 106.244 45.3038 107.203 46.0504C108.011 46.6797 108.552 47.3568 108.814 48.0773C108.948 48.4332 108.975 49.3056 108.858 49.3056C108.819 49.3056 108.412 48.9801 107.95 48.5764C107.493 48.1771 106.963 47.7257 106.774 47.5695C106.59 47.4132 106.199 47.0834 105.915 46.8316C105.631 46.5799 105.079 46.1025 104.694 45.7683C103.786 44.987 103.63 44.8394 103.63 44.7917C103.63 44.7309 103.864 44.7396 104.382 44.8091ZM101.149 46.4193C101.823 46.7014 102.453 47.1875 103.039 47.8733C103.814 48.7891 104.243 49.8394 104.237 50.8247C104.237 51.2978 104.159 51.5365 103.992 51.5538C103.925 51.5625 103.73 51.4801 103.529 51.3629C102.598 50.8247 101.506 49.3967 100.987 48.0469C100.686 47.2526 100.591 46.3108 100.814 46.3108C100.848 46.3108 101.004 46.3585 101.149 46.4193ZM93.3056 47.5912C94.0136 47.8689 94.348 48.8281 94.1306 49.961C93.9021 51.1372 93.3168 52.0964 92.4248 52.7474C92.0179 53.0512 91.7169 53.1988 91.6444 53.138C91.6221 53.1207 91.6333 52.9471 91.6723 52.7561C91.8228 52.0573 92.0959 50.4688 92.2242 49.5226C92.2743 49.1754 92.3579 48.6632 92.4081 48.3811C92.4917 47.9124 92.514 47.8559 92.6924 47.6997C92.8987 47.5087 93.0325 47.487 93.3056 47.5912ZM97.1632 47.9471C97.6314 48.1337 98.2613 48.6459 98.5177 49.0538C98.6292 49.2361 98.724 49.4141 98.724 49.4445C98.724 49.4749 98.7575 49.553 98.802 49.6181C98.8466 49.6832 98.8968 49.796 98.9191 49.8742C98.9414 49.9566 98.9804 50.0478 99.0083 50.0868C99.0919 50.204 99.2313 50.7075 99.2647 50.9983C99.2926 51.2587 99.2536 51.5278 99.1142 52.0573C99.0863 52.1745 99.0362 52.2917 99.0139 52.3177C98.9916 52.3438 98.9135 52.4827 98.8411 52.6259C98.7686 52.7691 98.6738 52.9167 98.6348 52.9558C98.5902 52.9905 98.5568 53.0469 98.5568 53.0729C98.5568 53.1424 98.278 53.2986 98.161 53.2986C97.9937 53.2986 97.8321 53.1424 97.8321 52.9861C97.8321 52.908 97.7986 52.6997 97.754 52.5174C97.7094 52.3394 97.6314 51.9966 97.5812 51.7578C97.5311 51.5191 97.453 51.1762 97.414 50.9983C97.375 50.8203 97.3248 50.586 97.3025 50.4775C97.2802 50.3689 97.23 50.1346 97.191 49.9566C97.152 49.7787 97.074 49.4358 97.0238 49.1971C96.9736 48.9584 96.8956 48.6198 96.851 48.4462C96.7674 48.1033 96.7506 47.8299 96.8175 47.8299C96.8398 47.8299 96.9959 47.882 97.1632 47.9471Z" fill="white" fill-opacity="0.46"/>
<path d="M64.7753 24.7831C64.4242 24.8005 63.9448 24.8352 63.7162 24.8612C63.4876 24.8873 63.0974 24.935 62.8522 24.961C60.522 25.2215 59.6413 25.4645 59.3291 25.9289C58.9779 26.4541 58.9946 26.9011 59.4517 29.1234C59.8308 30.968 59.8921 31.5886 59.8921 33.5505C59.8977 35.1781 59.8364 36.3803 59.697 37.5435C59.6691 37.7952 59.619 38.2032 59.5911 38.455C59.4796 39.3621 59.173 41.0722 58.95 41.9706C58.9054 42.1485 58.8441 42.4133 58.8051 42.5565C58.6155 43.3378 58.5152 43.7154 58.3926 44.0973C58.348 44.2275 58.2253 44.6268 58.1083 44.9871C57.9968 45.343 57.8741 45.7249 57.8351 45.8334C57.7961 45.9419 57.7181 46.1546 57.6679 46.3109C57.6121 46.4671 57.5397 46.6711 57.4951 46.7666C57.4561 46.8621 57.3334 47.1746 57.2164 47.461C56.9655 48.1077 56.514 49.1581 56.3579 49.4793C56.291 49.6095 56.2129 49.7788 56.1851 49.8569C56.1572 49.935 56.0959 50.0522 56.0513 50.1173C56.0067 50.1824 55.9677 50.2605 55.9677 50.2909C55.9677 50.3213 55.9286 50.4168 55.8785 50.5079C55.7391 50.751 55.7112 50.8117 55.505 51.2154C54.7747 52.6433 53.671 54.4793 52.8292 55.6642C52.6787 55.8768 52.4892 56.1416 52.4167 56.2501C52.2997 56.4107 52.0488 56.7449 51.3687 57.6303C51.3353 57.6694 51.1792 57.8604 51.0231 58.0513C50.7611 58.3638 50.6162 58.5288 50.0308 59.2058C49.8636 59.3968 48.8156 60.4949 48.3752 60.9419C47.0652 62.2614 44.618 64.2796 42.8955 65.4558C40.7995 66.8838 38.6422 68.1381 36.6632 69.0843C36.4235 69.1972 36.1671 69.323 36.0946 69.3577C36.0222 69.3925 35.7769 69.5053 35.5539 69.6095C35.3309 69.7136 35.108 69.8135 35.0634 69.8395C35.0188 69.8612 34.9407 69.8916 34.8961 69.909C34.8515 69.9263 34.6899 69.9914 34.5449 70.0609C34.3944 70.126 34.1101 70.2518 33.9039 70.3386C33.6976 70.4255 33.4077 70.5513 33.2517 70.6164C33.1011 70.6815 32.7778 70.8161 32.5437 70.9159C31.4232 71.376 31.2225 71.4628 30.8825 71.606C30.6818 71.6885 30.3418 71.8274 30.1299 71.9185C28.9983 72.3829 28.1677 72.7345 27.9002 72.8647C27.1476 73.2249 27.0863 73.5331 27.6382 74.1972C27.7775 74.3621 28.0228 74.6616 28.1845 74.8569C28.6416 75.4038 29.0931 75.9506 29.3105 76.2154C30.2916 77.4133 30.4979 77.652 30.693 77.8213C30.9104 78.0036 31.1668 78.0643 31.5236 78.0123C31.6574 77.9949 32.566 77.5478 34.2662 76.6668C35.6654 75.9419 36.8137 75.3473 36.8193 75.3473C36.8583 75.3473 42.2767 72.5131 43.3972 71.9055C46.6862 70.1303 49.2894 68.2163 52.4669 65.2345C52.924 64.8091 54.0723 63.6156 54.8806 62.7388C55.6778 61.8708 56.2798 61.2631 56.4805 61.1329C57.116 60.7119 57.6958 60.5817 58.571 60.6772C58.872 60.7076 59.1786 60.751 59.2566 60.7727C59.3347 60.7944 59.4963 60.8291 59.619 60.8508C59.7416 60.8682 60.0426 60.9289 60.2879 60.981C60.5332 61.0331 60.9736 61.1199 61.2634 61.1763C61.5533 61.2327 61.9045 61.3022 62.0439 61.3326C62.9413 61.5062 64.9036 61.797 66.0017 61.9098C67.8525 62.1051 68.2371 62.1268 70.322 62.1268C72.7636 62.1268 73.5942 62.0704 75.7292 61.7362C76.7716 61.5756 77.1396 61.5062 78.182 61.2588C78.3381 61.2241 78.5387 61.1763 78.6279 61.1546C78.7227 61.1373 79.046 61.0461 79.3526 60.9593C79.6592 60.8682 80.0104 60.7683 80.133 60.7336C80.2557 60.6989 80.3895 60.6468 80.4341 60.6208C80.4731 60.5904 80.6849 60.573 80.9135 60.573C81.3093 60.5774 81.4486 60.6077 81.9336 60.7987C82.2458 60.9246 85.5236 63.0904 87.9095 64.7571C89.3588 65.7683 90.5239 66.5322 91.9565 67.4263C93.3613 68.2987 93.863 68.5939 95.8865 69.7353C96.405 70.0305 98.7351 71.2284 99.5044 71.6017C100.419 72.0444 101.556 72.5696 101.595 72.5696C101.606 72.5696 101.762 72.6347 101.94 72.7171C102.119 72.7996 102.453 72.9428 102.682 73.0426C103.145 73.238 105.982 74.336 106.333 74.4532C106.456 74.4966 106.634 74.5574 106.723 74.5878C107.883 75.0001 108.217 75.0869 108.697 75.0869C109.048 75.0869 109.104 75.0739 109.321 74.948C109.616 74.7701 109.711 74.6355 110.113 73.8499C110.191 73.698 111.317 71.9576 111.378 71.8968C111.473 71.797 111.763 71.172 111.802 70.9853C111.896 70.4689 111.428 70.1043 109.706 69.3708C109.538 69.297 109.176 69.1407 108.897 69.0235C108.624 68.902 108.223 68.7327 108.005 68.6416C107.794 68.5505 107.593 68.4636 107.559 68.4463C107.532 68.4289 107.331 68.3421 107.114 68.251C106.372 67.9428 105.999 67.7822 105.943 67.7518C105.915 67.7345 105.714 67.6477 105.497 67.5565C104.795 67.2657 104.388 67.0878 104.187 66.9923C104.081 66.9402 103.819 66.823 103.602 66.7319C103.117 66.5279 100.541 65.3343 100.09 65.0999C99.9057 65.0088 99.7162 64.9176 99.6716 64.9003C99.3427 64.7788 97.0237 63.5114 95.7973 62.7866C94.7828 62.1833 94.7772 62.1789 93.5118 61.3456C89.2808 58.5635 85.44 54.9871 82.5468 51.1286C81.9392 50.3213 80.8856 48.7588 80.4731 48.047C80.3783 47.8907 80.2334 47.6477 80.1498 47.5044C80.0606 47.3612 79.8488 46.988 79.6815 46.6798C79.5143 46.3673 79.3526 46.0765 79.3247 46.0288C79.2746 45.9419 79.1018 45.6077 78.9624 45.3126C78.9178 45.2301 78.8119 45.0088 78.7171 44.8178C78.6224 44.6312 78.5443 44.4576 78.5443 44.4359C78.5443 44.4098 78.5053 44.3317 78.4607 44.2579C78.1931 43.8065 77.3793 41.7058 76.9556 40.3647C76.5988 39.2362 76.4316 38.6156 76.125 37.2397C75.6121 34.9741 75.3669 32.1919 75.3669 28.6893C75.3724 26.81 75.339 26.6581 74.8707 26.1763C74.4582 25.7423 73.9565 25.5383 72.719 25.2909C71.8661 25.1173 71.4146 25.0479 69.9875 24.8699C69.0398 24.7484 66.4031 24.705 64.7753 24.7831ZM68.4545 38.4897C68.6831 38.6242 68.9339 38.8152 69.0175 38.9107C69.1848 39.0973 69.3241 39.5314 69.4858 40.3213C69.5694 40.7423 69.6251 40.9463 69.8258 41.5149C70.0377 42.1399 70.1492 42.4437 70.2105 42.5999C70.2495 42.6954 70.322 42.8907 70.3777 43.034C70.4279 43.1772 70.5059 43.3725 70.5449 43.468C70.584 43.5635 70.7122 43.876 70.8237 44.1624C70.9352 44.4489 71.0522 44.7267 71.0745 44.7744C71.1024 44.8265 71.225 45.1086 71.3532 45.4038C71.4814 45.6989 71.6208 46.0027 71.6654 46.0808C71.71 46.1546 71.7435 46.2371 71.7435 46.2631C71.7435 46.2892 71.7825 46.3716 71.8215 46.4498C71.8661 46.5279 71.9832 46.7579 72.0835 46.9619C72.273 47.3569 72.5963 47.9862 72.7134 48.1989C72.758 48.2683 72.9308 48.5939 73.1092 48.915C73.845 50.2562 75.261 52.4697 76.0637 53.5244C76.4595 54.0452 76.7047 54.5183 76.7047 54.7614C76.7047 55.0739 76.3703 55.3951 75.8686 55.5687C75.6567 55.6425 74.8986 55.8378 74.2241 55.9897C74.1349 56.0114 73.8841 56.0678 73.6666 56.1199C73.4548 56.1676 73.1538 56.2371 72.9977 56.2675C72.8472 56.3022 72.496 56.376 72.2173 56.4411C71.9441 56.5018 71.5651 56.5843 71.3811 56.6234C71.1972 56.6624 70.9352 56.7189 70.7958 56.7536C70.6564 56.784 70.3554 56.8534 70.1269 56.9011C69.8983 56.9532 69.5861 57.0183 69.43 57.0531C68.8614 57.1789 68.867 57.1789 68.1033 56.988C67.6964 56.8881 67.2783 56.7796 67.1724 56.7492C67.0665 56.7189 66.1857 56.4932 65.2213 56.2458C64.2569 55.9984 63.4263 55.7857 63.3817 55.764C63.3371 55.7466 63.0974 55.6815 62.8522 55.6208C62.2111 55.4558 61.9435 55.3213 61.8153 55.1086C61.6425 54.8048 61.6648 54.6659 62.1275 53.4072C62.2055 53.1902 62.3059 52.9081 62.356 52.7779C62.4006 52.6477 62.4787 52.4393 62.5233 52.3222C62.6738 51.9229 62.8912 51.3282 62.9636 51.1069C63.0473 50.8551 63.2814 50.1998 63.5713 49.4142C63.6159 49.2926 63.7441 48.9324 63.8556 48.6112C63.967 48.29 64.0897 47.9385 64.1343 47.83C64.1733 47.7215 64.2458 47.5088 64.3015 47.3525C64.3573 47.1963 64.4297 46.9836 64.4688 46.8751C64.5078 46.7666 64.5914 46.5235 64.6583 46.3326C64.8367 45.8161 64.937 45.534 65.0318 45.2692C65.0819 45.139 65.1544 44.9307 65.1934 44.8135C65.238 44.6919 65.3105 44.488 65.3551 44.3577C65.5669 43.7588 65.7955 43.1077 65.8345 42.9906C65.8568 42.9168 65.9348 42.7041 66.0017 42.5131C66.3919 41.415 66.5369 40.9463 66.6428 40.4732C66.8379 39.5921 66.955 39.1841 67.0609 39.0062C67.2058 38.7761 67.819 38.238 67.9417 38.238C67.9974 38.238 68.226 38.3508 68.4545 38.4897Z" fill="white" fill-opacity="0.46"/>
<path d="M42.3382 25.3342C40.8777 25.3646 38.0626 25.6467 35.816 25.9809C35.3757 26.0504 35.1638 26.0807 34.088 26.2587C33.302 26.3889 31.8749 26.6537 31.2728 26.7839C31.1335 26.8099 30.9328 26.849 30.8269 26.8707C30.721 26.888 30.2806 26.9748 29.8513 27.0616C29.4221 27.1485 28.9483 27.2483 28.7922 27.2787C28.6417 27.309 28.3128 27.3785 28.0675 27.4306C27.8222 27.4827 27.4878 27.5521 27.3317 27.5868C26.9359 27.6693 26.5122 27.7604 26.1722 27.8386C25.1465 28.0773 24.5389 28.4375 24.1933 29.0148C24.0483 29.2578 23.9814 29.4488 23.686 30.4254C23.6247 30.6294 23.5522 30.8637 23.5243 30.9462C23.4964 31.0287 23.4184 31.2717 23.3571 31.4887C23.2902 31.7014 23.2066 31.9879 23.162 32.1181C23.0505 32.4479 22.6212 33.8455 22.2701 35.0044C21.9523 36.0677 21.5565 37.6693 21.3837 38.5851C21.0214 40.5295 20.8095 42.4913 20.6535 45.3559C20.3636 50.8203 20.3803 50.5816 20.2409 50.9332C20.1183 51.2674 19.8897 51.5104 19.572 51.6667C19.1818 51.8576 18.4515 51.9835 16.0824 52.257C14.7445 52.4132 14.4546 52.4566 13.6854 52.6042C13.3509 52.6693 12.2806 52.9384 12.1245 52.9948C12.0632 53.0165 11.8736 53.0773 11.7064 53.1293C11.0598 53.329 9.44875 53.967 9.24806 54.1059C9.20347 54.1406 9.14215 54.1667 9.12543 54.1667C9.10313 54.1667 8.91917 54.2578 8.70734 54.3707C8.50108 54.4835 8.26138 54.6137 8.16662 54.6615C7.2747 55.1432 5.73057 56.2457 4.84422 57.0313C4.42614 57.4045 3.70146 58.1337 3.32239 58.5634C2.72035 59.2578 1.89532 60.4297 1.52741 61.1328C1.44937 61.276 1.36575 61.4323 1.3323 61.48C1.13162 61.8056 0.702385 62.8689 0.529576 63.4766C0.295448 64.3012 0.178383 64.8307 0.133788 65.2648C0.117064 65.4644 0.0780427 65.625 0.0501703 65.625C0.0222979 65.625 0 66.1545 0 66.8403C0 67.513 0.0222979 68.0556 0.0501703 68.0556C0.0780427 68.0556 0.117064 68.2248 0.133788 68.4332C0.21183 69.1754 0.462682 70.1823 0.852896 71.3108C1.048 71.862 1.5943 73.0599 1.89532 73.5894C1.94549 73.6849 2.03469 73.8411 2.09043 73.9366C2.84856 75.2865 4.01363 76.6233 5.26231 77.5781C7.28585 79.1189 10.2961 80.3212 13.4345 80.8333C14.6442 81.0286 15.0232 81.0547 16.8907 81.0547C18.4738 81.0503 18.7972 81.0373 19.4828 80.9549C20.7649 80.7986 22.1697 80.5642 22.6881 80.4253C22.7662 80.4036 23.017 80.3472 23.2456 80.2951C23.4741 80.2431 23.8421 80.1519 24.0539 80.0911C24.2713 80.0347 24.5221 79.9696 24.6113 79.9479C24.8232 79.9002 25.1186 79.8134 25.6426 79.6484C25.8712 79.5747 26.0774 79.5139 26.0997 79.5139C26.1276 79.5139 26.3116 79.4531 26.5178 79.3793C26.7296 79.3099 26.9749 79.2231 27.0641 79.1927C28.1177 78.8368 28.3741 78.6632 28.3741 78.316C28.3741 78.0946 28.2515 77.8733 27.878 77.4089C27.6494 77.1224 27.3874 76.7882 26.8634 76.1285C26.8356 76.0938 26.5736 75.7422 26.2781 75.3472C25.6482 74.5096 25.3918 74.2318 25.0684 74.0625C24.8455 73.941 24.8064 73.9366 24.2211 73.941C23.8867 73.9453 23.5076 73.967 23.385 73.9974C23.2623 74.0278 23.0393 74.0668 22.8832 74.0885C22.7327 74.1102 22.3815 74.1667 22.1028 74.2144C19.5163 74.6441 17.6321 74.8698 15.1626 75.0477C14.2874 75.1085 13.585 75.0477 12.7488 74.8221C12.459 74.7483 12.3531 74.7092 12.0966 74.605C12.052 74.5833 11.9015 74.5269 11.7622 74.4705C11.6116 74.4097 11.149 74.0885 10.5859 73.6545C9.35398 72.6997 8.77981 72.0964 8.083 71.0286C7.87674 70.7161 7.69836 70.4254 7.67606 70.3776C7.65934 70.3299 7.58687 70.1736 7.52555 70.0304C7.35274 69.6484 7.20223 69.2318 7.06844 68.7326C6.96253 68.3464 6.9458 68.151 6.9458 67.1224C6.9458 65.7552 6.97925 65.5686 7.52555 63.9974C7.57015 63.8715 7.63704 63.7153 7.78198 63.4115C8.90245 61.0113 10.8145 59.2925 13.4624 58.2899C13.8024 58.1641 14.1202 58.0425 14.1703 58.0252C14.3543 57.9514 15.2908 57.6997 15.5863 57.6432C15.7033 57.6172 15.9542 57.5695 16.1381 57.5304C16.8795 57.3828 18.0557 57.2483 18.5965 57.2483C19.1651 57.2483 19.7392 57.3394 20.1239 57.4913C20.8987 57.7951 21.5788 58.5113 21.9356 59.4184C21.9858 59.5486 22.0638 59.7352 22.1028 59.8307C22.1418 59.9262 22.2199 60.1215 22.2701 60.2648C22.3258 60.408 22.4038 60.6033 22.4373 60.6988C22.4763 60.7943 22.5488 60.9809 22.5989 61.1111C22.9501 62.0356 23.647 63.8412 23.686 63.9323C23.7138 63.9931 23.7919 64.1884 23.8644 64.3663C23.9312 64.5443 24.0595 64.8568 24.1375 65.0608C24.2211 65.2648 24.3716 65.6337 24.472 65.8854C24.5723 66.1372 24.695 66.4497 24.7507 66.5799C24.8064 66.7101 24.9793 67.1398 25.1409 67.5347C26.083 69.8958 26.161 70.0781 26.3116 70.3212C26.5345 70.6901 27.0307 70.9635 27.4822 70.9635C27.7498 70.9635 28.2515 70.8247 28.5971 70.6597C28.6417 70.638 29.0319 70.4601 29.4611 70.2691C29.8904 70.0781 30.2806 69.9002 30.3252 69.8785C30.3698 69.8524 30.4478 69.8221 30.4924 69.8047C30.537 69.7873 31.0554 69.5573 31.6352 69.2925C32.2205 69.0278 32.7334 68.7977 32.778 68.7804C32.8225 68.763 32.9396 68.7109 33.0288 68.6675C33.1236 68.6198 33.3242 68.5286 33.4748 68.4679C33.6308 68.4028 33.7925 68.3247 33.8427 68.2899C33.8873 68.2552 33.9486 68.2292 33.9709 68.2292C33.9988 68.2292 34.127 68.1684 34.2663 68.099C34.4001 68.0252 34.5228 67.9688 34.5339 67.9688C34.5562 67.9688 35.7659 67.3958 36.6243 66.9792C39.3112 65.6727 40.3258 65.0564 42.1208 63.6545C43.6984 62.4219 45.0028 61.1849 47.0765 58.9627C48.3586 57.5912 48.7265 57.2005 49.1112 56.7925C50.0588 55.7943 50.3097 55.4688 50.5382 54.9479C50.6999 54.5747 50.6832 53.8021 50.5048 53.4288C50.3264 53.0512 50.1425 52.7865 49.7411 52.3394C49.5571 52.1354 49.2951 51.8273 49.1614 51.6537C49.0276 51.48 48.8715 51.2891 48.8213 51.224C48.7656 51.1589 48.6652 51.02 48.5872 50.9115C48.5147 50.803 48.2639 50.4644 48.0297 50.1606C47.7956 49.8524 47.6061 49.5703 47.6061 49.5269C47.6061 49.4488 47.935 49.1754 48.0353 49.1754C48.1579 49.1754 49.1781 49.605 49.4624 49.7787C49.624 49.8741 50.1257 50.2257 50.5828 50.5599C52.5897 52.0356 52.8015 52.0182 53.6488 50.3472C53.7659 50.1215 53.9108 49.8351 53.9721 49.7179C54.1003 49.4879 54.1394 49.4054 54.5463 48.5677C55.1428 47.3351 55.7169 45.9549 56.057 44.9219C56.2632 44.2882 56.319 44.1059 56.358 43.9453C56.3803 43.8498 56.4584 43.5851 56.5197 43.3594C56.5866 43.1337 56.6702 42.8299 56.6981 42.691C56.7315 42.5478 56.7649 42.4219 56.7761 42.4045C56.8151 42.3568 57.2332 40.2648 57.328 39.6702C57.8464 36.263 57.852 33.2509 57.328 29.8394C57.2834 29.5269 57.2109 29.0972 57.1663 28.8846C57.1217 28.6675 57.0715 28.4071 57.0548 28.2986C57.0047 28.0208 56.8764 27.4653 56.7705 27.0833C56.542 26.2587 56.1685 25.816 55.5051 25.5903C55.3435 25.5339 54.9811 25.4688 54.6857 25.4384C53.9387 25.3646 44.4286 25.2865 42.3382 25.3342ZM41.9758 30.612C42.2434 30.6858 42.4441 30.7899 42.8678 31.0764C43.0684 31.211 43.3137 31.3672 43.4141 31.4236C43.5144 31.4844 43.5924 31.5582 43.5813 31.5972C43.559 31.7014 42.4051 32.5347 42.1487 32.6389C41.803 32.7734 41.686 32.7518 41.3236 32.4913C40.9557 32.2266 40.6937 31.8707 40.6937 31.6363C40.6937 31.3542 41.0728 30.8941 41.4909 30.6728C41.7473 30.5382 41.725 30.5425 41.9758 30.612ZM37.7337 31.2457C38.1963 31.5625 38.5587 31.8403 38.542 31.862C38.5252 31.8837 38.2354 32.0703 37.8898 32.2743C37.2821 32.6389 36.8083 32.8559 36.6076 32.8559C36.3233 32.8559 35.5094 32.2526 35.5094 32.0443C35.5094 31.8837 35.7324 31.5972 36.2676 31.0764C36.5519 30.7986 36.7414 30.6467 36.8027 30.6554C36.8529 30.6597 37.2766 30.9245 37.7337 31.2457ZM47.4165 31.1545C47.6841 31.2934 48.498 31.8229 48.498 31.8577C48.498 31.9011 48.4088 31.9705 47.9405 32.296C47.2047 32.8125 46.9985 32.8863 46.6696 32.7518C46.2961 32.5955 45.8222 32.0964 45.8222 31.8533C45.8222 31.5755 46.6305 31.033 47.0486 31.033C47.1267 31.033 47.2883 31.0851 47.4165 31.1545ZM52.1939 32.0182C52.8126 32.7648 52.8182 32.7691 52.8182 33.0339C52.8182 33.316 52.7569 33.3984 52.1493 33.9236L51.7702 34.2535L51.4413 33.9974C50.8616 33.559 50.5048 33.1511 50.5048 32.9254C50.5048 32.7995 50.7334 32.5304 51.2016 32.0964C51.4079 31.9054 51.603 31.7144 51.642 31.671C51.6754 31.632 51.7368 31.5972 51.7702 31.5972C51.8092 31.5972 52.0043 31.7882 52.1939 32.0182ZM32.254 31.9792C32.4881 32.079 33.6141 32.895 33.6141 32.9688C33.6141 33.0382 32.4992 33.6632 32.1703 33.7761C31.847 33.8889 31.6296 33.8542 31.3007 33.6285C30.9439 33.3854 30.76 33.1424 30.76 32.9384C30.7656 32.6432 31.2673 32.1528 31.7411 31.9705C31.9585 31.8837 32.0421 31.888 32.254 31.9792ZM28.1957 33.8064C28.6305 34.1016 28.9873 34.3707 28.9873 34.4054C28.9873 34.4705 28.2459 35.0304 27.9003 35.2257C27.7665 35.2952 27.5602 35.382 27.4432 35.4123C27.2425 35.4644 27.1979 35.4601 26.9805 35.3733C26.6683 35.2474 26.2056 34.9089 26.1109 34.7396C25.9771 34.4879 26.1053 34.2882 26.8857 33.559C27.1366 33.329 27.2927 33.2162 27.3373 33.2379C27.3763 33.2552 27.7609 33.5113 28.1957 33.8064ZM42.9235 38.4071C44.083 38.5417 44.8356 38.6806 45.9727 38.9714C46.8424 39.1971 47.1267 39.2795 47.7176 39.4705C48.6764 39.783 50.0867 40.3299 50.41 40.5208C50.8894 40.7943 50.9731 41.0938 50.6776 41.4627C50.4435 41.7578 49.0666 42.73 48.1914 43.2118C47.7677 43.4505 46.7365 43.928 46.3128 44.0886C45.9059 44.2448 44.8579 44.5747 44.7798 44.5747C44.7408 44.5747 44.6293 44.6007 44.529 44.6354C44.1722 44.7526 43.0684 44.9392 42.171 45.0304C41.2846 45.1259 39.5509 45.1259 38.6646 45.0347C37.7392 44.9349 36.6745 44.757 36.301 44.6354C36.2007 44.6007 36.0892 44.5747 36.0502 44.5747C35.9721 44.5747 34.9241 44.2405 34.5172 44.0886C33.419 43.6719 31.7801 42.7952 31.4401 42.4392C31.3732 42.3655 31.3007 42.2179 31.284 42.1137C31.2617 41.9488 31.284 41.8924 31.4624 41.6884C31.8247 41.2804 33.3242 40.3125 34.4391 39.7656C34.69 39.6398 34.913 39.5399 34.9241 39.5399C34.9353 39.5399 35.0691 39.4835 35.214 39.4184C35.738 39.184 36.825 38.8412 37.6278 38.6589C38.3357 38.4983 39.3781 38.355 40.1641 38.3073C40.7327 38.2726 42.1933 38.329 42.9235 38.4071ZM30.4757 47.0356C30.6374 47.1745 30.7656 47.3177 30.7544 47.3524C30.7321 47.4175 29.2326 49.0972 28.7365 49.6094C28.2682 50.0912 27.655 50.6424 27.4097 50.7986C27.1867 50.9418 26.4342 51.2587 26.3171 51.2587C26.2893 51.2587 26.1889 51.2891 26.0941 51.3238C25.9994 51.3585 25.8433 51.4193 25.7485 51.454C25.6538 51.4887 25.5423 51.5191 25.4977 51.5191C25.4141 51.5191 25.3918 51.3889 25.4698 51.3195C25.4921 51.2978 25.6984 51.007 25.9158 50.6728C26.1387 50.3386 26.4788 49.8872 26.6739 49.6745C27.3038 48.9844 27.4097 48.8759 28.9873 47.3438C29.2214 47.1181 29.4165 47.0139 29.935 46.8403C30.1468 46.7708 30.1524 46.7708 30.4757 47.0356ZM33.419 48.342C33.7033 48.533 33.7814 48.6415 33.8315 48.941C33.9988 49.8568 33.2629 51.1111 31.9919 52.0616C31.4679 52.4523 31.0554 52.6823 30.5537 52.8516C30.3809 52.908 30.197 52.9731 30.1468 52.9991C30.013 53.0556 29.8792 53.0469 29.8792 52.9861C29.8792 52.9601 29.9796 52.7778 30.0966 52.5868C30.3196 52.2222 30.5705 51.8056 30.8826 51.2804C30.9774 51.1111 31.1056 50.8984 31.1614 50.803C31.2171 50.7075 31.3174 50.5295 31.3843 50.4123C31.4512 50.2908 31.5348 50.1346 31.5794 50.0651C31.624 49.9913 31.7132 49.8351 31.7801 49.7179C32.1146 49.1233 32.4491 48.6241 32.5661 48.5417C32.7612 48.3984 33.0734 48.2639 33.196 48.2639C33.2574 48.2639 33.3577 48.2986 33.419 48.342ZM37.4772 50.1215C37.7281 50.5252 37.795 50.6728 37.795 50.8377C37.795 51.0156 37.8117 51.0504 37.9343 51.0851C38.096 51.1328 38.1072 51.2023 37.9901 51.3759C37.8898 51.5234 37.4048 52.3438 37.4048 52.3655C37.4048 52.3915 36.9142 53.2031 36.5017 53.8542C36.2843 54.1971 36.0557 54.5009 35.9889 54.5356C35.7993 54.6311 35.1638 54.783 35.1137 54.7439C35.0914 54.7266 35.0412 54.5703 35.0077 54.4054C34.9408 54.0799 34.9576 53.9931 35.2307 53.2335C35.2976 53.0425 35.3868 52.7865 35.4258 52.6693C35.7213 51.7622 36.3122 50.3689 36.4961 50.1519C36.7247 49.8785 37.0201 49.6094 37.0926 49.6094C37.126 49.6094 37.2989 49.8394 37.4772 50.1215ZM45.1477 50.2127C45.655 50.5339 46.1344 51.0764 46.3964 51.6276C46.5135 51.875 46.6305 52.2092 46.7699 52.7127C46.8368 52.9514 46.9316 53.2726 46.9762 53.4288C47.0375 53.6241 47.0653 53.9149 47.0709 54.362C47.0709 54.974 47.0598 55.0304 46.9204 55.2995C46.703 55.7031 46.48 55.9028 46.2403 55.9028C45.9616 55.9028 46.0118 56.0417 45.5212 54.0148C45.4766 53.8238 45.4097 53.5504 45.3707 53.4071C45.3373 53.2639 45.2871 53.0425 45.2648 52.9167C45.2369 52.7908 45.1923 52.5955 45.1589 52.4826C45.1031 52.296 45.0251 51.9705 44.7854 50.9549C44.7408 50.7509 44.6627 50.4557 44.6181 50.2951C44.568 50.1346 44.5513 49.9783 44.568 49.9566C44.6126 49.9002 44.7631 49.9696 45.1477 50.2127ZM41.4295 50.4861C41.6135 50.7031 41.764 50.9332 41.9145 51.2326C42.0316 51.4583 42.1542 52.0964 42.1542 52.5174C42.1654 53.3941 41.8699 54.2361 41.3069 54.9523C41.0616 55.2561 40.5265 55.7075 40.4707 55.6554C40.3258 55.5295 40.1028 54.77 40.0192 54.132C39.8966 53.1728 40.114 52.1224 40.6547 51.0417C40.9167 50.5165 41.0839 50.2604 41.162 50.2604C41.2066 50.2604 41.3292 50.3646 41.4295 50.4861Z" fill="white" fill-opacity="0.46"/>
<path d="M79.464 62.7821C79.0571 62.8342 78.6111 62.9123 78.0983 63.0208C77.2956 63.1901 75.5898 63.4505 74.5306 63.559C72.8583 63.737 72.0109 63.776 69.9595 63.776C68.4433 63.776 67.6684 63.7587 66.9214 63.7023C64.9035 63.5504 62.9636 63.316 61.4808 63.0382C60.4606 62.8516 59.2788 62.8472 58.6155 63.0339C57.7458 63.2769 57.3612 63.5156 56.3244 64.4792C54.9753 65.7248 51.3296 68.6502 49.7353 69.77C46.8868 71.7622 44.7517 73.1076 42.154 74.5313C41.0001 75.1649 38.6588 76.3585 37.6275 76.8403C37.1983 77.0399 37.1593 77.0573 36.914 77.1788C36.7802 77.2483 36.6632 77.3004 36.6576 77.3004C36.6464 77.3004 36.2952 77.4566 35.8772 77.6476C35.4535 77.8385 35.1023 77.9948 35.0912 77.9948C35.08 77.9948 34.9462 78.0512 34.8013 78.1163C34.6563 78.1858 34.2606 78.355 33.9205 78.4939C33.0955 78.8325 32.7443 79.0104 32.6328 79.1493C32.499 79.3056 32.5102 79.6267 32.6551 79.8481C32.9004 80.2214 35.119 82.6476 36.3231 83.8542C36.4792 84.0104 36.7579 84.2925 36.9475 84.4835C38.5195 86.0851 40.8552 88.1424 42.823 89.6484C44.6625 91.0634 45.8053 91.8446 47.9682 93.1641C48.6985 93.6111 50.722 94.7005 51.5247 95.0781C51.6752 95.1476 51.8648 95.2387 51.9428 95.2778C52.0264 95.3212 52.1323 95.3689 52.1769 95.3819C52.2215 95.3993 52.2996 95.4384 52.3442 95.4644C52.3888 95.4948 52.5393 95.5686 52.6786 95.625C53.0466 95.7856 53.3309 95.9071 53.7378 96.0938C55.2429 96.7665 57.5396 97.6259 59.2008 98.1337C59.368 98.1814 59.5576 98.2422 59.6189 98.2639C59.6802 98.2813 59.892 98.342 60.0927 98.3941C60.2934 98.4462 60.5052 98.5069 60.5665 98.5286C60.8007 98.6068 61.9936 98.8976 62.9636 99.1102C64.0562 99.349 65.8623 99.6398 66.8657 99.7352C67.111 99.7613 67.5123 99.8003 67.7576 99.8264C68.0029 99.8481 68.4489 99.8828 68.7499 99.8958C69.0453 99.9089 69.2906 99.9392 69.2906 99.9609C69.2906 99.9826 69.6641 100 70.1268 100C70.6006 100 70.9629 99.9826 70.9629 99.9609C70.9629 99.9392 71.1302 99.9089 71.342 99.8915C71.5483 99.8785 72.0165 99.8394 72.3844 99.8047C72.7524 99.77 73.2931 99.7222 73.583 99.6918C75.233 99.5443 76.4204 99.401 77.2064 99.2535C77.3457 99.2274 77.5687 99.1927 77.6969 99.171C78.0648 99.1146 79.609 98.7717 79.8821 98.6849C79.9602 98.6632 80.0995 98.6285 80.1887 98.6068C80.395 98.5677 80.7963 98.4549 81.0249 98.3767C81.1197 98.3464 81.2813 98.2943 81.3872 98.2639C81.6325 98.1944 82.5746 97.8906 82.8366 97.7995C83.8177 97.4566 85.49 96.7752 86.421 96.3368C86.6272 96.2413 86.8446 96.1372 86.8948 96.1155C87.1234 96.0069 87.5359 95.7986 88.1324 95.4905C90.0054 94.5139 91.1649 93.8325 93.417 92.3698C96.7561 90.204 99.7774 87.5434 102.526 84.3446C102.933 83.8715 103.345 83.3854 103.44 83.2682C103.992 82.5825 104.215 82.2917 104.343 82.1181C104.415 82.0096 104.516 81.8924 104.555 81.8533C104.599 81.8186 104.633 81.7752 104.633 81.7622C104.633 81.7491 104.789 81.5278 104.984 81.2674C105.179 81.0069 105.352 80.7639 105.374 80.7292C105.397 80.6944 105.463 80.6033 105.519 80.5295C105.742 80.2431 106.4 79.2752 107.18 78.0816C107.76 77.2049 107.766 77.1875 107.738 76.9444C107.688 76.5234 107.442 76.2326 106.918 76.0026C106.684 75.8984 105.302 75.3689 104.856 75.2127C104.382 75.0434 102.392 74.2622 101.846 74.0278C101.645 73.941 101.444 73.8585 101.4 73.8412C101.355 73.8281 101.093 73.7153 100.814 73.5981C100.541 73.4809 100.173 73.3247 100.006 73.2509C99.6994 73.1207 97.1519 71.9444 96.6334 71.6927C95.8586 71.3151 94.9611 70.8507 93.7347 70.1997C90.5628 68.507 87.2739 66.4149 84.4532 64.2969C83.5 63.5807 83.1989 63.3898 82.6582 63.1554C81.7496 62.7561 80.6681 62.6302 79.464 62.7821ZM88.3553 77.2787C90.5963 77.5217 92.1961 78.4288 93.1996 80.0087C93.4448 80.4036 93.4727 80.7509 93.2664 80.9158C92.9654 81.1675 92.2352 81.2587 89.9998 81.3151C89.5092 81.3281 88.2829 81.3672 87.2683 81.4019C83.8344 81.5234 82.8087 81.5538 81.3872 81.5972C80.6068 81.6189 79.5142 81.658 78.9623 81.684C78.4105 81.7057 77.2175 81.7491 76.3144 81.7708C75.4114 81.7969 74.5975 81.8273 74.5027 81.8359C74.4136 81.849 73.5105 81.8793 72.4959 81.9054C71.4869 81.9314 70.4947 81.9575 70.294 81.9661C68.5826 82.0182 67.8914 82.0443 66.5591 82.0964C64.9091 82.1658 63.4764 82.2179 60.8453 82.3134C59.9255 82.3481 58.6824 82.3915 58.0859 82.4175C57.4894 82.4436 56.1738 82.4913 55.1593 82.5304C54.1503 82.5694 52.6062 82.6259 51.731 82.6606C48.2246 82.7995 47.8957 82.7908 47.6003 82.5694C47.4386 82.4523 47.4275 82.4262 47.4498 82.1832C47.4777 81.8967 47.6449 81.5321 48.0351 80.9028C48.6706 79.8828 49.5848 79.1406 50.7332 78.7196C51.5749 78.4115 52.2661 78.3073 53.7657 78.2552C54.4123 78.2335 55.5495 78.1988 56.3021 78.1727C57.6065 78.125 59.1506 78.0773 63.744 77.9297C64.8812 77.895 66.4086 77.8429 67.1444 77.8168C67.8803 77.7951 69.4132 77.7474 70.5449 77.7127C74.369 77.5998 75.5563 77.5608 76.7604 77.5174C77.4182 77.4957 78.3714 77.4653 78.8787 77.4523C79.386 77.4392 80.7016 77.4002 81.8053 77.3655C85.4677 77.2439 86.0363 77.2266 86.906 77.2222C87.4188 77.2179 88.0097 77.2396 88.3553 77.2787ZM92.6533 84.553C92.971 84.6267 93.2497 84.7005 93.272 84.7135C93.2943 84.7309 93.2887 84.8134 93.2609 84.8958C93.233 84.9783 93.155 85.2214 93.0936 85.434C93.0267 85.6467 92.8985 85.9288 92.8093 86.059C92.2519 86.8533 90.9363 87.7257 89.8047 88.0556C88.3386 88.4766 88.4891 88.4635 82.7251 88.6502C81.5768 88.6892 79.8208 88.7457 78.823 88.7804C77.8251 88.8151 76.6099 88.8542 76.1193 88.8672C75.6288 88.8802 74.7647 88.9106 74.1961 88.9323C73.6275 88.9583 72.5238 88.9974 71.7434 89.0191C70.9629 89.0408 69.809 89.0799 69.1791 89.1059C68.5492 89.1276 67.1946 89.1797 66.1689 89.2144C64.1509 89.2882 62.3838 89.375 60.9289 89.4748C60.4216 89.5096 59.7081 89.5616 59.3402 89.5833C58.9722 89.6094 58.2476 89.6615 57.7236 89.6962C55.2039 89.8741 53.9496 89.809 52.2606 89.4097C51.586 89.2535 50.5046 88.8151 49.8858 88.4549C49.3172 88.1163 48.6371 87.6215 48.4755 87.4132C48.3417 87.2526 48.1745 86.9227 48.1076 86.7014C48.0853 86.6276 48.0463 86.5321 48.024 86.4887C47.9905 86.428 48.0686 86.3846 48.4699 86.237L48.9605 86.0634L50.276 86.0026C51.0007 85.9679 52.372 85.9115 53.3197 85.8724C54.2729 85.8333 55.5384 85.7856 56.1348 85.7596C56.7313 85.7378 57.9633 85.6901 58.8663 85.6554C59.7694 85.6207 61.0013 85.5729 61.5978 85.5512C64.0785 85.4471 66.0184 85.3733 67.674 85.3082C68.6384 85.2691 69.8926 85.2214 70.4612 85.1953C71.0298 85.1736 72.0555 85.1346 72.7468 85.1128C73.438 85.0911 74.4303 85.0521 74.9487 85.026C75.4727 85 76.4594 84.9609 77.1506 84.9392C77.8419 84.9175 78.8954 84.8785 79.4919 84.8524C80.0884 84.8307 81.3705 84.7786 82.3349 84.7439C83.2993 84.7092 84.8323 84.6484 85.7353 84.6137C86.6384 84.579 87.9818 84.5269 88.7177 84.5009C89.4535 84.4748 90.0667 84.4444 90.0778 84.4358C90.089 84.4271 90.5461 84.4184 91.0868 84.4184C92.0289 84.4184 92.1014 84.4227 92.6533 84.553Z" fill="white" fill-opacity="0.46"/>
</svg>
