<svg width="17" height="16" viewBox="0 0 17 16" fill="none" xmlns="http://www.w3.org/2000/svg">
<g clip-path="url(#clip0_20_3213)">
<path fill-rule="evenodd" clip-rule="evenodd" d="M15.6274 2.91873C15.8758 3.1848 16.0549 3.51593 16.1466 3.87913V3.8792C16.6751 6.15718 16.553 9.75494 16.1569 12.1209C16.0651 12.4841 15.8861 12.8152 15.6376 13.0813C15.3892 13.3473 15.08 13.5391 14.7408 13.6374C13.4993 14 8.50208 14 8.50208 14C8.50208 14 3.50482 14 2.2632 13.6374C1.92405 13.5391 1.61486 13.3473 1.36643 13.0813C1.11799 12.8152 0.938973 12.4841 0.847199 12.1209C0.315637 9.85279 0.461325 6.25276 0.836887 3.89017C0.928651 3.52696 1.10766 3.19582 1.3561 2.92974C1.60454 2.66366 1.91373 2.47192 2.25289 2.37362C3.49451 2.01098 8.49189 2 8.49189 2C8.49189 2 13.489 2 14.7306 2.36264C15.0698 2.46094 15.379 2.65267 15.6274 2.91873ZM10.5 8L6.5 10.5L6.50006 5.5L10.5 8Z" fill="white"/>
</g>
<defs>
<clipPath id="clip0_20_3213">
<rect width="16" height="16" fill="white" transform="translate(0.5)"/>
</clipPath>
</defs>
</svg>
