<svg width="22" height="23" viewBox="0 0 22 23" fill="none" xmlns="http://www.w3.org/2000/svg">
<path fill-rule="evenodd" clip-rule="evenodd" d="M3.66628 4.85352C3.03764 4.85352 2.52044 5.37071 2.52044 5.99935V16.9993C2.52044 17.628 3.03764 18.1452 3.66628 18.1452H18.3329C18.9616 18.1452 19.4788 17.628 19.4788 16.9993V5.99935C19.4788 5.37071 18.9616 4.85352 18.3329 4.85352H3.66628ZM1.14544 5.99935C1.14544 4.61132 2.27825 3.47852 3.66628 3.47852H18.3329C19.721 3.47852 20.8538 4.61132 20.8538 5.99935V16.9993C20.8538 18.3874 19.721 19.5202 18.3329 19.5202H3.66628C2.27825 19.5202 1.14544 18.3874 1.14544 16.9993V5.99935Z" fill="#979797"/>
<path fill-rule="evenodd" clip-rule="evenodd" d="M1.26972 5.60509C1.48746 5.29403 1.91614 5.21839 2.2272 5.43613L10.9996 11.5768L19.772 5.43613C20.0831 5.21839 20.5118 5.29403 20.7295 5.60509C20.9472 5.91615 20.8716 6.34483 20.5605 6.56257L11.3939 12.9792C11.1571 13.1449 10.8421 13.1449 10.6054 12.9792L1.43869 6.56257C1.12763 6.34483 1.05198 5.91615 1.26972 5.60509Z" fill="#979797"/>
</svg>
