<svg width="17" height="13" viewBox="0 0 17 13" fill="none" xmlns="http://www.w3.org/2000/svg">
<path d="M16.0536 0.235974C15.4185 0.613532 14.7189 0.883828 13.9721 1.03399C13.3712 0.394719 12.5215 0 11.5773 0C9.45708 0 7.90343 1.97789 8.37983 4.02871C5.65021 3.89142 3.23391 2.58713 1.61588 0.60066C0.75751 2.07657 1.16953 4.00297 2.63305 4.98119C2.09657 4.96403 1.59013 4.81815 1.14378 4.56931C1.10944 6.08812 2.19957 7.51254 3.77468 7.83003C3.31116 7.95446 2.80472 7.98449 2.29399 7.88581C2.7103 9.1901 3.92489 10.1383 5.35837 10.164C3.98069 11.2452 2.24249 11.73 0.5 11.5241C1.95064 12.4551 3.67597 13 5.53004 13C11.6245 13 15.0665 7.85578 14.8605 3.23927C15.5 2.77591 16.0579 2.20099 16.5 1.54026C15.912 1.80198 15.2768 1.97789 14.6159 2.05512C15.294 1.65182 15.8133 1.00825 16.0579 0.240264L16.0536 0.235974Z" fill="white"/>
</svg>
