<svg width="15" height="14" viewBox="0 0 15 14" fill="none" xmlns="http://www.w3.org/2000/svg">
<path d="M1.46666 1.22881C0.733329 1.96214 0.899996 2.72881 1.83333 3.26214C2.73333 3.72881 3.96666 2.49548 3.5 1.59548C2.96666 0.662142 2.2 0.495475 1.46666 1.22881Z" fill="white"/>
<path d="M0.799988 8.89567V13.229H2.29999H3.79999V8.89567V4.56234H2.29999H0.799988V8.89567Z" fill="white"/>
<path d="M5.46664 8.89567V13.229H6.96664H8.43331L8.53331 10.1623L8.63331 7.06234H9.79998H10.9666L11.0666 10.1623L11.1666 13.229H12.6666H14.2L14.0666 9.89567C13.9666 6.79567 13.9 6.529 13.0666 5.66234C12 4.59567 10.1333 4.49567 9.09998 5.429C8.49998 5.96234 8.46664 5.96234 8.46664 5.29567C8.46664 4.66234 8.26664 4.56234 6.96664 4.56234H5.46664V8.89567Z" fill="white"/>
</svg>
