<svg width="17" height="16" viewBox="0 0 17 16" fill="none" xmlns="http://www.w3.org/2000/svg">
<path fill-rule="evenodd" clip-rule="evenodd" d="M0.5 4C0.5 1.79086 2.29086 0 4.5 0H12.5C14.7091 0 16.5 1.79086 16.5 4V12C16.5 14.2091 14.7091 16 12.5 16H4.5C2.29086 16 0.5 14.2091 0.5 12V4ZM8.5 10.8C10.0464 10.8 11.3 9.5464 11.3 8C11.3 6.4536 10.0464 5.2 8.5 5.2C6.9536 5.2 5.7 6.4536 5.7 8C5.7 9.5464 6.9536 10.8 8.5 10.8ZM8.5 12C10.7091 12 12.5 10.2091 12.5 8C12.5 5.79086 10.7091 4 8.5 4C6.29086 4 4.5 5.79086 4.5 8C4.5 10.2091 6.29086 12 8.5 12ZM12.821 4.73926C13.3732 4.73926 13.821 4.29154 13.821 3.73926C13.821 3.18697 13.3732 2.73926 12.821 2.73926C12.2687 2.73926 11.821 3.18697 11.821 3.73926C11.821 4.29154 12.2687 4.73926 12.821 4.73926Z" fill="white"/>
</svg>
