<svg width="23" height="24" viewBox="0 0 23 24" fill="none" xmlns="http://www.w3.org/2000/svg">
<path d="M20.1245 16.2899L19.6245 16.2775V16.2899H20.1245ZM20.1245 18.8868H19.6245L19.6245 18.8888L20.1245 18.8868ZM18.2337 20.618L18.1798 21.1151L18.1888 21.116L18.2337 20.618ZM10.7487 17.9606L11.0204 17.5408L11.0165 17.5383L10.7487 17.9606ZM5.54473 12.7669L5.96651 12.4984L5.96412 12.4947L5.54473 12.7669ZM2.88204 5.26211L2.38402 5.3072L2.38485 5.31501L2.88204 5.26211ZM4.60802 3.37508L4.60802 2.87508L4.60755 2.87508L4.60802 3.37508ZM7.20999 3.37508L7.20999 3.87511L7.2149 3.87506L7.20999 3.37508ZM8.94464 4.86393L9.44035 4.79842L9.4397 4.79382L8.94464 4.86393ZM9.55177 7.29628L9.08344 7.47139L9.08386 7.47252L9.55177 7.29628ZM9.16147 9.12271L9.51468 9.47662L9.51665 9.47464L9.16147 9.12271ZM8.05997 10.222L7.70677 9.86813C7.54721 10.0274 7.51394 10.2737 7.62554 10.4696L8.05997 10.222ZM13.2639 15.4157L13.0171 15.8505C13.2126 15.9615 13.4581 15.9283 13.6171 15.7696L13.2639 15.4157ZM14.3654 14.3164L14.0142 13.9605L14.0122 13.9625L14.3654 14.3164ZM16.1955 13.9268L16.0199 14.395L16.021 14.3954L16.1955 13.9268ZM18.6327 14.5328L18.7024 14.0376L18.6979 14.037L18.6327 14.5328ZM19.6245 16.2899V18.8868H20.6245V16.2899H19.6245ZM19.6245 18.8888C19.6252 19.0601 19.59 19.2297 19.5212 19.3867L20.4372 19.788C20.5619 19.5032 20.6257 19.1956 20.6245 18.8847L19.6245 18.8888ZM19.5212 19.3867C19.4524 19.5437 19.3515 19.6847 19.2249 19.8007L19.9002 20.5382C20.1295 20.3283 20.3124 20.0727 20.4372 19.788L19.5212 19.3867ZM19.2249 19.8007C19.0982 19.9167 18.9486 20.005 18.7857 20.06L19.1055 21.0075C19.4001 20.908 19.6708 20.7482 19.9002 20.5382L19.2249 19.8007ZM18.7857 20.06C18.6227 20.115 18.45 20.1355 18.2786 20.12L18.1888 21.116C18.4986 21.1439 18.8108 21.107 19.1055 21.0075L18.7857 20.06ZM18.2876 20.1209C15.6963 19.8399 13.2072 18.9562 11.0204 17.5408L10.477 18.3803C12.795 19.8806 15.4333 20.8172 18.1798 21.1151L18.2876 20.1209ZM11.0165 17.5383C8.98279 16.2486 7.25867 14.5279 5.96649 12.4984L5.12296 13.0355C6.49406 15.1889 8.32336 17.0145 10.4809 18.3828L11.0165 17.5383ZM5.96412 12.4947C4.54112 10.3024 3.6556 7.80653 3.37923 5.2092L2.38485 5.31501C2.67787 8.06885 3.61674 10.715 5.12533 13.0391L5.96412 12.4947ZM3.38 5.21702C3.3646 5.04693 3.38485 4.87548 3.43949 4.71359L2.49199 4.39384C2.39289 4.68749 2.35613 4.99855 2.38408 5.3072L3.38 5.21702ZM3.43949 4.71359C3.49412 4.5517 3.58196 4.40287 3.69746 4.27659L2.95956 3.60167C2.75034 3.83041 2.59109 4.10018 2.49199 4.39384L3.43949 4.71359ZM3.69746 4.27659C3.81296 4.15031 3.9536 4.04936 4.11046 3.98021L3.70708 3.06517C3.42337 3.19024 3.16878 3.37294 2.95956 3.60167L3.69746 4.27659ZM4.11046 3.98021C4.26732 3.91106 4.43693 3.87524 4.60849 3.87508L4.60755 2.87508C4.29746 2.87538 3.9908 2.9401 3.70708 3.06517L4.11046 3.98021ZM4.60802 3.87508H7.20999V2.87508H4.60802V3.87508ZM7.2149 3.87506C7.51478 3.87211 7.80535 3.9781 8.03248 4.17305L8.68377 3.41422C8.2726 3.06131 7.74704 2.86978 7.20508 2.87511L7.2149 3.87506ZM8.03248 4.17305C8.25958 4.36796 8.40772 4.63847 8.44958 4.93404L9.4397 4.79382C9.36374 4.25745 9.09497 3.76715 8.68377 3.41422L8.03248 4.17305ZM8.44895 4.92943C8.56373 5.79793 8.77658 6.65067 9.08344 7.47139L10.0201 7.12118C9.7397 6.37121 9.54521 5.592 9.44033 4.79842L8.44895 4.92943ZM9.08386 7.47252C9.1668 7.69273 9.18474 7.932 9.13559 8.16204L10.1135 8.37101C10.2027 7.95363 10.1701 7.51948 10.0197 7.12005L9.08386 7.47252ZM9.13559 8.16204C9.08643 8.39207 8.9722 8.60335 8.8063 8.77079L9.51665 9.47464C9.81713 9.17137 10.0243 8.78839 10.1135 8.37101L9.13559 8.16204ZM8.80827 8.76881L7.70677 9.86813L8.41317 10.5759L9.51468 9.47662L8.80827 8.76881ZM7.62554 10.4696C8.90482 12.7149 10.7676 14.5739 13.0171 15.8505L13.5107 14.9808C11.4175 13.793 9.68449 12.0633 8.49441 9.97452L7.62554 10.4696ZM13.6171 15.7696L14.7186 14.6703L14.0122 13.9625L12.9107 15.0618L13.6171 15.7696ZM14.7166 14.6722C14.8844 14.5066 15.0964 14.3924 15.3274 14.3432L15.1192 13.3652C14.7016 13.4541 14.3181 13.6606 14.0142 13.9605L14.7166 14.6722ZM15.3274 14.3432C15.5584 14.2941 15.7988 14.312 16.0199 14.395L16.3711 13.4587C15.9713 13.3087 15.5369 13.2763 15.1192 13.3652L15.3274 14.3432ZM16.021 14.3954C16.8432 14.7016 17.6974 14.914 18.5674 15.0285L18.6979 14.037C17.9025 13.9323 17.1216 13.7382 16.37 13.4583L16.021 14.3954ZM18.563 15.0279C18.8631 15.0701 19.137 15.221 19.3327 15.4515L20.095 14.8043C19.7405 14.3868 19.2449 14.114 18.7024 14.0376L18.563 15.0279ZM19.3327 15.4515C19.5283 15.6819 19.6321 15.9759 19.6246 16.2775L20.6243 16.3024C20.6379 15.755 20.4495 15.2218 20.095 14.8043L19.3327 15.4515Z" fill="#979797"/>
</svg>
