<svg width="23" height="23" viewBox="0 0 23 23" fill="none" xmlns="http://www.w3.org/2000/svg">
<path d="M11.5 1.9165C7.79125 1.9165 4.79167 4.91609 4.79167 8.62484C4.79167 13.6561 11.5 21.0832 11.5 21.0832C11.5 21.0832 18.2083 13.6561 18.2083 8.62484C18.2083 4.91609 15.2088 1.9165 11.5 1.9165ZM6.70834 8.62484C6.70834 5.97984 8.855 3.83317 11.5 3.83317C14.145 3.83317 16.2917 5.97984 16.2917 8.62484C16.2917 11.3848 13.5317 15.5153 11.5 18.0932C9.50667 15.5344 6.70834 11.3561 6.70834 8.62484Z" fill="#939393"/>
<path d="M11.5 11.0207C12.8232 11.0207 13.8958 9.94802 13.8958 8.62484C13.8958 7.30165 12.8232 6.229 11.5 6.229C10.1768 6.229 9.10417 7.30165 9.10417 8.62484C9.10417 9.94802 10.1768 11.0207 11.5 11.0207Z" fill="#939393"/>
</svg>
