<svg width="37" height="35" viewBox="0 0 37 35" fill="none" xmlns="http://www.w3.org/2000/svg">
<path d="M17.337 0.326306C17.337 0.333766 17.2672 0.344209 17.1815 0.350177C16.6697 0.381508 15.9515 0.494895 15.4761 0.618725C15.1563 0.703766 14.6358 0.863403 14.5384 0.909653C14.5064 0.924572 14.3843 0.973806 14.2913 1.00961C14.2593 1.02155 14.2142 1.04094 14.1895 1.05139C14.1662 1.06332 14.1139 1.0857 14.0732 1.1036C13.6574 1.2886 13.2721 1.50344 12.8491 1.79288C12.615 1.95252 12.5438 2.01667 12.5074 2.10022C12.4522 2.22554 12.4798 2.28522 12.788 2.70296C13.0773 3.09385 13.4175 3.59812 13.5571 3.84131C13.576 3.87413 13.6182 3.94425 13.6516 3.99796C13.685 4.05167 13.7286 4.12477 13.749 4.16207C13.7694 4.19937 13.813 4.27397 13.845 4.33066C13.8784 4.38586 13.906 4.4336 13.906 4.43808C13.906 4.44106 13.9249 4.47687 13.9467 4.51566C14.1183 4.81405 14.4628 5.53167 14.6329 5.94494C14.6504 5.98522 14.6693 6.03296 14.6765 6.04937C14.6838 6.06578 14.7042 6.11651 14.7202 6.16127C14.7376 6.20602 14.758 6.25526 14.7652 6.26869C14.7725 6.28361 14.787 6.3209 14.7987 6.35074C14.8088 6.38207 14.8495 6.49098 14.8873 6.59393C14.9789 6.8401 15.0429 7.02361 15.1141 7.25038C15.1476 7.35332 15.1796 7.4503 15.1868 7.46671C15.1941 7.48312 15.2101 7.53385 15.2217 7.57861C15.2348 7.62336 15.2537 7.69348 15.2668 7.73526C15.2784 7.77554 15.2944 7.82925 15.3017 7.85461C15.4049 8.22014 15.5692 8.338 15.8919 8.27832C15.9385 8.27086 16.046 8.25147 16.1304 8.23506C17.0579 8.06498 17.9869 8.04857 18.8199 8.18582C18.9798 8.21268 19.2982 8.27534 19.3724 8.29473C19.541 8.34098 19.7983 8.39917 19.8332 8.39917C19.887 8.39768 19.9932 8.34844 20.028 8.30667C20.0891 8.23357 20.1327 8.11421 20.1792 7.89937C20.1938 7.83373 20.2127 7.74272 20.2243 7.69796C20.2345 7.6532 20.2534 7.56518 20.2665 7.50401C20.2796 7.44284 20.3028 7.33542 20.3188 7.2653C20.3697 7.043 20.3886 6.96244 20.4206 6.82518C20.4366 6.75058 20.4569 6.67002 20.4642 6.64615C20.4715 6.62078 20.5005 6.51038 20.5296 6.39998C20.5979 6.14187 20.7201 5.75397 20.7826 5.60179C20.7899 5.58538 20.8189 5.51526 20.8465 5.44514C20.9309 5.23328 21.1053 4.81405 21.1184 4.79018C21.1242 4.77675 21.1475 4.72602 21.1693 4.67679C21.2086 4.5828 21.2362 4.52163 21.3321 4.31127C21.3641 4.24115 21.4164 4.12776 21.4484 4.05764C21.4804 3.98752 21.5793 3.77566 21.6694 3.58768C21.7595 3.3982 21.8875 3.12965 21.9529 2.9909C22.0198 2.85066 22.1535 2.56869 22.2509 2.36429C22.5257 1.7884 22.5533 1.70635 22.5054 1.61086C22.485 1.56909 22.3963 1.49002 22.3236 1.44824C22.2437 1.40199 21.9049 1.22744 21.8351 1.1961C21.7944 1.1782 21.7188 1.14538 21.668 1.12151C21.572 1.07675 21.3816 0.996185 21.2914 0.961871C21.0675 0.875338 20.8873 0.811185 20.7462 0.767919C20.6983 0.754491 20.6416 0.735096 20.6212 0.727637C20.6009 0.720177 20.5485 0.705258 20.5049 0.693322C20.4613 0.682879 20.3639 0.657516 20.2883 0.636629C19.9103 0.538161 19.4 0.439693 19.0598 0.402395C18.9886 0.394935 18.8708 0.381508 18.7981 0.374048C18.7269 0.365096 18.5975 0.354653 18.5117 0.350177C18.4245 0.344209 18.3547 0.333766 18.3547 0.326306C18.3547 0.318846 18.1395 0.312878 17.8459 0.312878C17.5522 0.312878 17.337 0.318846 17.337 0.326306Z" fill="black"/>
<path d="M22.9691 2.60899C22.8789 2.63286 22.7815 2.72983 22.6696 2.90886C22.4312 3.28782 22.2567 3.60112 22.1215 3.88608C22.0096 4.12181 21.9645 4.2337 21.8366 4.60967C21.8075 4.6962 21.774 4.79019 21.7639 4.81854C21.7362 4.89761 21.7246 4.9364 21.5385 5.51229C21.4426 5.80769 21.3568 6.06878 21.3481 6.09415C21.3393 6.11802 21.3277 6.1583 21.3204 6.18366C21.3132 6.20753 21.3015 6.24782 21.2928 6.27318C21.2841 6.29705 21.2579 6.37761 21.2347 6.45221C21.0907 6.91173 20.925 7.43092 20.845 7.68007C20.7346 8.0262 20.7244 8.11423 20.7869 8.16943C20.8494 8.22463 20.9134 8.22015 21.2478 8.1381C21.3219 8.1187 21.3742 8.10677 21.6185 8.04858C21.6665 8.03814 21.7653 8.01427 21.8366 7.99636C22.184 7.91282 22.2771 7.89044 22.3817 7.8606C22.4181 7.85165 22.4704 7.83822 22.498 7.83225C22.5257 7.82628 22.6536 7.79197 22.7815 7.75765C22.9095 7.72334 23.0374 7.68903 23.065 7.68306C23.0927 7.67709 23.1493 7.66366 23.1886 7.65322C23.696 7.5264 24.1583 7.44136 24.686 7.37721C25.4362 7.28769 26.2969 7.28769 27.034 7.37721C27.2302 7.40108 27.4948 7.40556 27.5079 7.38318C27.5123 7.37572 27.4861 7.32649 27.4497 7.27278C27.4119 7.21907 27.3523 7.13104 27.3145 7.07435C27.2317 6.95201 27.2288 6.94903 27.0601 6.70286C26.986 6.59394 26.8944 6.45967 26.8566 6.40447C26.7723 6.27915 26.5804 6.00015 26.4292 5.78084C25.663 4.67084 24.6817 3.66677 23.6175 2.90588C23.2293 2.62987 23.1072 2.57318 22.9691 2.60899Z" fill="black"/>
<path d="M11.9491 3.15654C11.7412 3.29977 11.4635 3.53549 11.0346 3.93235C10.395 4.52465 9.84687 5.15723 9.2886 5.94497C9.03273 6.30303 8.63729 6.95501 8.45265 7.31755C8.41921 7.38319 8.38723 7.44287 8.38142 7.45182C8.3567 7.48465 8.09937 8.02473 8.01215 8.22763C7.94091 8.39025 7.93073 8.42606 7.90892 8.55436C7.87694 8.74533 7.87985 8.78412 7.92055 8.79456C7.98307 8.81098 8.3 8.80948 8.38142 8.79307C9.10833 8.6409 9.40054 8.58569 9.79162 8.52751C9.87594 8.51408 10.0097 8.49469 10.0897 8.48275C10.2263 8.46186 10.2874 8.4544 10.6348 8.41561C11.4475 8.3261 11.8197 8.31416 13.5425 8.32013C14.0949 8.32311 14.5631 8.31864 14.5936 8.31118C14.7302 8.27835 14.7637 8.17243 14.7041 7.96206C14.6866 7.90388 14.6648 7.82331 14.6532 7.78303C14.643 7.74424 14.6299 7.70545 14.6241 7.6965C14.6183 7.68755 14.6096 7.6592 14.6023 7.63235C14.5965 7.60698 14.5572 7.48912 14.5165 7.36977C14.4758 7.25041 14.4322 7.12658 14.422 7.09376C14.4046 7.04154 14.3842 6.98485 14.3435 6.88489C14.3363 6.86848 14.3203 6.82521 14.3057 6.78791C14.2432 6.61932 14.0993 6.26723 14.0339 6.11952C13.9408 5.90767 13.9117 5.8465 13.7838 5.57944C13.6602 5.32432 13.6137 5.23182 13.4727 4.96924C13.4262 4.87973 13.2692 4.60073 13.2372 4.55001C13.2299 4.53807 13.1965 4.47989 13.163 4.42319C13.1296 4.36501 13.0089 4.17404 12.8955 3.99799C12.5844 3.5161 12.3736 3.22666 12.2704 3.14013C12.2166 3.09537 12.1991 3.08791 12.1294 3.08791C12.0596 3.08791 12.0392 3.09537 11.9491 3.15654Z" fill="black"/>
<path d="M25.5583 7.96801C25.2661 7.97846 25.1542 7.99337 24.5988 8.09333C24.5348 8.10527 24.42 8.12466 24.3444 8.13809C24.1641 8.16793 23.8006 8.23656 23.5448 8.28579C23.4852 8.29773 23.3834 8.31862 23.3194 8.33055C23.1959 8.35442 23.1275 8.36785 22.7088 8.4514C22.264 8.54091 22.216 8.54987 22.1593 8.56479C22.1273 8.57374 22.0691 8.58567 22.0284 8.59313C21.9339 8.60954 21.4978 8.70354 21.4004 8.72741C20.9105 8.84825 20.6342 9.10337 20.5572 9.51067C20.5339 9.63003 20.531 9.74341 20.531 10.5103C20.531 11.3905 20.5441 11.7172 20.6008 12.2857C20.6648 12.9212 20.7709 13.4986 20.9206 14.0387C20.9613 14.1864 21.0486 14.4669 21.0675 14.5131C21.0791 14.54 21.0878 14.5713 21.0878 14.5833C21.0878 14.5952 21.0965 14.6265 21.1082 14.6534C21.1198 14.6802 21.1532 14.7727 21.1823 14.8593C21.2114 14.9458 21.2463 15.0428 21.2579 15.0756C21.2695 15.1084 21.2884 15.1591 21.2986 15.1875C21.3204 15.2457 21.3742 15.3904 21.4309 15.5411C21.4963 15.7201 21.7595 16.381 21.8147 16.5079C21.822 16.5243 21.8511 16.5974 21.8802 16.672C21.9092 16.7451 21.9412 16.8256 21.9528 16.851C21.963 16.8749 21.995 16.9554 22.0241 17.03C22.0546 17.1031 22.0837 17.1777 22.091 17.1941C22.0982 17.2106 22.1186 17.2613 22.1346 17.306C22.152 17.3508 22.1724 17.4015 22.1796 17.4179C22.1855 17.4343 22.2087 17.491 22.2291 17.5447C22.2494 17.5985 22.2727 17.6551 22.28 17.6716C22.3875 17.9252 22.3992 17.9401 22.4893 17.9401C22.546 17.9401 22.562 17.9326 22.6143 17.8804C22.6623 17.8327 22.8615 17.5209 22.8615 17.4925C22.8615 17.4806 22.972 17.2911 23.1581 16.9883C23.2627 16.8167 23.3558 16.666 23.363 16.6526C23.3718 16.6391 23.3878 16.6108 23.4008 16.5899C23.4139 16.569 23.4677 16.484 23.5215 16.3989C23.5739 16.3154 23.6262 16.2468 23.6378 16.2468C23.6974 16.2468 23.7294 16.2766 23.7599 16.3587C23.7876 16.4318 23.7919 16.4735 23.7919 16.6585C23.7919 16.8779 23.7788 16.9659 23.7178 17.1688C23.7032 17.2195 23.6843 17.2732 23.6771 17.2881C23.6683 17.3016 23.648 17.3463 23.6291 17.3881C23.5564 17.5522 23.4532 17.7059 23.2831 17.9028C23.0839 18.1341 23.0098 18.2564 22.9763 18.4056C22.9458 18.5384 23.0083 18.7159 23.1639 18.9442C23.9155 20.0482 25.0233 21.1895 26.1079 21.9728C26.3041 22.1145 26.6356 22.3458 26.7025 22.3861C26.9685 22.5487 27.2942 22.7456 27.3683 22.7874C27.4788 22.8501 28.1316 23.1843 28.2261 23.2275C28.2813 23.2514 28.3555 23.2857 28.5241 23.3633C28.5924 23.3946 28.8352 23.4961 28.9021 23.5199C28.9428 23.5349 28.9821 23.5513 28.9893 23.5572C28.9981 23.5632 29.046 23.5826 29.0984 23.6005C29.1507 23.6199 29.2059 23.6408 29.2219 23.6483C29.2888 23.6796 29.4008 23.7064 29.4633 23.7064C29.613 23.7064 29.7119 23.6169 29.786 23.4155C29.7977 23.3827 29.8209 23.3215 29.8369 23.2812C29.8791 23.1708 29.9067 23.0724 29.9329 22.9306C29.9474 22.8605 29.9663 22.7561 29.9779 22.6994C30.0041 22.5651 30.0361 22.3995 30.0739 22.1921C30.0899 22.1011 30.1131 21.9847 30.1233 21.931C30.1335 21.8773 30.1524 21.7804 30.1655 21.7147C30.1771 21.6491 30.1975 21.5416 30.2091 21.476C30.2542 21.2418 30.2745 21.1299 30.305 20.9613C30.3225 20.8673 30.3457 20.739 30.3574 20.6778C30.3937 20.4883 30.4184 20.3481 30.4431 20.2079C30.4562 20.1333 30.4751 20.0229 30.4868 19.9617C30.4969 19.9005 30.5202 19.7662 30.5376 19.6633C30.6336 19.1068 30.7412 18.9143 31.0043 18.8278C31.1701 18.7726 31.5539 18.7935 31.8679 18.8741C32.0104 18.9114 32.3375 19.0262 32.4087 19.065C32.4233 19.0725 32.4814 19.1008 32.5366 19.1277C32.9466 19.3231 33.4191 19.6916 33.7622 20.0855C34.3626 20.7733 34.652 21.4879 34.652 22.2876C34.652 22.5502 34.604 22.9351 34.5502 23.0947C34.5429 23.1156 34.5197 23.1902 34.4993 23.2633C34.4775 23.3349 34.4542 23.3976 34.447 23.4021C34.4397 23.4066 34.4339 23.42 34.4339 23.4319C34.4339 23.4692 34.2972 23.7408 34.2085 23.881C33.8349 24.4688 33.3028 24.8194 32.6021 24.9403C32.3985 24.9746 32.0147 24.9746 31.7007 24.9403C31.5684 24.9253 31.4056 24.9074 31.3372 24.9C31.2689 24.8925 31.1555 24.8821 31.0828 24.8776C31.0116 24.8731 30.8444 24.8582 30.7121 24.8463C30.5798 24.8328 30.4024 24.8254 30.3196 24.8284C30.1873 24.8328 30.1553 24.8388 30.0811 24.8761C29.9648 24.9343 29.8951 25.0014 29.8253 25.1268C29.7933 25.1835 29.7671 25.2342 29.7671 25.2387C29.7671 25.2446 29.7511 25.2819 29.7322 25.3237C29.7133 25.3655 29.6799 25.4401 29.6581 25.4893C29.6363 25.5385 29.5898 25.6415 29.5549 25.7176C29.52 25.7937 29.4909 25.8593 29.4909 25.8623C29.4909 25.8653 29.4575 25.9384 29.4182 26.0249C29.3048 26.2696 29.3048 26.4233 29.4182 26.4934C29.4429 26.5098 29.5752 26.5501 29.7133 26.5859C29.8514 26.6202 29.9968 26.6575 30.0361 26.6679C30.0768 26.6799 30.2076 26.7142 30.3268 26.744C30.4475 26.7739 30.574 26.8067 30.6103 26.8171C30.6467 26.8276 30.7252 26.847 30.7848 26.8619C30.8444 26.8753 30.9331 26.8962 30.9811 26.9066C31.3852 27.0006 31.8708 27.0633 32.195 27.0633C32.3753 27.0633 32.7445 27.029 32.9292 26.9947C33.7448 26.847 34.4848 26.4859 35.1317 25.9205C35.2887 25.7832 35.5301 25.5311 35.6798 25.3461C35.7961 25.2028 36.0171 24.8746 36.0941 24.7299C36.2148 24.5031 36.3646 24.16 36.4183 23.9899C36.4329 23.9451 36.4503 23.8914 36.4576 23.8706C36.4838 23.8019 36.5594 23.505 36.5899 23.3409C36.6568 23.0037 36.6742 22.7978 36.6742 22.3786C36.6742 22.1533 36.667 21.9161 36.6582 21.852C36.651 21.7893 36.6379 21.6879 36.6292 21.6267C36.6088 21.4641 36.5579 21.2209 36.4939 20.9732C36.4024 20.6271 36.193 20.1109 36.0244 19.817C35.8935 19.5917 35.8368 19.4992 35.7365 19.3574C35.3062 18.7383 34.7799 18.2489 34.1068 17.8401C33.9643 17.7551 33.6197 17.5746 33.4933 17.5209C33.4671 17.5089 33.4235 17.491 33.3988 17.4791C32.9059 17.2568 32.0235 17.0196 31.3372 16.9256C30.872 16.8614 30.7426 16.7719 30.6787 16.4706C30.6496 16.3303 30.5784 15.6858 30.5595 15.374C30.5173 14.6996 30.401 13.7373 30.2905 13.1585C30.2818 13.1137 30.2658 13.0227 30.2542 12.957C30.228 12.8183 30.1945 12.6512 30.1655 12.5244C30.1553 12.4751 30.132 12.3737 30.116 12.3006C30.1 12.226 30.0695 12.0992 30.0477 12.0171C30.0274 11.9351 30.007 11.8515 30.0041 11.8306C29.9997 11.8097 29.9794 11.7366 29.9605 11.6665C29.9401 11.5964 29.9212 11.5263 29.9169 11.5099C29.9052 11.4576 29.8529 11.2726 29.8325 11.2115C29.8224 11.1787 29.7802 11.0414 29.738 10.9056C29.6973 10.7699 29.6566 10.646 29.6494 10.6296C29.6421 10.6132 29.6203 10.5491 29.6014 10.4879C29.581 10.4267 29.5505 10.3387 29.5345 10.2939C29.5171 10.2492 29.4982 10.1955 29.4909 10.1746C29.4836 10.1537 29.4516 10.0672 29.4182 9.98063C29.3848 9.8941 29.3528 9.80608 29.3455 9.78519C29.3397 9.7643 29.3281 9.73446 29.3193 9.71805C29.3106 9.70313 29.2801 9.62854 29.251 9.55543C29.2219 9.48083 29.19 9.40027 29.1783 9.3764C29.1667 9.35104 29.1405 9.29136 29.1202 9.24212C29.0155 8.99894 28.9094 8.83333 28.7538 8.67519C28.5895 8.5066 28.5038 8.45737 28.2333 8.3768C28.1854 8.36188 28.1229 8.34249 28.0952 8.33204C28.0676 8.3216 28.0022 8.30071 27.9498 8.28729C27.8975 8.27237 27.8263 8.25297 27.7899 8.24104C27.6838 8.20971 27.3523 8.13063 27.1721 8.09483C26.6022 7.98144 26.1631 7.94712 25.5583 7.96801ZM26.3797 10.5908C26.4553 10.6326 26.6385 10.8042 26.64 10.8355C26.6414 10.8579 26.544 10.9907 26.3855 11.1787C26.3565 11.2145 26.3288 11.2339 26.3128 11.2309C26.2838 11.2249 25.9886 10.8355 25.9886 10.8012C25.9872 10.7564 26.2343 10.564 26.2925 10.564C26.3128 10.564 26.3521 10.5759 26.3797 10.5908ZM25.1643 10.7012C25.2763 10.8116 25.2894 10.831 25.2894 10.8788C25.2894 10.9086 25.2748 10.9623 25.2574 10.9981C25.2138 11.0832 24.9841 11.4129 24.9681 11.4129C24.9317 11.4129 24.6933 11.019 24.6933 10.9579C24.6933 10.9161 24.7471 10.8251 24.8052 10.7684C24.8765 10.6997 25.0175 10.5789 25.0291 10.5789C25.0349 10.5774 25.096 10.6326 25.1643 10.7012ZM23.8326 10.7639C23.8922 10.7982 24.2135 11.0951 24.2135 11.1145C24.2135 11.1324 23.8588 11.3637 23.8036 11.3816C23.7207 11.4099 23.6436 11.3786 23.5331 11.2712C23.4183 11.1622 23.3907 11.1056 23.4154 11.028C23.4474 10.9235 23.5855 10.7699 23.6756 10.737C23.7221 10.7206 23.773 10.7281 23.8326 10.7639ZM27.6416 10.8355C27.7172 10.8728 27.9498 11.0339 27.9673 11.0608C27.9818 11.0832 27.9818 11.1622 27.9673 11.1861C27.9455 11.2204 27.6911 11.3651 27.6184 11.3845C27.5544 11.401 27.537 11.3995 27.4788 11.3771C27.4425 11.3622 27.3814 11.3219 27.3436 11.2876C27.3058 11.2533 27.2564 11.2085 27.2346 11.1891C27.2113 11.1697 27.1939 11.1443 27.1939 11.1339C27.1939 11.11 27.3305 10.9295 27.4076 10.8534C27.4715 10.7893 27.5384 10.7848 27.6416 10.8355ZM22.7757 11.2965C22.8833 11.4129 22.9705 11.5158 22.9705 11.5248C22.9705 11.5427 22.86 11.6352 22.7016 11.7486C22.6347 11.7963 22.6085 11.8068 22.5489 11.8068C22.4864 11.8083 22.466 11.8008 22.4122 11.7575C22.3308 11.6904 22.2509 11.5681 22.2509 11.5084C22.2509 11.48 22.2727 11.4293 22.3076 11.3741C22.373 11.2697 22.5373 11.0847 22.562 11.0847C22.5722 11.0847 22.6681 11.1801 22.7757 11.2965ZM25.9654 12.8362C26.214 12.8765 26.3957 12.9197 26.5469 12.9735C26.5804 12.9854 26.6138 12.9943 26.624 12.9943C26.6341 12.9943 26.6705 13.0063 26.7039 13.0212C26.7374 13.0361 26.7941 13.06 26.8304 13.0749C27.2782 13.2569 27.8306 13.6553 27.8713 13.8254C27.8975 13.9313 27.8437 14.0118 27.6097 14.2088C27.3334 14.4415 27.0252 14.6489 26.7519 14.7832C26.4626 14.9264 26.3027 14.9861 25.9814 15.0681C25.6935 15.1427 25.5045 15.1606 25.0597 15.1532C24.641 15.1472 24.5683 15.1397 24.2935 15.0741C24.2382 15.0607 24.1656 15.0413 24.1336 15.0308C24.1016 15.0204 24.0333 14.998 23.9809 14.9816C23.6916 14.8891 23.2874 14.6758 22.9749 14.4535C22.6594 14.2267 22.6536 14.0954 22.9473 13.8C23.4532 13.2897 24.1656 12.9436 24.9259 12.8377C25.1643 12.8049 25.205 12.8034 25.5292 12.8079C25.6979 12.8108 25.8811 12.8228 25.9654 12.8362ZM28.3991 14.8011C28.4674 14.8175 28.5314 14.8369 28.5386 14.8443C28.5474 14.8503 28.5692 14.8608 28.5895 14.8667C28.6288 14.8787 28.8977 15.0114 28.9457 15.0428C29.2932 15.2695 29.4894 15.4411 29.6494 15.6589C29.786 15.8439 29.8296 15.9916 29.7817 16.1185C29.7686 16.1543 29.7613 16.1572 29.6857 16.1572C29.5941 16.1572 29.6232 16.1751 29.2176 15.8827C29.078 15.7843 28.9544 15.6947 28.9414 15.6873C28.9283 15.6783 28.8774 15.6425 28.8265 15.6052C28.7771 15.5679 28.6855 15.5008 28.6244 15.456C28.5634 15.4113 28.4572 15.3337 28.3918 15.2845C28.0458 15.0293 28.0531 15.0368 28.0313 14.9697C28.0036 14.8861 28.0153 14.8503 28.0792 14.807C28.1461 14.7608 28.2333 14.7593 28.3991 14.8011ZM27.5064 15.7156C27.7885 15.7679 27.992 15.8857 28.2421 16.1423C28.4529 16.3587 28.5939 16.5914 28.6622 16.8391C28.6971 16.9614 28.7044 17.2613 28.6739 17.2613C28.6637 17.2613 28.5575 17.1494 28.4369 17.0106C28.3177 16.8734 28.1796 16.7182 28.1301 16.6645C28.0821 16.6108 27.9804 16.4974 27.9062 16.4109C27.8321 16.3243 27.6882 16.1602 27.5878 16.0454C27.3509 15.7768 27.3102 15.7261 27.3102 15.7097C27.3102 15.6888 27.3712 15.6918 27.5064 15.7156ZM26.6632 16.2691C26.8391 16.3661 27.0034 16.5332 27.1561 16.7689C27.3581 17.0837 27.4701 17.4448 27.4686 17.7835C27.4686 17.9461 27.4483 18.0281 27.4047 18.0341C27.3872 18.0371 27.3363 18.0087 27.284 17.9685C27.0412 17.7835 26.7563 17.2926 26.6211 16.8286C26.5426 16.5556 26.5178 16.2318 26.576 16.2318C26.5847 16.2318 26.6254 16.2483 26.6632 16.2691ZM24.6177 16.672C24.8023 16.7674 24.8896 17.0972 24.8329 17.4866C24.7733 17.8909 24.6206 18.2206 24.388 18.4444C24.2819 18.5488 24.2034 18.5995 24.1845 18.5787C24.1786 18.5727 24.1815 18.513 24.1917 18.4474C24.231 18.2072 24.3022 17.6611 24.3357 17.3359C24.3487 17.2165 24.3705 17.0405 24.3836 16.9435C24.4054 16.7824 24.4113 16.763 24.4578 16.7093C24.5116 16.6436 24.5465 16.6362 24.6177 16.672ZM25.6237 16.7943C25.7459 16.8585 25.9101 17.0345 25.977 17.1747C26.0061 17.2374 26.0308 17.2986 26.0308 17.309C26.0308 17.3195 26.0395 17.3463 26.0512 17.3687C26.0628 17.3911 26.0759 17.4299 26.0817 17.4567C26.0875 17.4851 26.0977 17.5164 26.105 17.5298C26.1268 17.5701 26.1631 17.7432 26.1718 17.8431C26.1791 17.9326 26.1689 18.0251 26.1326 18.2072C26.1253 18.2474 26.1122 18.2877 26.1064 18.2967C26.1006 18.3056 26.0802 18.3534 26.0613 18.4026C26.0424 18.4518 26.0177 18.5026 26.0075 18.516C25.9959 18.5279 25.9872 18.5473 25.9872 18.5563C25.9872 18.5801 25.9145 18.6339 25.884 18.6339C25.8404 18.6339 25.7982 18.5801 25.7982 18.5264C25.7982 18.4996 25.7895 18.428 25.7778 18.3653C25.7662 18.3041 25.7459 18.1863 25.7328 18.1042C25.7197 18.0222 25.6993 17.9043 25.6892 17.8431C25.679 17.782 25.6659 17.7014 25.6601 17.6641C25.6543 17.6268 25.6412 17.5462 25.631 17.4851C25.6208 17.4239 25.6005 17.306 25.5874 17.224C25.5743 17.1419 25.554 17.0256 25.5423 16.9659C25.5205 16.848 25.5162 16.754 25.5336 16.754C25.5394 16.754 25.5801 16.7719 25.6237 16.7943Z" fill="black"/>
<path d="M17.177 8.83181C17.0854 8.83778 16.9603 8.84972 16.9007 8.85867C16.8411 8.86762 16.7394 8.88403 16.6754 8.89298C16.0677 8.9825 15.838 9.06605 15.7566 9.22568C15.665 9.40621 15.6693 9.55988 15.7886 10.3237C15.8874 10.9578 15.9034 11.1712 15.9034 11.8455C15.9049 12.405 15.8889 12.8183 15.8525 13.2181C15.8453 13.3046 15.8322 13.4449 15.8249 13.5314C15.7958 13.8432 15.7159 14.431 15.6577 14.7399C15.6461 14.801 15.6301 14.8921 15.6199 14.9413C15.5705 15.2098 15.5443 15.3396 15.5123 15.4709C15.5007 15.5157 15.4687 15.6529 15.4382 15.7768C15.4091 15.8991 15.3771 16.0304 15.367 16.0677C15.3568 16.105 15.3364 16.1781 15.3233 16.2318C15.3088 16.2855 15.2899 16.3556 15.2783 16.3885C15.2681 16.4213 15.2361 16.5287 15.2056 16.6272C15.1402 16.8495 15.0224 17.2105 14.9817 17.3209C14.9642 17.3657 14.9439 17.4239 14.9366 17.4507C14.9294 17.4776 14.9134 17.5179 14.9017 17.5402C14.8901 17.5626 14.8799 17.5895 14.8799 17.5999C14.8799 17.6104 14.8697 17.6432 14.8567 17.6745C14.8203 17.7581 14.813 17.779 14.7593 17.9177C14.5688 18.4085 14.281 19.0396 14.0614 19.4469C14.0222 19.52 13.9727 19.611 13.9538 19.6483C13.9233 19.7035 13.8579 19.8184 13.6805 20.1228C13.6718 20.1362 13.6311 20.2019 13.5904 20.2675C13.5221 20.3749 13.4843 20.4316 13.3316 20.6644C13.288 20.73 13.0147 21.1075 12.8998 21.2611C12.5582 21.7147 11.9199 22.4084 11.4707 22.8127C10.9241 23.3036 10.3615 23.7348 9.84535 24.06C9.78283 24.0988 9.71596 24.1421 9.69706 24.154C9.67816 24.1659 9.61419 24.2047 9.55604 24.2405C9.49788 24.2763 9.43973 24.3106 9.4281 24.3196C9.41647 24.3271 9.39612 24.3375 9.38449 24.3435C9.37286 24.3494 9.33069 24.3718 9.2929 24.3957C9.25364 24.4181 9.1795 24.4613 9.12571 24.4912C9.07191 24.521 8.99632 24.5643 8.95561 24.5867C8.91636 24.609 8.83203 24.6553 8.77097 24.6896C8.47876 24.8477 8.42642 24.8776 8.33774 24.9268C8.2854 24.9552 8.19672 25.0029 8.14147 25.0342C7.84634 25.1939 7.62973 25.3147 7.55994 25.3595C7.36368 25.4833 7.34768 25.5892 7.49161 25.8175C7.52796 25.8742 7.59193 25.9771 7.63409 26.0443C7.7533 26.2323 7.87106 26.4202 7.92776 26.5112C8.18363 26.923 8.23742 27.0051 8.28831 27.0633C8.345 27.1259 8.41188 27.1468 8.50492 27.1289C8.53982 27.1229 8.77679 26.9693 9.2202 26.6664C9.58511 26.4173 9.8846 26.2129 9.88605 26.2129C9.89623 26.2129 11.3093 25.2386 11.6016 25.0298C12.4593 24.4196 13.1382 23.7616 13.9669 22.7367C14.0861 22.5904 14.3856 22.1802 14.5964 21.8788C14.8043 21.5804 14.9613 21.3715 15.0137 21.3268C15.1794 21.1821 15.3306 21.1373 15.5589 21.1701C15.6374 21.1806 15.7173 21.1955 15.7377 21.2029C15.758 21.2104 15.8002 21.2223 15.8322 21.2298C15.8642 21.2358 15.9427 21.2567 16.0066 21.2746C16.0706 21.2925 16.1855 21.3223 16.2611 21.3417C16.3367 21.3611 16.4282 21.385 16.4646 21.3954C16.6987 21.4551 17.2104 21.555 17.4968 21.5938C17.9795 21.661 18.0798 21.6684 18.6235 21.6684C19.2603 21.6684 19.4769 21.649 20.0337 21.5342C20.3056 21.479 20.4015 21.4551 20.6734 21.37C20.7141 21.3581 20.7664 21.3417 20.7897 21.3342C20.8144 21.3283 20.8987 21.2969 20.9787 21.2671C21.0587 21.2358 21.1503 21.2015 21.1822 21.1895C21.2142 21.1776 21.2491 21.1597 21.2607 21.1507C21.2709 21.1403 21.3262 21.1343 21.3858 21.1343C21.489 21.1358 21.5253 21.1462 21.6518 21.2119C21.7332 21.2552 22.5881 21.9996 23.2103 22.5725C23.5883 22.9202 23.8922 23.1827 24.2658 23.4901C24.6321 23.79 24.763 23.8914 25.2907 24.2838C25.4259 24.3852 26.0336 24.797 26.2343 24.9253C26.4727 25.0775 26.7693 25.258 26.7794 25.258C26.7823 25.258 26.8231 25.2804 26.8696 25.3087C26.9161 25.3371 27.0033 25.3863 27.0629 25.4206C27.1836 25.4878 27.9236 25.8652 28.0152 25.9055C28.0472 25.9204 28.0937 25.9413 28.117 25.9518C28.4194 26.0935 28.5066 26.1233 28.6316 26.1233C28.7232 26.1233 28.7377 26.1189 28.7944 26.0756C28.8715 26.0144 28.8962 25.9682 29.0009 25.6981C29.0212 25.6459 29.3149 25.0477 29.3309 25.0268C29.3556 24.9925 29.4312 24.7776 29.4414 24.7135C29.4661 24.5359 29.344 24.4106 28.8947 24.1585C28.8511 24.1331 28.7566 24.0794 28.6839 24.0391C28.6127 23.9973 28.508 23.9392 28.4513 23.9078C28.3961 23.8765 28.3438 23.8467 28.335 23.8407C28.3278 23.8347 28.2754 23.8049 28.2187 23.7735C28.0254 23.6676 27.928 23.6124 27.9134 23.602C27.9062 23.596 27.8538 23.5662 27.7971 23.5348C27.6139 23.4349 27.5078 23.3737 27.4555 23.3409C27.4278 23.323 27.3595 23.2827 27.3028 23.2514C27.1763 23.1812 26.5047 22.771 26.3869 22.6904C26.3389 22.6591 26.2895 22.6277 26.2779 22.6218C26.1921 22.58 25.5873 22.1444 25.2675 21.8952C25.0029 21.6878 25.0014 21.6863 24.6714 21.3999C23.568 20.4435 22.5663 19.2142 21.8117 17.8879C21.6533 17.6104 21.3785 17.0733 21.2709 16.8286C21.2462 16.7749 21.2084 16.6913 21.1866 16.6421C21.1633 16.5929 21.1081 16.4646 21.0645 16.3586C21.0209 16.2512 20.9787 16.1512 20.9714 16.1348C20.9583 16.105 20.9133 15.9901 20.8769 15.8887C20.8653 15.8603 20.8377 15.7842 20.813 15.7186C20.7883 15.6544 20.7679 15.5948 20.7679 15.5873C20.7679 15.5783 20.7577 15.5515 20.7461 15.5261C20.6763 15.371 20.464 14.6489 20.3536 14.1879C20.2605 13.8 20.2169 13.5866 20.1369 13.1137C20.0032 12.3349 19.9392 11.3785 19.9392 10.1746C19.9407 9.52855 19.932 9.47633 19.8098 9.31072C19.7022 9.16153 19.5714 9.09141 19.2487 9.00637C19.0262 8.94669 18.9085 8.92282 18.5363 8.86165C18.2891 8.81988 17.6015 8.80496 17.177 8.83181ZM18.1365 13.5433C18.1961 13.5896 18.2615 13.6552 18.2833 13.6881C18.3269 13.7522 18.3633 13.9014 18.4054 14.1729C18.4272 14.3177 18.4418 14.3878 18.4941 14.5832C18.5494 14.7981 18.5784 14.9025 18.5944 14.9562C18.6046 14.989 18.6235 15.0562 18.638 15.1054C18.6511 15.1546 18.6715 15.2218 18.6817 15.2546C18.6918 15.2874 18.7253 15.3948 18.7544 15.4933C18.7834 15.5918 18.814 15.6873 18.8198 15.7037C18.827 15.7216 18.859 15.8185 18.8925 15.92C18.9259 16.0215 18.9623 16.1259 18.9739 16.1527C18.9855 16.1781 18.9942 16.2065 18.9942 16.2154C18.9942 16.2244 19.0044 16.2527 19.0146 16.2796C19.0262 16.3064 19.0567 16.3855 19.0829 16.4556C19.1323 16.5914 19.2167 16.8077 19.2472 16.8808C19.2588 16.9047 19.3039 17.0166 19.3504 17.127C19.5423 17.588 19.9116 18.3489 20.1209 18.7114C20.2242 18.8904 20.2881 19.0531 20.2881 19.1366C20.2881 19.244 20.2009 19.3544 20.0701 19.4141C20.0148 19.4395 19.8171 19.5066 19.6412 19.5588C19.6179 19.5663 19.5525 19.5857 19.4958 19.6036C19.4406 19.62 19.3621 19.6439 19.3213 19.6543C19.2821 19.6662 19.1905 19.6916 19.1178 19.714C19.0466 19.7349 18.9477 19.7632 18.8997 19.7767C18.8518 19.7901 18.7834 19.8095 18.7471 19.8214C18.7107 19.8319 18.6322 19.8557 18.5726 19.8721C18.513 19.89 18.4316 19.9124 18.3909 19.9244C18.2426 19.9676 18.2441 19.9676 18.0449 19.902C17.9388 19.8677 17.8297 19.8304 17.8021 19.8199C17.7745 19.8095 17.5448 19.7319 17.2933 19.6469C17.0418 19.5618 16.8251 19.4887 16.8135 19.4812C16.8019 19.4753 16.7394 19.4529 16.6754 19.432C16.5082 19.3753 16.4384 19.3291 16.405 19.256C16.3599 19.1515 16.3657 19.1038 16.4864 18.6711C16.5067 18.5965 16.5329 18.4996 16.546 18.4548C16.5576 18.41 16.578 18.3384 16.5896 18.2981C16.6289 18.1609 16.6856 17.9565 16.7045 17.8804C16.7263 17.7939 16.7873 17.5686 16.8629 17.2985C16.8746 17.2568 16.908 17.1329 16.9371 17.0225C16.9662 16.9121 16.9981 16.7913 17.0098 16.754C17.0199 16.7167 17.0388 16.6436 17.0534 16.5899C17.0679 16.5362 17.0868 16.4631 17.097 16.4258C17.1072 16.3885 17.129 16.3049 17.1464 16.2393C17.193 16.0617 17.2191 15.9648 17.2438 15.8737C17.2569 15.829 17.2758 15.7574 17.286 15.7171C17.2976 15.6753 17.3165 15.6052 17.3282 15.5604C17.3834 15.3546 17.443 15.1308 17.4532 15.0905C17.459 15.0651 17.4794 14.992 17.4968 14.9264C17.5986 14.5489 17.6364 14.3878 17.664 14.2252C17.7149 13.9223 17.7454 13.7821 17.773 13.7209C17.8108 13.6418 17.9707 13.4568 18.0027 13.4568C18.0173 13.4568 18.0769 13.4956 18.1365 13.5433Z" fill="black"/>
<path d="M11.3255 9.02134C10.9446 9.03178 10.2104 9.12876 9.62448 9.24364C9.50963 9.26751 9.45439 9.27795 9.1738 9.33912C8.96881 9.38388 8.59663 9.47489 8.43962 9.51964C8.40327 9.5286 8.35094 9.54202 8.32331 9.54948C8.29569 9.55545 8.18084 9.58529 8.0689 9.61513C7.95695 9.64497 7.83338 9.67928 7.79267 9.68972C7.75342 9.70017 7.66764 9.72404 7.60367 9.74194C7.53971 9.75985 7.45248 9.78372 7.41177 9.79565C7.30855 9.824 7.19806 9.85533 7.10938 9.88218C6.84187 9.96424 6.68341 10.0881 6.59327 10.2865C6.55547 10.37 6.53802 10.4357 6.46097 10.7714C6.44498 10.8415 6.42608 10.9221 6.41881 10.9504C6.41154 10.9788 6.39119 11.0623 6.3752 11.1369C6.35775 11.21 6.33594 11.3085 6.32431 11.3532C6.29524 11.4666 6.18329 11.947 6.0917 12.3454C6.00883 12.7109 5.90561 13.2614 5.86054 13.5762C5.76605 14.2446 5.7108 14.919 5.67009 15.9036C5.5945 17.782 5.59886 17.6999 5.56251 17.8208C5.53053 17.9357 5.47092 18.0192 5.38805 18.0729C5.28629 18.1386 5.09583 18.1818 4.47796 18.2758C4.12904 18.3295 4.05345 18.3444 3.85282 18.3952C3.76559 18.4175 3.48646 18.51 3.44575 18.5294C3.42976 18.5369 3.38033 18.5578 3.33671 18.5757C3.16807 18.6443 2.74792 18.8636 2.69558 18.9114C2.68395 18.9233 2.66796 18.9323 2.66359 18.9323C2.65778 18.9323 2.6098 18.9636 2.55456 19.0024C2.50077 19.0412 2.43825 19.0859 2.41354 19.1023C2.18093 19.268 1.77822 19.6469 1.54706 19.9169C1.43802 20.0452 1.24903 20.2959 1.15017 20.4436C0.993155 20.6823 0.77799 21.0851 0.682038 21.3268C0.661685 21.3761 0.639877 21.4298 0.631154 21.4462C0.578817 21.5581 0.466873 21.9236 0.421804 22.1325C0.360744 22.4159 0.330214 22.5979 0.318583 22.7471C0.314222 22.8158 0.304045 22.871 0.296776 22.871C0.289507 22.871 0.283691 23.053 0.283691 23.2887C0.283691 23.52 0.289507 23.7065 0.296776 23.7065C0.304045 23.7065 0.314222 23.7646 0.318583 23.8363C0.338937 24.0914 0.404358 24.4375 0.506126 24.8254C0.55701 25.0149 0.699484 25.4267 0.77799 25.6087C0.791075 25.6415 0.814336 25.6952 0.828874 25.728C1.02659 26.192 1.33044 26.6515 1.6561 26.9798C2.18383 27.5094 2.9689 27.9227 3.7874 28.0987C4.10288 28.1659 4.20174 28.1748 4.68877 28.1748C5.10165 28.1733 5.18597 28.1688 5.36479 28.1405C5.69917 28.0868 6.06553 28.0062 6.20074 27.9585C6.22109 27.951 6.28651 27.9316 6.34612 27.9137C6.40573 27.8958 6.50168 27.8645 6.55692 27.8436C6.61362 27.8242 6.67904 27.8018 6.70231 27.7944C6.75755 27.7779 6.8346 27.7481 6.97126 27.6914C7.03087 27.6661 7.08466 27.6452 7.09048 27.6452C7.09774 27.6452 7.14572 27.6243 7.19951 27.5989C7.25476 27.575 7.31873 27.5452 7.34199 27.5348C7.61676 27.4124 7.68363 27.3527 7.68363 27.2334C7.68363 27.1573 7.65165 27.0812 7.55424 26.9216C7.49464 26.8231 7.42631 26.7082 7.28965 26.4815C7.28238 26.4695 7.21405 26.3487 7.137 26.2129C6.97272 25.925 6.90584 25.8295 6.82152 25.7713C6.76337 25.7295 6.75319 25.728 6.60054 25.7295C6.51331 25.731 6.41445 25.7385 6.38247 25.7489C6.35048 25.7594 6.29233 25.7728 6.25162 25.7802C6.21237 25.7877 6.12078 25.8071 6.04809 25.8235C5.37351 25.9712 4.88212 26.0488 4.23808 26.11C4.00983 26.1309 3.82665 26.11 3.60858 26.0324C3.53298 26.007 3.50536 25.9936 3.43848 25.9578C3.42685 25.9503 3.3876 25.9309 3.35125 25.9115C3.312 25.8907 3.19133 25.7802 3.0445 25.6311C2.7232 25.3028 2.57346 25.0954 2.39173 24.7284C2.33794 24.621 2.29142 24.5211 2.2856 24.5046C2.28124 24.4882 2.26234 24.4345 2.24635 24.3853C2.20128 24.254 2.16203 24.1108 2.12713 23.9392C2.09951 23.8064 2.09515 23.7393 2.09515 23.3857C2.09515 22.9157 2.10387 22.8516 2.24635 22.3115C2.25798 22.2682 2.27542 22.2145 2.31322 22.1101C2.60544 21.285 3.1041 20.6942 3.79467 20.3496C3.88335 20.3063 3.96622 20.2646 3.9793 20.2586C4.02728 20.2332 4.27152 20.1467 4.34857 20.1273C4.3791 20.1184 4.44452 20.1019 4.4925 20.0885C4.68586 20.0378 4.99261 19.9915 5.13363 19.9915C5.28192 19.9915 5.43167 20.0229 5.53198 20.0751C5.73406 20.1795 5.91143 20.4257 6.00447 20.7375C6.01756 20.7823 6.03791 20.8464 6.04809 20.8792C6.05826 20.9121 6.07862 20.9792 6.0917 21.0284C6.10624 21.0777 6.12659 21.1448 6.13532 21.1776C6.14549 21.2104 6.16439 21.2746 6.17748 21.3194C6.26907 21.6371 6.4508 22.2578 6.46097 22.2891C6.46824 22.31 6.48859 22.3771 6.50749 22.4383C6.52494 22.4995 6.55838 22.6069 6.57873 22.677C6.60054 22.7471 6.63979 22.874 6.66596 22.9605C6.69213 23.047 6.72411 23.1544 6.73865 23.1992C6.75319 23.244 6.79826 23.3917 6.84042 23.5274C7.08611 24.339 7.10647 24.4017 7.14572 24.4852C7.20387 24.6121 7.33326 24.7061 7.45102 24.7061C7.52081 24.7061 7.65165 24.6583 7.74179 24.6016C7.75342 24.5942 7.85518 24.533 7.96713 24.4673C8.07907 24.4017 8.18084 24.3405 8.19247 24.3331C8.2041 24.3241 8.22446 24.3137 8.23609 24.3077C8.24772 24.3017 8.38292 24.2227 8.53412 24.1317C8.68677 24.0407 8.82052 23.9616 8.83215 23.9556C8.84378 23.9496 8.87431 23.9317 8.89757 23.9168C8.92229 23.9004 8.97463 23.8691 9.01388 23.8482C9.05459 23.8258 9.09675 23.799 9.10983 23.787C9.12146 23.7751 9.13745 23.7661 9.14327 23.7661C9.15054 23.7661 9.18398 23.7452 9.22032 23.7214C9.25521 23.696 9.2872 23.6766 9.29011 23.6766C9.29592 23.6766 9.6114 23.4797 9.83529 23.3365C10.536 22.8874 10.8006 22.6755 11.2688 22.1936C11.6802 21.7699 12.0204 21.3447 12.5612 20.5809C12.8956 20.1094 12.9915 19.9751 13.0918 19.8349C13.339 19.4917 13.4044 19.3798 13.464 19.2008C13.5062 19.0725 13.5018 18.8069 13.4553 18.6786C13.4088 18.5488 13.3608 18.4578 13.2561 18.3042C13.2081 18.234 13.1398 18.1281 13.1049 18.0684C13.07 18.0088 13.0293 17.9431 13.0162 17.9207C13.0017 17.8984 12.9755 17.8506 12.9552 17.8133C12.9363 17.776 12.8709 17.6596 12.8098 17.5552C12.7487 17.4493 12.6993 17.3523 12.6993 17.3374C12.6993 17.3105 12.7851 17.2165 12.8113 17.2165C12.8432 17.2165 13.1093 17.3642 13.1834 17.4239C13.2256 17.4567 13.3564 17.5776 13.4757 17.6925C13.999 18.1997 14.0543 18.1938 14.2753 17.6194C14.3058 17.5418 14.3436 17.4433 14.3596 17.403C14.393 17.324 14.4032 17.2956 14.5093 17.0077C14.6649 16.584 14.8146 16.1095 14.9033 15.7544C14.9571 15.5366 14.9716 15.474 14.9818 15.4188C14.9876 15.3859 15.008 15.2949 15.024 15.2173C15.0414 15.1398 15.0632 15.0353 15.0705 14.9876C15.0792 14.9384 15.0879 14.8951 15.0908 14.8891C15.101 14.8727 15.2101 14.1536 15.2348 13.9492C15.37 12.778 15.3714 11.7426 15.2348 10.57C15.2231 10.4625 15.2042 10.3148 15.1926 10.2417C15.181 10.1671 15.1679 10.0776 15.1635 10.0403C15.1505 9.94485 15.117 9.75388 15.0894 9.62259C15.0298 9.33912 14.9324 9.18694 14.7594 9.10936C14.7172 9.08997 14.6227 9.06759 14.5457 9.05714C14.3509 9.03178 11.8706 9.00493 11.3255 9.02134ZM11.231 10.8355C11.3007 10.8609 11.3531 10.8967 11.4636 10.9952C11.5159 11.0414 11.5799 11.0951 11.606 11.1145C11.6322 11.1354 11.6526 11.1608 11.6497 11.1742C11.6438 11.21 11.3429 11.4965 11.276 11.5323C11.1859 11.5785 11.1554 11.5711 11.0609 11.4815C10.9649 11.3905 10.8966 11.2682 10.8966 11.1876C10.8966 11.0907 10.9954 10.9325 11.1045 10.8564C11.1713 10.8102 11.1655 10.8117 11.231 10.8355ZM10.1246 11.0534C10.2453 11.1623 10.3398 11.2577 10.3354 11.2652C10.331 11.2727 10.2554 11.3368 10.1653 11.4069C10.0068 11.5323 9.88326 11.6069 9.83093 11.6069C9.75678 11.6069 9.54452 11.3995 9.54452 11.3279C9.54452 11.2727 9.60268 11.1742 9.74224 10.9952C9.81639 10.8997 9.86582 10.8475 9.88181 10.8505C9.89489 10.8519 10.0054 10.943 10.1246 11.0534ZM12.6499 11.022C12.7197 11.0698 12.9319 11.2518 12.9319 11.2637C12.9319 11.2786 12.9087 11.3025 12.7865 11.4144C12.5946 11.5919 12.5408 11.6173 12.4551 11.5711C12.3577 11.5173 12.2341 11.3458 12.2341 11.2622C12.2341 11.1667 12.4449 10.9802 12.5539 10.9802C12.5743 10.9802 12.6164 10.9982 12.6499 11.022ZM13.8958 11.3189C14.0572 11.5755 14.0586 11.577 14.0586 11.668C14.0586 11.765 14.0426 11.7934 13.8842 11.9739L13.7853 12.0873L13.6995 11.9992C13.5483 11.8486 13.4553 11.7083 13.4553 11.6307C13.4553 11.5875 13.5149 11.495 13.637 11.3458C13.6908 11.2801 13.7417 11.2145 13.7519 11.1996C13.7606 11.1861 13.7766 11.1742 13.7853 11.1742C13.7955 11.1742 13.8464 11.2398 13.8958 11.3189ZM8.69549 11.3055C8.75655 11.3398 9.05022 11.6203 9.05022 11.6457C9.05022 11.6695 8.75946 11.8844 8.67369 11.9232C8.58936 11.9619 8.53266 11.95 8.44689 11.8724C8.35385 11.7889 8.30587 11.7053 8.30587 11.6352C8.30732 11.5338 8.43817 11.3652 8.56174 11.3025C8.61844 11.2727 8.64025 11.2742 8.69549 11.3055ZM7.63711 11.9336C7.75051 12.035 7.84355 12.1275 7.84355 12.1395C7.84355 12.1619 7.6502 12.3543 7.56006 12.4215C7.52517 12.4453 7.47138 12.4752 7.44085 12.4856C7.38851 12.5035 7.37688 12.502 7.32018 12.4722C7.23877 12.4289 7.1181 12.3125 7.09338 12.2544C7.05849 12.1678 7.09193 12.0992 7.29546 11.8486C7.36089 11.7695 7.40159 11.7307 7.41322 11.7382C7.4234 11.7441 7.52371 11.8321 7.63711 11.9336ZM11.4781 13.515C11.7805 13.5613 11.9768 13.609 12.2733 13.709C12.5001 13.7866 12.5743 13.8149 12.7284 13.8806C12.9784 13.988 13.3463 14.176 13.4306 14.2416C13.5556 14.3356 13.5774 14.4386 13.5004 14.5654C13.4393 14.6668 13.0802 15.001 12.852 15.1666C12.7415 15.2487 12.4725 15.4128 12.362 15.468C12.2559 15.5217 11.9826 15.6351 11.9622 15.6351C11.952 15.6351 11.923 15.644 11.8968 15.656C11.8038 15.6963 11.5159 15.7604 11.2818 15.7917C11.0507 15.8246 10.5985 15.8246 10.3674 15.7932C10.1261 15.7589 9.84837 15.6977 9.75097 15.656C9.7248 15.644 9.69572 15.6351 9.68554 15.6351C9.66519 15.6351 9.39187 15.5202 9.28574 15.468C8.99934 15.3248 8.57192 15.0234 8.48324 14.9011C8.46579 14.8757 8.44689 14.825 8.44253 14.7892C8.43671 14.7325 8.44253 14.7131 8.48905 14.643C8.58355 14.5027 8.97463 14.17 9.26539 13.982C9.33081 13.9388 9.38896 13.9044 9.39187 13.9044C9.39478 13.9044 9.42967 13.885 9.46747 13.8627C9.60413 13.7821 9.88763 13.6642 10.097 13.6016C10.2816 13.5464 10.5535 13.4971 10.7585 13.4807C10.9068 13.4688 11.2877 13.4882 11.4781 13.515ZM8.23172 16.481C8.27389 16.5288 8.30732 16.578 8.30442 16.5899C8.2986 16.6123 7.90752 17.1897 7.77813 17.3657C7.65601 17.5313 7.49609 17.7208 7.43212 17.7745C7.37397 17.8238 7.1777 17.9327 7.14717 17.9327C7.13991 17.9327 7.11374 17.9431 7.08902 17.955C7.06431 17.967 7.0236 17.9879 6.99889 17.9998C6.97417 18.0117 6.94509 18.0222 6.93346 18.0222C6.91166 18.0222 6.90584 17.9774 6.92619 17.9536C6.93201 17.9461 6.9858 17.8461 7.0425 17.7313C7.10065 17.6164 7.18934 17.4612 7.24022 17.3881C7.4045 17.1509 7.43212 17.1136 7.84355 16.5869C7.90461 16.5094 7.9555 16.4736 8.0907 16.4139C8.14595 16.39 8.1474 16.39 8.23172 16.481ZM8.99934 16.9301C9.07349 16.9957 9.09384 17.033 9.10692 17.136C9.15054 17.4508 8.95863 17.8819 8.62716 18.2087C8.4905 18.343 8.38292 18.422 8.25208 18.4802C8.20701 18.4996 8.15903 18.522 8.14595 18.5309C8.11106 18.5503 8.07617 18.5473 8.07617 18.5265C8.07617 18.5175 8.10233 18.4548 8.13286 18.3892C8.19102 18.2639 8.25644 18.1207 8.33785 17.9401C8.36257 17.8819 8.39601 17.8088 8.41054 17.776C8.42508 17.7432 8.45125 17.682 8.4687 17.6417C8.48614 17.6 8.50795 17.5463 8.51958 17.5224C8.53121 17.497 8.55447 17.4433 8.57192 17.403C8.65915 17.1986 8.74638 17.0271 8.77691 16.9987C8.82779 16.9495 8.9092 16.9032 8.94119 16.9032C8.95718 16.9032 8.98335 16.9152 8.99934 16.9301ZM10.0577 17.5418C10.1231 17.6805 10.1406 17.7313 10.1406 17.788C10.1406 17.8491 10.145 17.8611 10.1769 17.873C10.2191 17.8894 10.222 17.9133 10.1915 17.973C10.1653 18.0237 10.0388 18.3057 10.0388 18.3131C10.0388 18.3221 9.91089 18.6011 9.8033 18.8248C9.7466 18.9427 9.687 19.0471 9.66955 19.0591C9.62012 19.0919 9.45439 19.1441 9.4413 19.1307C9.43549 19.1247 9.4224 19.071 9.41368 19.0143C9.39623 18.9024 9.4006 18.8726 9.47183 18.6115C9.48928 18.5459 9.51254 18.4578 9.52272 18.4175C9.59977 18.1057 9.75387 17.6268 9.80185 17.5522C9.86146 17.4582 9.93851 17.3657 9.95741 17.3657C9.96613 17.3657 10.0112 17.4448 10.0577 17.5418ZM12.0582 17.5731C12.1905 17.6835 12.3155 17.87 12.3838 18.0595C12.4144 18.1445 12.4449 18.2594 12.4812 18.4325C12.4987 18.5145 12.5234 18.6249 12.535 18.6786C12.551 18.7458 12.5583 18.8457 12.5597 18.9994C12.5597 19.2098 12.5568 19.2292 12.5205 19.3217C12.4638 19.4604 12.4056 19.529 12.3431 19.529C12.2704 19.529 12.2835 19.5768 12.1556 18.88C12.144 18.8144 12.1265 18.7204 12.1163 18.6712C12.1076 18.6219 12.0945 18.5459 12.0887 18.5026C12.0814 18.4593 12.0698 18.3922 12.0611 18.3534C12.0465 18.2892 12.0262 18.1773 11.9637 17.8282C11.952 17.7581 11.9317 17.6567 11.9201 17.6015C11.907 17.5463 11.9026 17.4925 11.907 17.4851C11.9186 17.4657 11.9579 17.4896 12.0582 17.5731ZM11.0885 17.6671C11.1365 17.7417 11.1757 17.8208 11.215 17.9237C11.2455 18.0013 11.2775 18.2206 11.2775 18.3653C11.2804 18.6667 11.2033 18.9561 11.0565 19.2023C10.9925 19.3067 10.853 19.4619 10.8384 19.444C10.8006 19.4007 10.7425 19.1396 10.7207 18.9203C10.6887 18.5906 10.7454 18.2296 10.8864 17.8581C10.9547 17.6775 10.9983 17.5895 11.0187 17.5895C11.0303 17.5895 11.0623 17.6253 11.0885 17.6671Z" fill="black"/>
<path d="M21.008 21.8937C20.9019 21.9116 20.7856 21.9385 20.6518 21.9758C20.4425 22.034 19.9976 22.1235 19.7214 22.1608C19.2852 22.222 19.0643 22.2354 18.5292 22.2354C18.1338 22.2354 17.9317 22.2294 17.7369 22.21C17.2106 22.1578 16.7047 22.0772 16.318 21.9817C16.0519 21.9176 15.7437 21.9161 15.5707 21.9803C15.3439 22.0638 15.2436 22.1459 14.9732 22.4771C14.6214 22.9053 13.6706 23.9108 13.2548 24.2957C12.5119 24.9805 11.9551 25.443 11.2776 25.9324C10.9767 26.1502 10.366 26.5605 10.0971 26.7261C9.98515 26.7947 9.97497 26.8007 9.911 26.8425C9.87611 26.8663 9.84558 26.8842 9.84413 26.8842C9.84122 26.8842 9.74963 26.938 9.64059 27.0036C9.5301 27.0692 9.43851 27.123 9.4356 27.123C9.4327 27.123 9.3978 27.1424 9.36 27.1647C9.32221 27.1886 9.21898 27.2468 9.1303 27.2945C8.91514 27.4109 8.82355 27.4721 8.79447 27.5198C8.75958 27.5735 8.76249 27.6839 8.80028 27.76C8.86425 27.8883 9.44287 28.7223 9.7569 29.1371C9.7976 29.1908 9.8703 29.2878 9.91973 29.3534C10.3297 29.9039 10.9389 30.6111 11.4521 31.1288C11.9318 31.6152 12.2298 31.8837 12.7939 32.3373C12.9844 32.4909 13.5121 32.8654 13.7215 32.9952C13.7607 33.0191 13.8101 33.0504 13.8305 33.0638C13.8523 33.0788 13.8799 33.0952 13.8916 33.0997C13.9032 33.1056 13.9235 33.119 13.9352 33.128C13.9468 33.1384 13.9861 33.1638 14.0224 33.1832C14.1184 33.2384 14.1925 33.2802 14.2986 33.3443C14.6912 33.5756 15.2901 33.871 15.7234 34.0455C15.767 34.062 15.8164 34.0828 15.8324 34.0903C15.8484 34.0963 15.9036 34.1172 15.956 34.1351C16.0083 34.153 16.0636 34.1738 16.0796 34.1813C16.1406 34.2082 16.4517 34.3081 16.7047 34.3812C16.9897 34.4633 17.4607 34.5632 17.7224 34.5961C17.7863 34.605 17.891 34.6184 17.955 34.6274C18.019 34.6349 18.1353 34.6468 18.2138 34.6513C18.2908 34.6557 18.3548 34.6662 18.3548 34.6736C18.3548 34.6811 18.4522 34.6871 18.5729 34.6871C18.6964 34.6871 18.7909 34.6811 18.7909 34.6736C18.7909 34.6662 18.8345 34.6557 18.8898 34.6498C18.9436 34.6453 19.0657 34.6319 19.1617 34.6199C19.2576 34.608 19.3986 34.5916 19.4742 34.5811C19.9046 34.5304 20.2142 34.4812 20.4192 34.4305C20.4556 34.4215 20.5137 34.4096 20.5471 34.4021C20.6431 34.3827 21.0458 34.2649 21.117 34.235C21.1374 34.2276 21.1737 34.2156 21.197 34.2082C21.2508 34.1947 21.3555 34.1559 21.4151 34.1291C21.4398 34.1186 21.482 34.1007 21.5096 34.0903C21.5735 34.0664 21.8192 33.962 21.8876 33.9307C22.1434 33.8128 22.5796 33.5786 22.8224 33.4279C22.8762 33.3951 22.9329 33.3592 22.9459 33.3518C23.0056 33.3145 23.1131 33.2429 23.2687 33.137C23.7572 32.8013 24.0596 32.567 24.6469 32.0642C25.5178 31.3198 26.3057 30.4052 27.0225 29.3057C27.1286 29.143 27.2362 28.9759 27.2609 28.9357C27.4048 28.6999 27.463 28.6 27.4964 28.5403C27.5153 28.503 27.5415 28.4627 27.5517 28.4493C27.5633 28.4374 27.572 28.4224 27.572 28.418C27.572 28.4135 27.6127 28.3374 27.6636 28.2479C27.7145 28.1584 27.7595 28.0748 27.7654 28.0629C27.7712 28.0509 27.7886 28.0196 27.8032 27.9942C27.8613 27.8958 28.0329 27.5631 28.2364 27.1528C28.3876 26.8514 28.3891 26.8455 28.3818 26.7619C28.3687 26.6172 28.3047 26.5172 28.1681 26.4382C28.107 26.4024 27.7465 26.2203 27.6302 26.1666C27.5066 26.1084 26.9876 25.8399 26.8451 25.7593C26.7928 25.7295 26.7404 25.7011 26.7288 25.6952C26.7172 25.6907 26.6488 25.6519 26.5761 25.6116C26.5049 25.5713 26.4089 25.5176 26.3653 25.4923C26.2854 25.4475 25.621 25.0432 25.4858 24.9567C25.2837 24.8269 25.0496 24.6672 24.7298 24.4434C23.9026 23.8616 23.0448 23.1425 22.3092 22.4144C22.0606 22.1682 21.9821 22.1026 21.841 22.022C21.6041 21.8848 21.322 21.8415 21.008 21.8937ZM23.3269 26.8768C23.9113 26.9603 24.3285 27.2722 24.5902 27.8152C24.6542 27.951 24.6615 28.0703 24.6077 28.127C24.5292 28.2136 24.3387 28.2449 23.7557 28.2643C23.6278 28.2688 23.308 28.2822 23.0434 28.2941C22.1478 28.3359 21.8803 28.3463 21.5096 28.3613C21.306 28.3687 21.0211 28.3822 20.8772 28.3911C20.7332 28.3986 20.4221 28.4135 20.1866 28.4209C19.9511 28.4299 19.7388 28.4403 19.7141 28.4433C19.6908 28.4478 19.4553 28.4582 19.1907 28.4672C18.9276 28.4761 18.6688 28.4851 18.6165 28.4881C18.1702 28.506 17.9899 28.5149 17.6424 28.5328C17.2121 28.5567 16.8385 28.5746 16.1523 28.6074C15.9124 28.6194 15.5882 28.6343 15.4326 28.6432C15.2771 28.6522 14.9339 28.6686 14.6694 28.682C14.4062 28.6955 14.0035 28.7149 13.7753 28.7268C12.8608 28.7745 12.775 28.7715 12.698 28.6955C12.6558 28.6552 12.6529 28.6462 12.6587 28.5627C12.666 28.4642 12.7096 28.3389 12.8114 28.1226C12.9771 27.772 13.2155 27.5168 13.515 27.3721C13.7345 27.2662 13.9148 27.2304 14.3059 27.2125C14.4745 27.205 14.7711 27.1931 14.9674 27.1841C15.3076 27.1677 15.7103 27.1513 16.9082 27.1006C17.2048 27.0886 17.6032 27.0707 17.7951 27.0618C17.987 27.0543 18.3868 27.0379 18.6819 27.026C19.6792 26.9872 19.9889 26.9738 20.3029 26.9588C20.4745 26.9514 20.7231 26.9409 20.8554 26.9365C20.9877 26.932 21.3308 26.9186 21.6186 26.9066C22.5738 26.8649 22.7221 26.8589 22.9489 26.8574C23.0826 26.8559 23.2367 26.8634 23.3269 26.8768ZM24.4477 29.3773C24.5306 29.4026 24.6033 29.428 24.6091 29.4325C24.6149 29.4384 24.6135 29.4668 24.6062 29.4951C24.5989 29.5235 24.5786 29.607 24.5626 29.6801C24.5452 29.7532 24.5117 29.8502 24.4885 29.895C24.3431 30.168 24 30.4679 23.7048 30.5813C23.3225 30.726 23.3617 30.7215 21.8585 30.7857C21.559 30.7991 21.1011 30.8185 20.8408 30.8304C20.5806 30.8424 20.2637 30.8558 20.1357 30.8603C20.0078 30.8647 19.7824 30.8752 19.6341 30.8826C19.4859 30.8916 19.198 30.905 18.9945 30.9125C18.7909 30.9199 18.49 30.9334 18.3257 30.9423C18.1614 30.9498 17.8082 30.9677 17.5406 30.9796C17.0144 31.005 16.5535 31.0348 16.1741 31.0691C16.0418 31.0811 15.8557 31.099 15.7597 31.1064C15.6638 31.1154 15.4748 31.1333 15.3381 31.1452C14.681 31.2064 14.3539 31.184 13.9134 31.0467C13.7375 30.993 13.4554 30.8424 13.294 30.7185C13.1458 30.6022 12.9684 30.4321 12.9262 30.3605C12.8913 30.3053 12.8477 30.1919 12.8303 30.1158C12.8245 30.0904 12.8143 30.0576 12.8085 30.0427C12.7997 30.0218 12.8201 30.0069 12.9248 29.9561L13.0527 29.8965L13.3958 29.8756C13.5848 29.8636 13.9424 29.8442 14.1896 29.8308C14.4382 29.8174 14.7682 29.801 14.9238 29.792C15.0793 29.7846 15.4006 29.7682 15.6361 29.7562C15.8717 29.7443 16.193 29.7279 16.3485 29.7204C16.9955 29.6846 17.5014 29.6592 17.9332 29.6369C18.1847 29.6234 18.5118 29.607 18.6601 29.5981C18.8084 29.5906 19.0759 29.5772 19.2562 29.5697C19.4364 29.5623 19.6952 29.5488 19.8304 29.5399C19.9671 29.5309 20.2244 29.5175 20.4047 29.5101C20.5849 29.5026 20.8597 29.4892 21.0153 29.4802C21.1708 29.4728 21.5052 29.4549 21.7567 29.4429C22.0082 29.431 22.408 29.4101 22.6436 29.3982C22.8791 29.3862 23.2294 29.3683 23.4213 29.3594C23.6133 29.3504 23.7732 29.34 23.7761 29.337C23.779 29.334 23.8982 29.331 24.0392 29.331C24.2849 29.331 24.3038 29.3325 24.4477 29.3773Z" fill="black"/>
</svg>
